<svg width="17" height="16" viewBox="0 0 17 16" fill="none" xmlns="http://www.w3.org/2000/svg">
<g clip-path="url(#clip0_8302_49007)">
<path d="M8.49931 1.33301C8.67612 1.33301 8.84569 1.40325 8.97071 1.52827C9.09574 1.65329 9.16598 1.82286 9.16598 1.99967V3.99967C9.16598 4.17649 9.09574 4.34605 8.97071 4.47108C8.84569 4.5961 8.67612 4.66634 8.49931 4.66634C8.3225 4.66634 8.15293 4.5961 8.0279 4.47108C7.90288 4.34605 7.83264 4.17649 7.83264 3.99967V1.99967C7.83264 1.82286 7.90288 1.65329 8.0279 1.52827C8.15293 1.40325 8.3225 1.33301 8.49931 1.33301ZM8.49931 11.333C8.67612 11.333 8.84569 11.4032 8.97071 11.5283C9.09574 11.6533 9.16598 11.8229 9.16598 11.9997V13.9997C9.16598 14.1765 9.09574 14.3461 8.97071 14.4711C8.84569 14.5961 8.67612 14.6663 8.49931 14.6663C8.3225 14.6663 8.15293 14.5961 8.0279 14.4711C7.90288 14.3461 7.83264 14.1765 7.83264 13.9997V11.9997C7.83264 11.8229 7.90288 11.6533 8.0279 11.5283C8.15293 11.4032 8.3225 11.333 8.49931 11.333ZM14.2726 4.66634C14.361 4.81946 14.385 5.00143 14.3392 5.17221C14.2935 5.34299 14.1818 5.4886 14.0286 5.57701L12.2966 6.57701C12.2208 6.62147 12.1369 6.6505 12.0498 6.66241C11.9627 6.67432 11.8741 6.66888 11.7891 6.64641C11.7041 6.62393 11.6244 6.58487 11.5545 6.53147C11.4847 6.47806 11.4261 6.41137 11.3821 6.33523C11.3382 6.25909 11.3097 6.175 11.2984 6.08782C11.287 6.00063 11.2931 5.91206 11.3161 5.82721C11.3391 5.74236 11.3787 5.66291 11.4326 5.59343C11.4865 5.52394 11.5535 5.4658 11.63 5.42234L13.362 4.42234C13.5151 4.33394 13.6971 4.30998 13.8678 4.35574C14.0386 4.4015 14.1842 4.51323 14.2726 4.66634ZM5.61264 9.66634C5.70104 9.81946 5.725 10.0014 5.67924 10.1722C5.63348 10.343 5.52176 10.4886 5.36864 10.577L3.63664 11.577C3.56079 11.6215 3.4769 11.6505 3.38979 11.6624C3.30268 11.6743 3.21408 11.6689 3.12908 11.6464C3.04408 11.6239 2.96436 11.5849 2.89452 11.5315C2.82468 11.4781 2.76609 11.4114 2.72213 11.3352C2.67817 11.2591 2.64971 11.175 2.63837 11.0878C2.62704 11.0006 2.63307 10.9121 2.6561 10.8272C2.67914 10.7424 2.71873 10.6629 2.7726 10.5934C2.82647 10.5239 2.89355 10.4658 2.96998 10.4223L4.70198 9.42234C4.85509 9.33394 5.03706 9.30998 5.20784 9.35574C5.37862 9.4015 5.52423 9.51323 5.61264 9.66634ZM14.2726 11.333C14.1842 11.4861 14.0386 11.5978 13.8678 11.6436C13.6971 11.6894 13.5151 11.6654 13.362 11.577L11.63 10.577C11.4781 10.488 11.3676 10.3425 11.3226 10.1723C11.2776 10.0021 11.3018 9.821 11.3898 9.66854C11.4778 9.51609 11.6226 9.40463 11.7925 9.35851C11.9624 9.31238 12.1436 9.33533 12.2966 9.42234L14.0286 10.4223C14.1818 10.5107 14.2935 10.6564 14.3392 10.8271C14.385 10.9979 14.361 11.1799 14.2726 11.333ZM5.61264 6.33301C5.52423 6.48612 5.37862 6.59785 5.20784 6.64361C5.03706 6.68937 4.85509 6.66541 4.70198 6.57701L2.96998 5.57701C2.89355 5.53355 2.82647 5.47541 2.7726 5.40592C2.71873 5.33644 2.67914 5.25698 2.6561 5.17214C2.63307 5.08729 2.62704 4.99872 2.63837 4.91153C2.64971 4.82435 2.67817 4.74026 2.72213 4.66412C2.76609 4.58798 2.82468 4.52129 2.89452 4.46788C2.96436 4.41448 3.04408 4.37541 3.12908 4.35294C3.21408 4.33047 3.30268 4.32503 3.38979 4.33694C3.4769 4.34885 3.56079 4.37788 3.63664 4.42234L5.36864 5.42234C5.52176 5.51075 5.63348 5.65636 5.67924 5.82714C5.725 5.99792 5.70104 6.17989 5.61264 6.33301Z" fill="white"/>
</g>
<defs>
<clipPath id="clip0_8302_49007">
<rect width="16" height="16" fill="white" transform="translate(0.5)"/>
</clipPath>
</defs>
</svg>
