<svg width="179" height="137" viewBox="0 0 179 137" fill="none" xmlns="http://www.w3.org/2000/svg">
<path d="M179 120.115H0V120.205H179V120.115Z" fill="#E0E0E0"/>
<path d="M28.5797 125.73H18.7812V125.82H28.5797V125.73Z" fill="#E0E0E0"/>
<path d="M34.0485 125.73H30.9375V125.82H34.0485V125.73Z" fill="#E0E0E0"/>
<path d="M89.4992 124.494H82.5684V124.584H89.4992V124.494Z" fill="#E0E0E0"/>
<path d="M149.63 124.447H134.168V124.537H149.63V124.447Z" fill="#E0E0E0"/>
<path d="M155.086 124.447H152.82V124.537H155.086V124.447Z" fill="#E0E0E0"/>
<path d="M121.959 122.328H88.4219V122.418H121.959V122.328Z" fill="#E0E0E0"/>
<path d="M84.8465 104.149H15.7203C15.1788 104.148 14.6597 103.932 14.2771 103.549C13.8946 103.165 13.6797 102.646 13.6797 102.104V4.93253C13.6844 4.39411 13.9014 3.87929 14.2834 3.49989C14.6655 3.1205 15.1818 2.90717 15.7203 2.90625H84.8465C85.3887 2.90625 85.9086 3.12162 86.292 3.50498C86.6753 3.88833 86.8907 4.40828 86.8907 4.95043V102.104C86.8907 102.647 86.6753 103.167 86.292 103.55C85.9086 103.933 85.3887 104.149 84.8465 104.149ZM15.7203 2.97785C15.2025 2.9788 14.7062 3.18516 14.3404 3.55163C13.9746 3.9181 13.7692 4.41474 13.7692 4.93253V102.104C13.7692 102.622 13.9746 103.119 14.3404 103.485C14.7062 103.852 15.2025 104.058 15.7203 104.059H84.8465C85.3646 104.058 85.8613 103.852 86.2276 103.486C86.594 103.119 86.8002 102.623 86.8012 102.104V4.93253C86.8002 4.41441 86.594 3.91778 86.2276 3.55141C85.8613 3.18504 85.3646 2.9788 84.8465 2.97785H15.7203Z" fill="#E0E0E0"/>
<path d="M162.285 104.149H93.1555C92.6136 104.148 92.0943 103.932 91.7111 103.549C91.328 103.166 91.1123 102.646 91.1113 102.104V4.93253C91.117 4.39378 91.3347 3.87896 91.7174 3.49967C92.1 3.12037 92.6167 2.90716 93.1555 2.90625H162.285C162.823 2.90811 163.339 3.12186 163.72 3.50115C164.101 3.88044 164.318 4.39473 164.322 4.93253V102.104C164.322 102.645 164.108 103.164 163.726 103.547C163.344 103.931 162.826 104.147 162.285 104.149ZM93.1555 2.97785C92.6374 2.9788 92.1408 3.18504 91.7744 3.55141C91.408 3.91778 91.2018 4.41441 91.2008 4.93253V102.104C91.2018 102.623 91.408 103.119 91.7744 103.486C92.1408 103.852 92.6374 104.058 93.1555 104.059H162.285C162.803 104.058 163.3 103.852 163.666 103.486C164.033 103.119 164.239 102.623 164.24 102.104V4.93253C164.239 4.41441 164.033 3.91778 163.666 3.55141C163.3 3.18504 162.803 2.9788 162.285 2.97785H93.1555Z" fill="#E0E0E0"/>
<path d="M111.775 1.47496C111.776 1.08407 111.932 0.709454 112.208 0.43305C112.485 0.156646 112.859 0.000945332 113.25 0H159.192C159.583 0.000945332 159.958 0.156646 160.234 0.43305C160.511 0.709454 160.667 1.08407 160.667 1.47496V6.2113H111.775V1.47496Z" fill="#E0E0E0"/>
<path d="M122.582 3.09971C122.581 3.32077 122.646 3.53708 122.769 3.72123C122.891 3.90538 123.065 4.0491 123.269 4.13419C123.473 4.21928 123.698 4.24191 123.915 4.19922C124.132 4.15653 124.331 4.05043 124.488 3.89436C124.644 3.7383 124.751 3.53928 124.794 3.32252C124.838 3.10575 124.816 2.88098 124.731 2.67668C124.647 2.47237 124.504 2.29771 124.32 2.17482C124.136 2.05193 123.92 1.98633 123.699 1.98633C123.403 1.98633 123.12 2.10351 122.91 2.31221C122.701 2.52091 122.583 2.80409 122.582 3.09971Z" fill="white"/>
<path d="M118.631 3.09971C118.63 3.32077 118.695 3.53708 118.817 3.72123C118.94 3.90538 119.114 4.0491 119.318 4.13419C119.522 4.21928 119.747 4.24191 119.964 4.19922C120.18 4.15653 120.38 4.05043 120.536 3.89436C120.693 3.7383 120.8 3.53928 120.843 3.32252C120.886 3.10575 120.865 2.88098 120.78 2.67668C120.696 2.47237 120.553 2.29771 120.369 2.17482C120.185 2.05193 119.969 1.98633 119.748 1.98633C119.452 1.98633 119.169 2.10351 118.959 2.31221C118.75 2.52091 118.632 2.80409 118.631 3.09971Z" fill="white"/>
<path d="M114.678 3.09971C114.677 3.32077 114.742 3.53708 114.864 3.72123C114.987 3.90538 115.161 4.0491 115.365 4.13419C115.569 4.21928 115.794 4.24191 116.01 4.19922C116.227 4.15653 116.427 4.05043 116.583 3.89436C116.74 3.7383 116.847 3.53928 116.89 3.32252C116.933 3.10575 116.911 2.88098 116.827 2.67668C116.743 2.47237 116.599 2.29771 116.416 2.17482C116.232 2.05193 116.016 1.98633 115.795 1.98633C115.499 1.98633 115.216 2.10351 115.006 2.31221C114.797 2.52091 114.679 2.80409 114.678 3.09971Z" fill="white"/>
<path d="M159.192 38.1875H113.25C112.859 38.1866 112.485 38.0308 112.208 37.7544C111.932 37.478 111.776 37.1034 111.775 36.7125V6.21094H160.667V36.7125C160.667 37.1034 160.511 37.478 160.234 37.7544C159.958 38.0308 159.583 38.1866 159.192 38.1875Z" fill="#F0F0F0"/>
<path d="M108.475 6.40074C108.476 6.00985 108.631 5.63524 108.908 5.35883C109.184 5.08243 109.559 4.92673 109.95 4.92578H155.902C156.293 4.92673 156.668 5.08243 156.944 5.35883C157.221 5.63524 157.376 6.00985 157.377 6.40074V11.1407H108.475V6.40074Z" fill="#F0F0F0"/>
<path d="M119.293 8.03721C119.292 8.25843 119.357 8.47488 119.48 8.65911C119.602 8.84334 119.777 8.98706 119.981 9.07204C120.185 9.15702 120.41 9.17944 120.627 9.13646C120.844 9.09348 121.043 8.98702 121.2 8.8306C121.356 8.67417 121.463 8.47482 121.506 8.25782C121.549 8.04082 121.526 7.81594 121.441 7.6117C121.356 7.40745 121.212 7.23304 121.028 7.11058C120.844 6.98812 120.628 6.92313 120.406 6.92383C120.111 6.92478 119.829 7.04238 119.62 7.25098C119.412 7.45957 119.294 7.74222 119.293 8.03721Z" fill="#E0E0E0"/>
<path d="M115.34 8.03721C115.339 8.25827 115.404 8.47458 115.526 8.65873C115.649 8.84288 115.823 8.98661 116.027 9.07169C116.231 9.15678 116.456 9.17941 116.673 9.13672C116.889 9.09403 117.089 8.98793 117.245 8.83187C117.402 8.6758 117.509 8.47678 117.552 8.26002C117.595 8.04325 117.574 7.81848 117.489 7.61418C117.405 7.40987 117.261 7.23521 117.078 7.11232C116.894 6.98943 116.678 6.92383 116.457 6.92383C116.161 6.92383 115.878 7.04101 115.668 7.24971C115.459 7.45841 115.341 7.74159 115.34 8.03721Z" fill="#E0E0E0"/>
<path d="M111.389 8.03721C111.388 8.25827 111.453 8.47458 111.575 8.65873C111.697 8.84288 111.872 8.98661 112.076 9.07169C112.28 9.15678 112.504 9.17941 112.721 9.13672C112.938 9.09403 113.138 8.98793 113.294 8.83187C113.451 8.6758 113.557 8.47678 113.601 8.26002C113.644 8.04325 113.622 7.81848 113.538 7.61418C113.453 7.40987 113.31 7.23521 113.127 7.11232C112.943 6.98943 112.727 6.92383 112.506 6.92383C112.21 6.92383 111.926 7.04101 111.717 7.24971C111.508 7.45841 111.39 7.74159 111.389 8.03721Z" fill="#E0E0E0"/>
<path d="M155.901 43.1243H109.955C109.565 43.1234 109.19 42.9677 108.914 42.6913C108.637 42.4149 108.481 42.0403 108.48 41.6494V11.1406H157.376V41.6422C157.377 41.8364 157.339 42.0287 157.265 42.2083C157.191 42.3879 157.083 42.5511 156.946 42.6888C156.809 42.8264 156.646 42.9357 156.467 43.0104C156.287 43.0852 156.095 43.1239 155.901 43.1243Z" fill="#FAFAFA"/>
<path d="M105.191 11.3383C105.192 11.1432 105.231 10.9502 105.306 10.7703C105.382 10.5904 105.492 10.4272 105.631 10.29C105.77 10.1529 105.934 10.0447 106.115 9.97142C106.296 9.89819 106.489 9.86146 106.684 9.86335H152.612C153.003 9.8643 153.378 10.02 153.654 10.2964C153.93 10.5728 154.086 10.9474 154.087 11.3383V16.0854H105.191V11.3383Z" fill="#FAFAFA"/>
<path d="M115.992 12.9744C115.992 13.195 116.058 13.4107 116.18 13.5942C116.302 13.7777 116.476 13.9209 116.68 14.0056C116.884 14.0904 117.108 14.1129 117.324 14.0704C117.541 14.0279 117.74 13.9222 117.896 13.7667C118.053 13.6112 118.16 13.4129 118.204 13.1967C118.248 12.9805 118.227 12.7561 118.143 12.5519C118.06 12.3477 117.918 12.1727 117.735 12.0492C117.552 11.9256 117.337 11.8589 117.116 11.8574C116.969 11.8565 116.823 11.8847 116.687 11.9404C116.55 11.9961 116.426 12.0782 116.322 12.1821C116.217 12.2859 116.134 12.4093 116.078 12.5453C116.021 12.6813 115.992 12.8271 115.992 12.9744Z" fill="#F0F0F0"/>
<path d="M112.055 12.9744C112.055 13.1956 112.12 13.4119 112.243 13.5957C112.366 13.7795 112.541 13.9227 112.746 14.007C112.95 14.0913 113.175 14.113 113.392 14.0693C113.609 14.0257 113.808 13.9186 113.964 13.7616C114.12 13.6047 114.226 13.405 114.268 13.1879C114.31 12.9708 114.287 12.7459 114.202 12.542C114.116 12.338 113.972 12.1641 113.787 12.0422C113.602 11.9203 113.386 11.856 113.164 11.8574C112.869 11.8593 112.587 11.9778 112.379 12.1871C112.171 12.3964 112.055 12.6794 112.055 12.9744Z" fill="#F0F0F0"/>
<path d="M109.211 14.0913C109.828 14.0913 110.328 13.5913 110.328 12.9744C110.328 12.3575 109.828 11.8574 109.211 11.8574C108.594 11.8574 108.094 12.3575 108.094 12.9744C108.094 13.5913 108.594 14.0913 109.211 14.0913Z" fill="#F0F0F0"/>
<path d="M152.612 48.0605H106.684C106.293 48.0596 105.918 47.9039 105.642 47.6275C105.366 47.3511 105.21 46.9765 105.209 46.5856V16.084H154.087V46.582C154.087 46.9735 153.931 47.3491 153.655 47.6262C153.378 47.9034 153.003 48.0596 152.612 48.0605Z" fill="#E0E0E0"/>
<path d="M28.3281 28.9984C28.3309 28.6315 28.4777 28.2804 28.7368 28.0206C28.9959 27.7608 29.3467 27.6131 29.7136 27.6094H98.9615C99.3315 27.6103 99.6861 27.7577 99.9477 28.0194C100.209 28.281 100.357 28.6356 100.358 29.0056V33.5092H28.3281V28.9984Z" fill="#E0E0E0"/>
<path d="M39.6414 31.7007C39.4141 31.7007 39.1919 31.6333 39.0029 31.507C38.8139 31.3808 38.6666 31.2013 38.5797 30.9913C38.4927 30.7813 38.4699 30.5502 38.5143 30.3273C38.5586 30.1044 38.6681 29.8996 38.8288 29.7389C38.9895 29.5782 39.1943 29.4688 39.4172 29.4244C39.6401 29.3801 39.8712 29.4028 40.0811 29.4898C40.2911 29.5768 40.4706 29.7241 40.5969 29.9131C40.7231 30.1021 40.7905 30.3242 40.7905 30.5515C40.7905 30.8563 40.6695 31.1486 40.454 31.3641C40.2384 31.5796 39.9462 31.7007 39.6414 31.7007ZM39.6414 29.5849C39.45 29.5842 39.2628 29.6403 39.1034 29.7461C38.944 29.8519 38.8195 30.0026 38.7458 30.1791C38.6721 30.3557 38.6524 30.5502 38.6893 30.7379C38.7262 30.9256 38.818 31.0982 38.953 31.2337C39.0881 31.3693 39.2603 31.4617 39.4479 31.4993C39.6355 31.5369 39.83 31.5179 40.0069 31.4449C40.1837 31.3718 40.3349 31.2479 40.4412 31.0889C40.5476 30.9299 40.6044 30.7429 40.6044 30.5515C40.6044 30.2958 40.503 30.0505 40.3225 29.8693C40.142 29.6881 39.8971 29.5859 39.6414 29.5849Z" fill="white"/>
<path d="M35.8933 31.7007C35.666 31.7007 35.4439 31.6333 35.2549 31.507C35.0659 31.3808 34.9186 31.2013 34.8316 30.9913C34.7446 30.7813 34.7219 30.5502 34.7662 30.3273C34.8106 30.1044 34.92 29.8996 35.0807 29.7389C35.2414 29.5782 35.4462 29.4688 35.6691 29.4244C35.892 29.3801 36.1231 29.4028 36.3331 29.4898C36.5431 29.5768 36.7226 29.7241 36.8488 29.9131C36.9751 30.1021 37.0425 30.3242 37.0425 30.5515C37.0425 30.8563 36.9214 31.1486 36.7059 31.3641C36.4904 31.5796 36.1981 31.7007 35.8933 31.7007ZM35.8933 29.5849C35.7021 29.5849 35.5153 29.6416 35.3563 29.7478C35.1974 29.854 35.0735 30.005 35.0003 30.1816C34.9271 30.3582 34.908 30.5526 34.9453 30.7401C34.9826 30.9276 35.0747 31.0998 35.2098 31.235C35.345 31.3702 35.5172 31.4623 35.7047 31.4995C35.8922 31.5368 36.0866 31.5177 36.2632 31.4445C36.4398 31.3714 36.5908 31.2475 36.697 31.0885C36.8032 30.9296 36.8599 30.7427 36.8599 30.5515C36.8599 30.2952 36.7581 30.0493 36.5768 29.868C36.3955 29.6868 36.1497 29.5849 35.8933 29.5849Z" fill="white"/>
<path d="M32.1453 31.7007C31.918 31.7007 31.6958 31.6333 31.5068 31.507C31.3178 31.3808 31.1705 31.2013 31.0836 30.9913C30.9966 30.7813 30.9738 30.5502 31.0182 30.3273C31.0625 30.1044 31.172 29.8996 31.3327 29.7389C31.4934 29.5782 31.6982 29.4688 31.9211 29.4244C32.144 29.3801 32.3751 29.4028 32.585 29.4898C32.795 29.5768 32.9745 29.7241 33.1008 29.9131C33.2271 30.1021 33.2945 30.3242 33.2945 30.5515C33.2945 30.8563 33.1734 31.1486 32.9579 31.3641C32.7424 31.5796 32.4501 31.7007 32.1453 31.7007ZM32.1453 29.5849C31.9541 29.5849 31.7672 29.6416 31.6083 29.7478C31.4493 29.854 31.3254 30.005 31.2523 30.1816C31.1791 30.3582 31.1599 30.5526 31.1972 30.7401C31.2345 30.9276 31.3266 31.0998 31.4618 31.235C31.597 31.3702 31.7692 31.4623 31.9567 31.4995C32.1442 31.5368 32.3386 31.5177 32.5152 31.4445C32.6918 31.3714 32.8428 31.2475 32.949 31.0885C33.0552 30.9296 33.1119 30.7427 33.1119 30.5515C33.1119 30.4246 33.0869 30.2989 33.0383 30.1816C32.9897 30.0643 32.9185 29.9578 32.8288 29.868C32.739 29.7783 32.6324 29.7071 32.5152 29.6585C32.3979 29.6099 32.2722 29.5849 32.1453 29.5849Z" fill="white"/>
<path d="M98.9622 70.9273H29.7142C29.3433 70.9263 28.9878 70.7785 28.7255 70.5162C28.4632 70.2539 28.3154 69.8984 28.3145 69.5275V33.502H100.344V69.5382C100.341 69.9045 100.195 70.2551 99.9367 70.5148C99.6783 70.7745 99.3285 70.9226 98.9622 70.9273Z" fill="#F0F0F0"/>
<path d="M25.207 38.4955C25.208 38.1245 25.3558 37.769 25.6181 37.5067C25.8804 37.2444 26.2359 37.0966 26.6068 37.0957H95.8404C96.211 37.0967 96.5662 37.2445 96.8279 37.507C97.0896 37.7694 97.2366 38.1249 97.2366 38.4955V43.0027H25.207V38.4955Z" fill="#FAFAFA"/>
<path d="M36.5164 41.2124C36.2891 41.2124 36.0669 41.145 35.8779 41.0188C35.6889 40.8925 35.5416 40.713 35.4547 40.503C35.3677 40.293 35.3449 40.062 35.3893 39.839C35.4336 39.6161 35.5431 39.4114 35.7038 39.2507C35.8645 39.0899 36.0693 38.9805 36.2922 38.9361C36.5151 38.8918 36.7462 38.9146 36.9561 39.0015C37.1661 39.0885 37.3456 39.2358 37.4719 39.4248C37.5981 39.6138 37.6655 39.836 37.6655 40.0632C37.6655 40.368 37.5445 40.6603 37.329 40.8758C37.1134 41.0914 36.8211 41.2124 36.5164 41.2124ZM36.5164 39.0966C36.3252 39.0966 36.1383 39.1533 35.9794 39.2595C35.8204 39.3658 35.6965 39.5167 35.6233 39.6933C35.5502 39.87 35.531 40.0643 35.5683 40.2518C35.6056 40.4393 35.6977 40.6116 35.8329 40.7467C35.9681 40.8819 36.1403 40.974 36.3278 41.0113C36.5153 41.0486 36.7096 41.0294 36.8863 40.9563C37.0629 40.8831 37.2139 40.7592 37.3201 40.6003C37.4263 40.4413 37.483 40.2544 37.483 40.0632C37.4873 39.9336 37.4655 39.8045 37.4188 39.6834C37.3722 39.5624 37.3017 39.452 37.2115 39.3588C37.1213 39.2656 37.0133 39.1915 36.8939 39.141C36.7744 39.0904 36.6461 39.0644 36.5164 39.0644V39.0966Z" fill="#E0E0E0"/>
<path d="M32.7703 41.2124C32.543 41.2124 32.3208 41.145 32.1318 41.0188C31.9428 40.8925 31.7955 40.713 31.7086 40.503C31.6216 40.293 31.5988 40.062 31.6432 39.839C31.6875 39.6161 31.797 39.4114 31.9577 39.2507C32.1184 39.0899 32.3232 38.9805 32.5461 38.9361C32.769 38.8918 33.0001 38.9146 33.21 39.0015C33.42 39.0885 33.5995 39.2358 33.7258 39.4248C33.8521 39.6138 33.9195 39.836 33.9195 40.0632C33.9195 40.368 33.7984 40.6603 33.5829 40.8758C33.3674 41.0914 33.0751 41.2124 32.7703 41.2124ZM32.7703 39.0966C32.5791 39.0966 32.3922 39.1533 32.2333 39.2595C32.0743 39.3658 31.9504 39.5167 31.8773 39.6933C31.8041 39.87 31.7849 40.0643 31.8222 40.2518C31.8595 40.4393 31.9516 40.6116 32.0868 40.7467C32.222 40.8819 32.3942 40.974 32.5817 41.0113C32.7692 41.0486 32.9636 41.0294 33.1402 40.9563C33.3168 40.8831 33.4678 40.7592 33.574 40.6003C33.6802 40.4413 33.7369 40.2544 33.7369 40.0632C33.7412 39.9336 33.7194 39.8045 33.6728 39.6834C33.6261 39.5624 33.5556 39.452 33.4654 39.3588C33.3752 39.2656 33.2672 39.1915 33.1478 39.141C33.0283 39.0904 32.9 39.0644 32.7703 39.0644V39.0966Z" fill="#E0E0E0"/>
<path d="M29.0242 41.2124C28.7969 41.2124 28.5747 41.145 28.3857 41.0188C28.1967 40.8925 28.0495 40.713 27.9625 40.503C27.8755 40.293 27.8527 40.062 27.8971 39.839C27.9414 39.6161 28.0509 39.4114 28.2116 39.2507C28.3723 39.0899 28.5771 38.9805 28.8 38.9361C29.0229 38.8918 29.254 38.9146 29.464 39.0015C29.6739 39.0885 29.8534 39.2358 29.9797 39.4248C30.106 39.6138 30.1734 39.836 30.1734 40.0632C30.1734 40.368 30.0523 40.6603 29.8368 40.8758C29.6213 41.0914 29.329 41.2124 29.0242 41.2124ZM29.0242 39.0966C28.833 39.0966 28.6461 39.1533 28.4872 39.2595C28.3282 39.3658 28.2043 39.5167 28.1312 39.6933C28.058 39.87 28.0389 40.0643 28.0762 40.2518C28.1135 40.4393 28.2055 40.6116 28.3407 40.7467C28.4759 40.8819 28.6481 40.974 28.8356 41.0113C29.0231 41.0486 29.2175 41.0294 29.3941 40.9563C29.5707 40.8831 29.7217 40.7592 29.8279 40.6003C29.9341 40.4413 29.9908 40.2544 29.9908 40.0632C29.9951 39.9336 29.9733 39.8045 29.9267 39.6834C29.88 39.5624 29.8095 39.452 29.7193 39.3588C29.6291 39.2656 29.5211 39.1915 29.4017 39.141C29.2823 39.0904 29.1539 39.0644 29.0242 39.0644V39.0966Z" fill="#E0E0E0"/>
<path d="M95.8404 87.5391H26.6068C26.2359 87.5382 25.8804 87.3904 25.6181 87.1281C25.3558 86.8658 25.208 86.5103 25.207 86.1393V43.0039H97.2366V86.1393C97.2366 86.5099 97.0896 86.8654 96.8279 87.1279C96.5662 87.3903 96.211 87.5382 95.8404 87.5391Z" fill="#F0F0F0"/>
<path d="M59.3313 10.7393L23.6996 10.5961C23.3172 10.5886 22.953 10.4314 22.6852 10.1583C22.4175 9.88517 22.2675 9.51793 22.2676 9.13545C22.2695 8.74964 22.4243 8.38032 22.6981 8.10852C22.972 7.83671 23.3424 7.6846 23.7282 7.68555L59.3564 7.82875C59.7419 7.83159 60.1107 7.98673 60.3823 8.26034C60.6539 8.53396 60.8063 8.90386 60.8063 9.28939C60.8054 9.48165 60.7664 9.67182 60.6916 9.84895C60.6169 10.0261 60.5078 10.1867 60.3707 10.3214C60.2336 10.4562 60.0711 10.5625 59.8928 10.6342C59.7144 10.706 59.5236 10.7417 59.3313 10.7393Z" fill="#F0F0F0"/>
<path d="M40.3654 17.4809H23.6289C23.2428 17.4799 22.8727 17.3261 22.5997 17.053C22.3266 16.78 22.1728 16.4099 22.1719 16.0238C22.1738 15.6383 22.328 15.2691 22.6009 14.9968C22.8739 14.7246 23.2434 14.5713 23.6289 14.5703H40.3726C40.7581 14.5713 41.1276 14.7246 41.4006 14.9968C41.6735 15.2691 41.8278 15.6383 41.8297 16.0238C41.8292 16.2156 41.7909 16.4055 41.7171 16.5825C41.6433 16.7595 41.5353 16.9203 41.3993 17.0556C41.2633 17.1909 41.1021 17.2981 40.9247 17.371C40.7473 17.444 40.5572 17.4813 40.3654 17.4809Z" fill="#E6E6E6"/>
<path d="M156.03 58.677H148.258C147.965 58.676 147.684 58.5593 147.476 58.3521C147.268 58.145 147.15 57.8642 147.148 57.5707C147.15 57.277 147.268 56.9958 147.476 56.7881C147.683 56.5803 147.964 56.4628 148.258 56.4609H156.03C156.324 56.4628 156.605 56.5805 156.812 56.7883C157.019 56.9961 157.136 57.2773 157.137 57.5707C157.136 57.8638 157.019 58.1447 156.812 58.3519C156.604 58.5592 156.324 58.676 156.03 58.677Z" fill="#E0E0E0"/>
<path d="M159.721 61.1934H148.255C147.644 61.1934 147.148 61.6886 147.148 62.2996V62.3032C147.148 62.9141 147.644 63.4094 148.255 63.4094H159.721C160.332 63.4094 160.828 62.9141 160.828 62.3032V62.2996C160.828 61.6886 160.332 61.1934 159.721 61.1934Z" fill="#F0F0F0"/>
<path d="M153.017 68.4523H148.259C148.113 68.4533 147.968 68.4254 147.833 68.3703C147.697 68.3153 147.574 68.234 147.47 68.1313C147.366 68.0286 147.283 67.9064 147.226 67.7717C147.169 67.6369 147.14 67.4923 147.139 67.3461C147.141 67.0524 147.258 66.7712 147.466 66.5635C147.674 66.3557 147.955 66.2382 148.248 66.2363H153.006C153.3 66.2373 153.582 66.3545 153.79 66.5624C153.998 66.7703 154.115 67.0521 154.116 67.3461C154.115 67.638 153.999 67.9177 153.794 68.1248C153.588 68.3318 153.309 68.4495 153.017 68.4523Z" fill="#E6E6E6"/>
<path d="M156.288 73.1828H148.258C147.965 73.1819 147.684 73.0651 147.476 72.858C147.268 72.6508 147.15 72.37 147.148 72.0766C147.15 71.7828 147.268 71.5016 147.476 71.2939C147.683 71.0862 147.964 70.9687 148.258 70.9668H156.288C156.582 70.9687 156.862 71.0863 157.07 71.2941C157.277 71.502 157.393 71.7832 157.394 72.0766C157.393 72.3697 157.277 72.6505 157.069 72.8578C156.862 73.065 156.581 73.1819 156.288 73.1828Z" fill="#F0F0F0"/>
<path d="M155.014 78.2297H148.258C147.965 78.2288 147.684 78.112 147.476 77.9049C147.268 77.6977 147.15 77.4169 147.148 77.1235C147.15 76.8297 147.268 76.5485 147.476 76.3408C147.683 76.1331 147.964 76.0155 148.258 76.0137H155.014C155.307 76.0155 155.589 76.1331 155.796 76.3408C156.004 76.5485 156.122 76.8297 156.123 77.1235C156.122 77.4169 156.004 77.6977 155.796 77.9049C155.588 78.112 155.307 78.2288 155.014 78.2297Z" fill="#E6E6E6"/>
<path d="M129.399 64.5148H106.298C106.004 64.5139 105.723 64.3966 105.515 64.1885C105.308 63.9805 105.191 63.6988 105.191 63.4051C105.192 63.112 105.309 62.8311 105.516 62.6239C105.724 62.4166 106.005 62.2998 106.298 62.2988H129.399C129.692 62.2998 129.973 62.4166 130.181 62.6239C130.388 62.8311 130.505 63.112 130.506 63.4051C130.506 63.6988 130.389 63.9805 130.182 64.1885C129.974 64.3966 129.693 64.5139 129.399 64.5148Z" fill="#E0E0E0"/>
<path d="M138.75 69.2434H106.298C106.005 69.2424 105.724 69.1256 105.516 68.9183C105.309 68.7111 105.192 68.4302 105.191 68.1371C105.191 67.8434 105.308 67.5617 105.515 67.3537C105.723 67.1456 106.004 67.0283 106.298 67.0273H138.75C139.044 67.0283 139.326 67.1455 139.534 67.3534C139.742 67.5614 139.859 67.8431 139.86 68.1371C139.858 68.4306 139.741 68.7114 139.533 68.9185C139.325 69.1257 139.044 69.2424 138.75 69.2434Z" fill="#F0F0F0"/>
<path d="M121.763 74.2922H106.298C106.004 74.2912 105.723 74.1739 105.515 73.9659C105.308 73.7579 105.191 73.4761 105.191 73.1824C105.192 72.8893 105.309 72.6085 105.516 72.4012C105.724 72.194 106.005 72.0771 106.298 72.0762H121.763C122.057 72.0771 122.338 72.1938 122.546 72.401C122.753 72.6081 122.871 72.889 122.873 73.1824C122.872 73.4764 122.755 73.7582 122.547 73.9661C122.339 74.174 122.057 74.2912 121.763 74.2922Z" fill="#E6E6E6"/>
<path d="M130.051 79.0207H106.298C106.004 79.0197 105.723 78.9024 105.515 78.6944C105.308 78.4864 105.191 78.2046 105.191 77.9109C105.192 77.6178 105.309 77.337 105.516 77.1297C105.724 76.9225 106.005 76.8056 106.298 76.8047H130.051C130.345 76.8047 130.626 76.9211 130.834 77.1285C131.042 77.3358 131.16 77.6172 131.161 77.9109C131.161 78.0566 131.132 78.201 131.076 78.3356C131.02 78.4703 130.939 78.5926 130.836 78.6956C130.733 78.7987 130.61 78.8805 130.476 78.9362C130.341 78.992 130.197 79.0207 130.051 79.0207Z" fill="#F0F0F0"/>
<path d="M126.779 84.0695H106.298C106.004 84.0686 105.723 83.9512 105.515 83.7432C105.308 83.5352 105.191 83.2535 105.191 82.9597C105.192 82.6666 105.309 82.3858 105.516 82.1786C105.724 81.9713 106.005 81.8545 106.298 81.8535H126.779C127.072 81.8545 127.353 81.9713 127.56 82.1786C127.767 82.3858 127.884 82.6666 127.885 82.9597C127.885 83.2535 127.769 83.5352 127.561 83.7432C127.354 83.9512 127.073 84.0686 126.779 84.0695Z" fill="#E6E6E6"/>
<path d="M89.5005 136.283C127.836 136.283 158.913 134.468 158.913 132.23C158.913 129.992 127.836 128.178 89.5005 128.178C51.165 128.178 20.0879 129.992 20.0879 132.23C20.0879 134.468 51.165 136.283 89.5005 136.283Z" fill="#F5F5F5"/>
<path opacity="0.7" d="M125.433 107.722H81.3128C79.8476 107.731 78.3962 107.438 77.0487 106.863C75.7011 106.287 74.4862 105.441 73.4792 104.377C72.4722 103.312 71.6946 102.052 71.1947 100.675C70.6947 99.2976 70.4831 97.8322 70.5728 96.3697L74.3461 24.3544C74.6576 18.1109 80.0312 13.0023 86.2783 13.0023H130.398C131.865 12.9912 133.318 13.2818 134.668 13.8562C136.018 14.4306 137.235 15.2763 138.244 16.341C139.253 17.4057 140.032 18.6664 140.533 20.045C141.034 21.4236 141.246 22.8904 141.156 24.3544L137.379 96.3697C137.053 102.613 131.676 107.722 125.433 107.722Z" fill="#458BF5"/>
<path d="M99.3787 8.85352H96.6328V9.21152H99.3787V8.85352Z" fill="#458BF5"/>
<path d="M94.2861 8.85352H84.7383V9.21152H94.2861V8.85352Z" fill="#458BF5"/>
<path d="M69.5772 33.4096L69.4336 36.123L69.7911 36.142L69.9347 33.4286L69.5772 33.4096Z" fill="#458BF5"/>
<path opacity="0.6" d="M122.894 105.189H78.7599C77.295 105.197 75.8439 104.905 74.4966 104.33C73.1493 103.754 71.9346 102.909 70.9276 101.845C69.9207 100.781 69.143 99.5211 68.6428 98.1442C68.1427 96.7673 67.9306 95.3023 68.0199 93.8401L71.7968 21.8212C72.1226 15.5777 77.4997 10.4691 83.7432 10.4691H127.86C129.326 10.458 130.78 10.7486 132.129 11.323C133.479 11.8973 134.696 12.7431 135.705 13.8078C136.714 14.8725 137.493 16.1332 137.994 17.5118C138.495 18.8903 138.707 20.3572 138.617 21.8212L134.844 93.8401C134.515 100.08 129.138 105.189 122.894 105.189Z" fill="#458BF5"/>
<path d="M87.0268 94.9964C76.5374 94.9964 66.8857 90.9116 59.8474 83.4974C52.8091 76.0832 49.2148 66.1846 49.7661 55.6737C50.1502 48.6982 52.3131 41.937 56.049 36.0338C59.707 30.2475 64.7017 25.4248 70.6125 21.9716C70.6343 21.9626 70.6587 21.9626 70.6805 21.9716C70.7042 21.9783 70.7246 21.9936 70.7378 22.0145L74.35 28.906C74.4789 28.8344 74.6078 28.7628 74.7402 28.6948L74.8798 28.616C74.902 28.6089 74.9257 28.6089 74.9479 28.616C74.9596 28.6195 74.9705 28.6255 74.9797 28.6335C74.989 28.6415 74.9964 28.6514 75.0016 28.6626L75.9896 30.5421C76 30.5626 76.002 30.5863 75.9954 30.6083C75.9887 30.6303 75.9738 30.6489 75.9538 30.6602C66.764 35.7975 60.7174 45.3883 60.1804 55.6952C59.7722 63.4208 62.4035 70.6846 67.5874 76.1441C70.1595 78.8476 73.2603 80.993 76.6968 82.4471C80.1334 83.9012 83.8324 84.6328 87.5638 84.5965C87.576 84.5962 87.5881 84.5986 87.5992 84.6036C87.6104 84.6085 87.6203 84.6159 87.6282 84.6251C87.637 84.6333 87.6439 84.6433 87.6482 84.6545C87.6525 84.6656 87.6543 84.6776 87.6533 84.6896L87.1163 94.9284C87.112 94.9486 87.1006 94.9666 87.0842 94.979C87.0678 94.9915 87.0474 94.9977 87.0268 94.9964ZM70.6196 22.1756C58.5801 29.2282 50.6576 42.0589 49.9416 55.6808C49.3938 66.1452 52.9595 75.9794 59.9656 83.3721C66.9716 90.7648 76.5231 94.7959 86.9337 94.8281L87.46 84.7719C83.7203 84.795 80.0156 84.0522 76.5738 82.5893C73.1321 81.1264 70.0263 78.9744 67.4478 76.2658C62.2317 70.767 59.5718 63.4566 59.9906 55.6844C60.5312 45.3454 66.5778 35.7188 75.7784 30.5421L74.8763 28.8201L74.8118 28.8559C74.6579 28.9382 74.5004 29.0206 74.35 29.1101C74.327 29.1192 74.3014 29.1192 74.2784 29.1101C74.2557 29.1031 74.2365 29.0878 74.2247 29.0671L70.6196 22.1756Z" fill="#458BF5"/>
<path d="M89.5762 98.7288C89.5506 98.7286 89.5262 98.7183 89.5082 98.7001C89.5003 98.6908 89.4943 98.6799 89.4906 98.6683C89.487 98.6566 89.4856 98.6443 89.4867 98.6321L90.0595 87.6809C90.0613 87.6584 90.0715 87.6375 90.0881 87.6222C90.1047 87.6069 90.1264 87.5985 90.149 87.5986C107.208 87.5986 121.814 73.7189 122.709 56.6566C122.711 56.6342 122.721 56.6132 122.738 56.5979C122.754 56.5827 122.776 56.5742 122.799 56.5743H125.405C125.416 56.5738 125.428 56.5757 125.439 56.5798C125.45 56.5839 125.46 56.5901 125.468 56.5982C125.476 56.6062 125.483 56.6158 125.487 56.6265C125.492 56.6371 125.494 56.6486 125.494 56.6602C125.516 57.548 125.494 58.4502 125.462 59.3273H133.514C133.526 59.327 133.538 59.3294 133.549 59.3344C133.56 59.3393 133.57 59.3467 133.578 59.3559C133.594 59.3761 133.603 59.4015 133.603 59.4276C132.334 69.7343 127.509 79.2754 119.96 86.4064C111.715 94.2359 100.642 98.7288 89.5762 98.7288ZM90.2349 87.7776L89.6693 98.5498C100.66 98.5247 111.65 94.0533 119.834 86.274C127.33 79.1978 132.131 69.7344 133.413 59.5063H125.369C125.356 59.5063 125.342 59.5031 125.331 59.4968C125.319 59.4906 125.309 59.4816 125.301 59.4705C125.292 59.4626 125.285 59.4526 125.281 59.4413C125.276 59.4301 125.275 59.418 125.276 59.4061C125.322 58.5254 125.333 57.6161 125.315 56.7461H122.881C121.943 73.8371 107.322 87.731 90.2349 87.7776Z" fill="#458BF5"/>
<path d="M125.404 56.7547C125.381 56.7538 125.358 56.7441 125.342 56.7275C125.325 56.7109 125.316 56.6886 125.315 56.6652C124.86 38.5755 110.279 24.4058 92.103 24.4058C86.1178 24.42 80.2296 25.9182 74.9655 28.7663C74.9553 28.7724 74.9439 28.7764 74.9321 28.778C74.9203 28.7795 74.9082 28.7786 74.8968 28.7752C74.8853 28.7718 74.8747 28.7661 74.8656 28.7584C74.8565 28.7507 74.8491 28.7412 74.8438 28.7304C74.8333 28.7094 74.8311 28.6851 74.8378 28.6625C74.8444 28.64 74.8594 28.6207 74.8796 28.6087C80.1702 25.7465 86.0879 24.241 92.103 24.2268C100.824 24.1262 109.231 27.4808 115.487 33.5579C121.744 39.6351 125.341 47.941 125.494 56.6616C125.494 56.6734 125.492 56.6851 125.488 56.6961C125.484 56.7072 125.478 56.7173 125.47 56.726C125.462 56.7346 125.452 56.7416 125.442 56.7465C125.431 56.7515 125.419 56.7542 125.408 56.7547H125.404Z" fill="#458BF5"/>
<path d="M137.759 59.507H133.514C133.49 59.507 133.467 59.4976 133.45 59.4808C133.433 59.464 133.424 59.4412 133.424 59.4175C133.424 59.3938 133.433 59.371 133.45 59.3542C133.467 59.3374 133.49 59.328 133.514 59.328H137.674C138.112 51.1439 136.348 42.9919 132.565 35.7215C127.019 25.1712 117.557 17.4635 105.919 14.0124C93.5393 10.3393 80.3613 11.8644 68.8015 18.3084L70.7382 21.9958C70.7485 22.0172 70.7501 22.0418 70.7428 22.0645C70.7355 22.0871 70.7197 22.1061 70.6989 22.1175C70.6883 22.123 70.6768 22.1264 70.6649 22.1274C70.653 22.1284 70.6411 22.127 70.6297 22.1234C70.6184 22.1197 70.6079 22.1138 70.5989 22.106C70.5898 22.0983 70.5825 22.0888 70.5772 22.0781L68.6046 18.3155C68.599 18.3054 68.5955 18.2944 68.5942 18.2829C68.593 18.2715 68.5941 18.2599 68.5974 18.2489C68.6008 18.2378 68.6063 18.2276 68.6137 18.2188C68.6211 18.2099 68.6301 18.2026 68.6404 18.1974C74.4075 14.9495 80.7733 12.9047 87.353 12.1866C93.6066 11.4895 99.9364 12.0519 105.969 13.8405C117.654 17.306 127.155 25.0459 132.722 35.6391C136.535 42.9626 138.306 51.1773 137.849 59.4211C137.848 59.4442 137.838 59.466 137.821 59.4821C137.805 59.4981 137.783 59.507 137.759 59.507Z" fill="#458BF5"/>
<path d="M74.3138 29.1094H74.2888C74.266 29.1024 74.2468 29.0871 74.2351 29.0664L70.5763 22.0926C70.5654 22.0712 70.5634 22.0464 70.5708 22.0236C70.5782 22.0007 70.5943 21.9818 70.6157 21.9708C70.6371 21.9599 70.6619 21.9579 70.6847 21.9653C70.7075 21.9727 70.7265 21.9889 70.7374 22.0102L74.3496 28.9017C74.4785 28.8301 74.6074 28.7585 74.7399 28.6905L74.8795 28.6118C74.89 28.6062 74.9016 28.6028 74.9135 28.6018C74.9253 28.6008 74.9373 28.6022 74.9486 28.6058C74.96 28.6095 74.9704 28.6154 74.9795 28.6232C74.9885 28.631 74.9959 28.6405 75.0012 28.6511C75.0068 28.6612 75.0103 28.6723 75.0115 28.6837C75.0128 28.6952 75.0117 28.7068 75.0083 28.7178C75.005 28.7288 74.9995 28.739 74.9921 28.7479C74.9847 28.7567 74.9756 28.764 74.9654 28.7693L74.8222 28.848C74.6683 28.9304 74.5107 29.0127 74.3604 29.1022C74.3457 29.1083 74.3297 29.1107 74.3138 29.1094Z" fill="#458BF5"/>
<g opacity="0.3">
<path opacity="0.3" d="M87.0268 94.9964C76.5374 94.9964 66.8857 90.9116 59.8474 83.4974C52.8091 76.0832 49.2148 66.1846 49.7661 55.6737C50.1502 48.6982 52.3131 41.937 56.049 36.0338C59.707 30.2475 64.7017 25.4248 70.6125 21.9716C70.6343 21.9626 70.6587 21.9626 70.6805 21.9716C70.7042 21.9783 70.7246 21.9936 70.7378 22.0145L74.35 28.906C74.4789 28.8344 74.6078 28.7628 74.7402 28.6948L74.8798 28.616C74.902 28.6089 74.9257 28.6089 74.9479 28.616C74.9596 28.6195 74.9705 28.6255 74.9797 28.6335C74.989 28.6415 74.9964 28.6514 75.0016 28.6626L75.9896 30.5421C76 30.5626 76.002 30.5863 75.9954 30.6083C75.9887 30.6303 75.9738 30.6489 75.9538 30.6602C66.764 35.7975 60.7174 45.3883 60.1804 55.6952C59.7722 63.4208 62.4035 70.6846 67.5874 76.1441C70.1595 78.8476 73.2603 80.993 76.6968 82.4471C80.1334 83.9012 83.8324 84.6328 87.5638 84.5965C87.576 84.5962 87.5881 84.5986 87.5992 84.6036C87.6104 84.6085 87.6203 84.6159 87.6282 84.6251C87.637 84.6333 87.6439 84.6433 87.6482 84.6545C87.6525 84.6656 87.6543 84.6776 87.6533 84.6896L87.1163 94.9284C87.112 94.9486 87.1006 94.9666 87.0842 94.979C87.0678 94.9915 87.0474 94.9977 87.0268 94.9964ZM70.6196 22.1756C58.5801 29.2282 50.6576 42.0589 49.9416 55.6808C49.3938 66.1452 52.9595 75.9794 59.9656 83.3721C66.9716 90.7648 76.5231 94.7959 86.9337 94.8281L87.46 84.7719C83.7203 84.795 80.0156 84.0522 76.5738 82.5893C73.1321 81.1264 70.0263 78.9744 67.4478 76.2658C62.2317 70.767 59.5718 63.4566 59.9906 55.6844C60.5312 45.3454 66.5778 35.7188 75.7784 30.5421L74.8763 28.8201L74.8118 28.8559C74.6579 28.9382 74.5004 29.0206 74.35 29.1101C74.327 29.1192 74.3014 29.1192 74.2784 29.1101C74.2557 29.1031 74.2365 29.0878 74.2247 29.0671L70.6196 22.1756Z" fill="white"/>
<path opacity="0.3" d="M89.5762 98.7288C89.5506 98.7286 89.5262 98.7183 89.5082 98.7001C89.5003 98.6908 89.4943 98.6799 89.4906 98.6683C89.487 98.6566 89.4856 98.6443 89.4867 98.6321L90.0595 87.6809C90.0613 87.6584 90.0715 87.6375 90.0881 87.6222C90.1047 87.6069 90.1264 87.5985 90.149 87.5986C107.208 87.5986 121.814 73.7189 122.709 56.6566C122.711 56.6342 122.721 56.6132 122.738 56.5979C122.754 56.5827 122.776 56.5742 122.799 56.5743H125.405C125.416 56.5738 125.428 56.5757 125.439 56.5798C125.45 56.5839 125.46 56.5901 125.468 56.5982C125.476 56.6062 125.483 56.6158 125.487 56.6265C125.492 56.6371 125.494 56.6486 125.494 56.6602C125.516 57.548 125.494 58.4502 125.462 59.3273H133.514C133.526 59.327 133.538 59.3294 133.549 59.3344C133.56 59.3393 133.57 59.3467 133.578 59.3559C133.594 59.3761 133.603 59.4015 133.603 59.4276C132.334 69.7343 127.509 79.2754 119.96 86.4064C111.715 94.2359 100.642 98.7288 89.5762 98.7288ZM90.2349 87.7776L89.6693 98.5498C100.66 98.5247 111.65 94.0533 119.834 86.274C127.33 79.1978 132.131 69.7344 133.413 59.5063H125.369C125.356 59.5063 125.342 59.5031 125.331 59.4968C125.319 59.4906 125.309 59.4816 125.301 59.4705C125.292 59.4626 125.285 59.4526 125.281 59.4413C125.276 59.4301 125.275 59.418 125.276 59.4061C125.322 58.5254 125.333 57.6161 125.315 56.7461H122.881C121.943 73.8371 107.322 87.731 90.2349 87.7776Z" fill="white"/>
<path opacity="0.3" d="M125.404 56.7547C125.381 56.7538 125.358 56.7441 125.342 56.7275C125.325 56.7109 125.316 56.6886 125.315 56.6652C124.86 38.5755 110.279 24.4058 92.103 24.4058C86.1178 24.42 80.2296 25.9182 74.9655 28.7663C74.9553 28.7724 74.9439 28.7764 74.9321 28.778C74.9203 28.7795 74.9082 28.7786 74.8968 28.7752C74.8853 28.7718 74.8747 28.7661 74.8656 28.7584C74.8565 28.7507 74.8491 28.7412 74.8438 28.7304C74.8333 28.7094 74.8311 28.6851 74.8378 28.6625C74.8444 28.64 74.8594 28.6207 74.8796 28.6087C80.1702 25.7465 86.0879 24.241 92.103 24.2268C100.824 24.1262 109.231 27.4808 115.487 33.5579C121.744 39.6351 125.341 47.941 125.494 56.6616C125.494 56.6734 125.492 56.6851 125.488 56.6961C125.484 56.7072 125.478 56.7173 125.47 56.726C125.462 56.7346 125.452 56.7416 125.442 56.7465C125.431 56.7515 125.419 56.7542 125.408 56.7547H125.404Z" fill="white"/>
<path opacity="0.3" d="M137.759 59.507H133.514C133.49 59.507 133.467 59.4976 133.45 59.4808C133.433 59.464 133.424 59.4412 133.424 59.4175C133.424 59.3938 133.433 59.371 133.45 59.3542C133.467 59.3374 133.49 59.328 133.514 59.328H137.674C138.112 51.1439 136.348 42.9919 132.565 35.7215C127.019 25.1712 117.557 17.4635 105.919 14.0124C93.5393 10.3393 80.3613 11.8644 68.8015 18.3084L70.7382 21.9958C70.7485 22.0172 70.7501 22.0418 70.7428 22.0645C70.7355 22.0871 70.7197 22.1061 70.6989 22.1175C70.6883 22.123 70.6768 22.1264 70.6649 22.1274C70.653 22.1284 70.6411 22.127 70.6297 22.1234C70.6184 22.1197 70.6079 22.1138 70.5989 22.106C70.5898 22.0983 70.5825 22.0888 70.5772 22.0781L68.6046 18.3155C68.599 18.3054 68.5955 18.2944 68.5942 18.2829C68.593 18.2715 68.5941 18.2599 68.5974 18.2489C68.6008 18.2378 68.6063 18.2276 68.6137 18.2188C68.6211 18.2099 68.6301 18.2026 68.6404 18.1974C74.4075 14.9495 80.7733 12.9047 87.353 12.1866C93.6066 11.4895 99.9364 12.0519 105.969 13.8405C117.654 17.306 127.155 25.0459 132.722 35.6391C136.535 42.9626 138.306 51.1773 137.849 59.4211C137.848 59.4442 137.838 59.466 137.821 59.4821C137.805 59.4981 137.783 59.507 137.759 59.507Z" fill="white"/>
<path opacity="0.3" d="M74.3138 29.1094H74.2888C74.266 29.1024 74.2468 29.0871 74.2351 29.0664L70.5763 22.0926C70.5654 22.0712 70.5634 22.0464 70.5708 22.0236C70.5782 22.0007 70.5943 21.9818 70.6157 21.9708C70.6371 21.9599 70.6619 21.9579 70.6847 21.9653C70.7075 21.9727 70.7265 21.9889 70.7374 22.0102L74.3496 28.9017C74.4785 28.8301 74.6074 28.7585 74.7399 28.6905L74.8795 28.6118C74.89 28.6062 74.9016 28.6028 74.9135 28.6018C74.9253 28.6008 74.9373 28.6022 74.9486 28.6058C74.96 28.6095 74.9704 28.6154 74.9795 28.6232C74.9885 28.631 74.9959 28.6405 75.0012 28.6511C75.0068 28.6612 75.0103 28.6723 75.0115 28.6837C75.0128 28.6952 75.0117 28.7068 75.0083 28.7178C75.005 28.7288 74.9995 28.739 74.9921 28.7479C74.9847 28.7567 74.9756 28.764 74.9654 28.7693L74.8222 28.848C74.6683 28.9304 74.5107 29.0127 74.3604 29.1022C74.3457 29.1083 74.3297 29.1107 74.3138 29.1094Z" fill="white"/>
</g>
<path d="M89.7979 80.1242L89.4399 86.7007C75.5173 86.7007 64.8167 75.4094 65.547 61.4903C66.0374 52.1609 71.5363 44.0092 79.3013 39.6523L82.2942 45.3481C79.3784 46.9653 76.9178 49.2922 75.1406 52.1133C73.3633 54.9344 72.3268 58.1585 72.127 61.4868C71.6008 71.7793 79.509 80.1242 89.7979 80.1242Z" fill="#458BF5"/>
<path opacity="0.6" d="M89.7979 80.1242L89.4399 86.7007C75.5173 86.7007 64.8167 75.4094 65.547 61.4903C66.0374 52.1609 71.5363 44.0092 79.3013 39.6523L82.2942 45.3481C79.3784 46.9653 76.9178 49.2922 75.1406 52.1133C73.3633 54.9344 72.3268 58.1585 72.127 61.4868C71.6008 71.7793 79.509 80.1242 89.7979 80.1242Z" fill="black"/>
<path d="M119.479 62.123C119.028 69.3735 115.851 76.1847 110.585 81.1886C105.318 86.1925 98.3538 89.0183 91.0898 89.0983L91.4478 82.0601C102.456 82.0601 111.854 73.1315 112.43 62.123H119.479Z" fill="#458BF5"/>
<path opacity="0.3" d="M119.479 62.123C119.028 69.3735 115.851 76.1847 110.585 81.1886C105.318 86.1925 98.3538 89.0183 91.0898 89.0983L91.4478 82.0601C102.456 82.0601 111.854 73.1315 112.43 62.123H119.479Z" fill="black"/>
<path d="M122.053 63.8962H114.091C114.742 51.4271 105.17 41.3422 92.7147 41.3422C88.7016 41.3408 84.7568 42.3807 81.2659 44.3601L77.6465 37.4615C92.5858 29.0914 111.134 34.1392 118.752 48.6382C121.202 53.3357 122.342 58.6061 122.053 63.8962Z" fill="#FAFAFA"/>
<path d="M121.184 83.7578H113.852L113.061 98.8582H120.392L121.184 83.7578Z" fill="#FAFAFA"/>
<path d="M131.648 78.7676H124.316L123.264 98.8585H130.596L131.648 78.7676Z" fill="#458BF5"/>
<path opacity="0.6" d="M131.648 78.7676H124.316L123.264 98.8585H130.596L131.648 78.7676Z" fill="black"/>
<path d="M141.586 83.7578H134.254L133.463 98.8582H140.795L141.586 83.7578Z" fill="#458BF5"/>
<path opacity="0.3" d="M141.586 83.7578H134.254L133.463 98.8582H140.795L141.586 83.7578Z" fill="black"/>
<path d="M140.726 100.144H112.992L113.01 99.8008H140.744L140.726 100.144Z" fill="#263238"/>
<path opacity="0.8" d="M144.475 36.2545H112.506L113.451 18.1934H145.424L144.475 36.2545Z" fill="#FAFAFA"/>
<path d="M113.082 25.2319L112.506 36.2547H144.475L145.191 22.5684C139.886 22.5684 136.739 28.6078 130.177 28.6078C123.615 28.6078 121.814 25.2319 113.082 25.2319Z" fill="#458BF5"/>
<path opacity="0.1" d="M113.082 25.2319L112.506 36.2547H144.475L145.191 22.5684C139.886 22.5684 136.739 28.6078 130.177 28.6078C123.615 28.6078 121.814 25.2319 113.082 25.2319Z" fill="black"/>
<path d="M112.806 30.5025C119.991 30.5025 122.572 26.5645 126.607 26.5645C130.641 26.5645 132.406 30.7065 137.433 30.7065C142.674 30.7065 144.951 27.4487 144.951 27.4487L144.489 36.2627H112.52L112.806 30.5025Z" fill="#458BF5"/>
<path opacity="0.5" d="M112.806 30.5025C119.991 30.5025 122.572 26.5645 126.607 26.5645C130.641 26.5645 132.406 30.7065 137.433 30.7065C142.674 30.7065 144.951 27.4487 144.951 27.4487L144.489 36.2627H112.52L112.806 30.5025Z" fill="black"/>
<path d="M49.5801 44.3641C49.1075 44.9977 48.5812 45.703 48.1051 46.3939C47.629 47.0849 47.1492 47.7901 46.6982 48.499C45.7958 49.8785 45.0056 51.3283 44.3354 52.8344L44.2172 53.1064L44.1599 53.2425C44.1343 53.2987 44.1209 53.3597 44.1206 53.4215C44.1114 53.7134 44.1439 54.0051 44.2172 54.2878C44.4083 55.0416 44.6683 55.7762 44.9941 56.4824C45.7033 58.0291 46.4894 59.5394 47.3497 61.0075L45.7996 62.2319C44.4917 60.9264 43.3253 59.4864 42.3198 57.9359C41.7788 57.1014 41.3299 56.2107 40.9809 55.2795C40.774 54.7211 40.6451 54.1368 40.5978 53.5432C40.5713 53.1643 40.5978 52.7835 40.6766 52.4119C40.6981 52.3081 40.7303 52.1971 40.7625 52.0933L40.8198 51.9179L40.9344 51.5599C41.0811 51.0909 41.2602 50.6506 41.432 50.2031C41.6038 49.7556 41.79 49.326 42.0155 48.9071C42.4093 48.0515 42.864 47.2388 43.3258 46.4369C43.7876 45.635 44.2888 44.8617 44.8115 44.1063C45.0728 43.7268 45.3414 43.3545 45.6134 42.9822C45.8855 42.6099 46.1576 42.2662 46.4798 41.8652L49.5801 44.3641Z" fill="#FFBE9D"/>
<path d="M46.7875 60.4453L48.7099 60.7747L47.0023 63.6673C47.0023 63.6673 45.6634 63.0229 45.4199 61.7735L46.7875 60.4453Z" fill="#FFBE9D"/>
<path d="M50.786 61.8081L49.2645 64.1351L47.002 63.6661L48.7096 60.7734L50.786 61.8081Z" fill="#FFBE9D"/>
<path d="M59.4922 30.3303C59.4922 30.5415 59.6032 30.7134 59.7428 30.7134C59.8824 30.7134 59.9934 30.5415 59.9934 30.3303C59.9934 30.1191 59.8824 29.9473 59.7428 29.9473C59.6032 29.9473 59.4922 30.1155 59.4922 30.3303Z" fill="#263238"/>
<path d="M59.5859 30.7129C59.8393 31.3613 60.1802 31.9719 60.5991 32.528C60.4543 32.6316 60.2885 32.7022 60.1135 32.735C59.9385 32.7678 59.7584 32.7619 59.5859 32.7177V30.7129Z" fill="#FF9B90"/>
<path d="M58.7406 29.1557C58.7206 29.1563 58.7009 29.1516 58.6833 29.1422C58.6657 29.1328 58.6509 29.1189 58.6403 29.102C58.6302 29.0891 58.6229 29.0743 58.6189 29.0584C58.6148 29.0425 58.6141 29.026 58.6168 29.0098C58.6195 28.9937 58.6256 28.9782 58.6345 28.9645C58.6435 28.9508 58.6552 28.9391 58.669 28.9302C58.8262 28.8097 59.0103 28.7292 59.2054 28.6956C59.4006 28.6619 59.601 28.6761 59.7895 28.7369C59.8196 28.7496 59.8436 28.7735 59.8563 28.8036C59.869 28.8337 59.8694 28.8676 59.8575 28.898C59.8524 28.9134 59.8441 28.9275 59.8333 28.9396C59.8224 28.9517 59.8091 28.9614 59.7944 28.9681C59.7796 28.9748 59.7636 28.9784 59.7473 28.9787C59.7311 28.9789 59.715 28.9758 59.7 28.9696C59.5499 28.9237 59.391 28.9144 59.2365 28.9424C59.0821 28.9704 58.9366 29.035 58.8122 29.1307C58.792 29.1472 58.7666 29.1561 58.7406 29.1557Z" fill="#263238"/>
<path d="M52.6454 32.7754C53.0249 34.7014 53.4008 38.2242 52.0547 39.5094C52.0547 39.5094 52.581 41.4605 56.1574 41.4605C60.0954 41.4605 58.0333 39.5094 58.0333 39.5094C55.8853 38.9974 55.9426 37.4043 56.3185 35.9115L52.6454 32.7754Z" fill="#FFBE9D"/>
<path d="M51.5524 40.1781C51.2695 39.5624 50.9617 38.8535 51.6025 38.6316C52.3185 38.3881 56.1741 38.1411 57.5059 38.5958C57.6816 38.6445 57.8458 38.7275 57.9892 38.8402C58.1326 38.9528 58.2522 39.0927 58.3411 39.2519C58.43 39.411 58.4864 39.5862 58.5071 39.7674C58.5278 39.9485 58.5124 40.1319 58.4618 40.307L51.5524 40.1781Z" fill="#458BF5"/>
<path d="M43.2586 129.997C43.0275 129.996 42.7971 129.97 42.5712 129.922C42.5596 129.92 42.5489 129.914 42.5406 129.906C42.5323 129.897 42.5267 129.887 42.5247 129.875C42.5223 129.863 42.5234 129.851 42.5278 129.839C42.5323 129.828 42.5399 129.818 42.5497 129.811C42.5819 129.789 43.3087 129.295 43.6917 129.381C43.7328 129.39 43.7715 129.407 43.805 129.433C43.8384 129.458 43.8658 129.491 43.8851 129.528C43.9157 129.571 43.9322 129.623 43.9322 129.676C43.9322 129.73 43.9157 129.782 43.8851 129.825C43.7972 129.894 43.6966 129.944 43.5891 129.974C43.4815 130.003 43.3692 130.011 43.2586 129.997ZM42.7466 129.832C43.1404 129.897 43.6774 129.897 43.7884 129.746C43.7884 129.746 43.8349 129.689 43.7884 129.589C43.7768 129.567 43.7605 129.548 43.7407 129.533C43.7209 129.518 43.6981 129.508 43.6738 129.503C43.3382 129.52 43.0153 129.637 42.7466 129.839V129.832Z" fill="#458BF5"/>
<path d="M42.6024 129.932C42.5919 129.935 42.5806 129.935 42.5701 129.932C42.5602 129.926 42.5522 129.918 42.5471 129.908C42.542 129.897 42.54 129.886 42.5415 129.875C42.5415 129.842 42.6059 129.083 42.8995 128.833C42.9362 128.803 42.9786 128.78 43.024 128.767C43.0695 128.753 43.1172 128.749 43.1644 128.754C43.2117 128.754 43.2576 128.77 43.2942 128.8C43.3308 128.83 43.3558 128.872 43.3649 128.919C43.4186 129.212 42.8923 129.785 42.6203 129.935L42.6024 129.932ZM43.1322 128.858C43.0797 128.859 43.0292 128.878 42.989 128.912C42.8059 129.149 42.6975 129.436 42.6775 129.735C42.9496 129.531 43.2861 129.098 43.2539 128.922C43.2539 128.922 43.2539 128.869 43.1608 128.858H43.1322Z" fill="#458BF5"/>
<path d="M59.0498 129.996C58.7796 129.997 58.5099 129.971 58.2443 129.921C58.2315 129.92 58.2197 129.914 58.2106 129.905C58.2015 129.896 58.1957 129.884 58.1942 129.871C58.1922 129.859 58.1938 129.846 58.1989 129.835C58.204 129.823 58.2123 129.813 58.2228 129.807C58.2622 129.785 59.1823 129.263 59.619 129.381C59.6603 129.39 59.6992 129.408 59.7331 129.433C59.7671 129.458 59.7953 129.49 59.8159 129.527C59.8445 129.567 59.8598 129.615 59.8598 129.663C59.8598 129.712 59.8445 129.76 59.8159 129.8C59.7121 129.957 59.3863 129.996 59.0498 129.996ZM58.4448 129.832C58.9388 129.9 59.6011 129.889 59.7229 129.724C59.7229 129.703 59.7515 129.667 59.7229 129.588C59.7097 129.566 59.6921 129.547 59.6712 129.532C59.6502 129.518 59.6263 129.507 59.6011 129.502C59.3004 129.431 58.7133 129.696 58.4448 129.839V129.832Z" fill="#458BF5"/>
<path d="M58.2547 129.933C58.243 129.936 58.2306 129.936 58.2189 129.933C58.2099 129.926 58.2029 129.918 58.1985 129.908C58.194 129.898 58.1925 129.886 58.1939 129.875C58.2171 129.503 58.3603 129.147 58.602 128.862C58.65 128.819 58.707 128.787 58.7689 128.768C58.8308 128.75 58.8961 128.745 58.96 128.755C59.1318 128.773 59.1819 128.859 59.1927 128.93C59.2392 129.228 58.6127 129.797 58.2941 129.936L58.2547 129.933ZM58.8955 128.859C58.816 128.858 58.7392 128.887 58.6807 128.941C58.479 129.166 58.3537 129.449 58.3227 129.75C58.6449 129.557 59.0745 129.109 59.0387 128.93C59.0387 128.93 59.0387 128.873 58.917 128.859H58.8955Z" fill="#458BF5"/>
<path d="M55.3613 129.867H57.9926L58.254 123.777H55.6227L55.3613 129.867Z" fill="#FFBE9D"/>
<path d="M39.5703 129.867H42.2016L43.5226 123.777H40.8949L39.5703 129.867Z" fill="#FFBE9D"/>
<path d="M42.3879 129.564H39.4344C39.3817 129.565 39.3307 129.583 39.2897 129.616C39.2487 129.649 39.2202 129.696 39.2089 129.747L38.6898 132.085C38.6779 132.142 38.679 132.201 38.6931 132.257C38.7071 132.313 38.7337 132.366 38.7709 132.411C38.808 132.455 38.8548 132.491 38.9077 132.515C38.9606 132.539 39.0183 132.551 39.0764 132.55C40.1074 132.532 40.6086 132.471 41.9082 132.471C42.7065 132.471 44.3533 132.557 45.4595 132.557C46.5658 132.557 46.7054 131.483 46.2543 131.365C44.228 130.921 43.4655 130.309 42.8139 129.729C42.6979 129.622 42.5456 129.563 42.3879 129.564Z" fill="#263238"/>
<path d="M57.975 129.564H55.111C55.0583 129.565 55.0073 129.583 54.9663 129.616C54.9253 129.649 54.8968 129.696 54.8855 129.747L54.3664 132.085C54.354 132.141 54.3545 132.2 54.3678 132.256C54.3812 132.312 54.4071 132.364 54.4436 132.409C54.4801 132.454 54.5262 132.49 54.5786 132.514C54.6309 132.539 54.6881 132.551 54.7459 132.55C55.7805 132.532 57.2769 132.471 58.58 132.471C60.1015 132.471 61.419 132.557 63.2018 132.557C64.2758 132.557 64.5837 131.483 64.1326 131.365C62.0741 130.914 60.3951 130.868 58.6158 129.772C58.4264 129.643 58.204 129.571 57.975 129.564Z" fill="#263238"/>
<path d="M61.4511 41.0078C62.9905 41.7668 64.5908 42.5436 66.1696 43.2704C67.7483 43.9971 69.345 44.7024 70.931 45.3074L71.5217 45.5186L71.672 45.5723H71.7078C71.7078 45.5723 71.7078 45.5723 71.7257 45.5902C71.9399 45.6124 72.1563 45.5867 72.3594 45.515C73.0714 45.2775 73.7518 44.9541 74.3857 44.552C75.8326 43.6432 77.223 42.6473 78.5492 41.5699L79.9991 42.9088C78.8945 44.4371 77.6095 45.8267 76.1721 47.0473C75.3833 47.7284 74.5008 48.2927 73.5515 48.7227C72.9294 49.0044 72.2547 49.1508 71.5718 49.1523C71.3554 49.1482 71.1398 49.1255 70.9274 49.0843L70.7555 49.0449L70.6374 49.0127L70.4656 48.9662L69.7782 48.7764C68.0062 48.2459 66.2659 47.6148 64.5657 46.8862C62.876 46.1702 61.2506 45.4041 59.6074 44.5341L61.4511 41.0078Z" fill="#FFBE9D"/>
<path d="M47.3456 40.1035C44.879 40.6691 42.0508 47.3888 42.0508 47.3888L47.0019 50.7826C48.2344 49.0166 49.3284 47.1578 50.274 45.2229C51.7347 42.1477 49.8659 39.5271 47.3456 40.1035Z" fill="#263238"/>
<path d="M49.1108 44.3887L46.7695 50.6215L47.0022 50.7826C47.0022 50.7826 48.0154 49.3506 49.1108 47.4424V44.3887Z" fill="#458BF5"/>
<path opacity="0.8" d="M49.1108 44.3887L46.7695 50.6215L47.0022 50.7826C47.0022 50.7826 48.0154 49.3506 49.1108 47.4424V44.3887Z" fill="black"/>
<path d="M62.0774 40.2382C62.0774 40.2382 64.877 43.3993 62.2349 62.9712H48.1655C48.0689 60.8232 49.4257 50.2765 47.3457 40.1021C48.9005 39.8027 50.473 39.6042 52.0534 39.5079C54.0446 39.3932 56.0408 39.3932 58.032 39.5079C59.3975 39.6454 60.75 39.8896 62.0774 40.2382Z" fill="#263238"/>
<path d="M63.3089 46.2609L59.9258 45.5449C59.9759 45.6058 62.0738 48.2371 63.359 49.8731C63.3841 48.4769 63.3662 47.2991 63.3089 46.2609Z" fill="#458BF5"/>
<path opacity="0.8" d="M63.3089 46.2609L59.9258 45.5449C59.9759 45.6058 62.0738 48.2371 63.359 49.8731C63.3841 48.4769 63.3662 47.2991 63.3089 46.2609Z" fill="black"/>
<path d="M57.6665 43.7404C58.4398 46.1319 66.2585 48.7524 66.2585 48.7524L68.5855 43.2357C66.6235 42.0459 64.54 41.069 62.3706 40.3215C59.1987 39.312 56.8144 41.1163 57.6665 43.7404Z" fill="#263238"/>
<path d="M78.3281 41.9288L79.0978 39.2617L82.1587 40.6472C82.1587 40.6472 81.4821 42.7164 79.6312 43.2105L78.3281 41.9288Z" fill="#FFBE9D"/>
<path d="M80.9306 37.0391L83.0106 39.0904L82.1586 40.6334L79.0977 39.2479L80.9306 37.0391Z" fill="#FFBE9D"/>
<path d="M58.2537 123.781L58.1176 126.917H55.4863L55.6224 123.781H58.2537Z" fill="#FF9B90"/>
<path d="M40.8911 123.781H43.5224L42.8422 126.917H40.2109L40.8911 123.781Z" fill="#FF9B90"/>
<path d="M52.4182 29.8783C52.5758 32.4846 52.5364 34.0168 53.8502 35.3557C55.83 37.3677 59.0448 36.172 59.6677 33.5657C60.2262 31.2244 59.8718 27.358 57.3193 26.3198C56.7578 26.0891 56.1467 26.0058 55.544 26.0779C54.9414 26.15 54.3671 26.3751 53.876 26.7317C53.3848 27.0883 52.993 27.5647 52.7379 28.1154C52.4827 28.6662 52.3727 29.273 52.4182 29.8783Z" fill="#FFBE9D"/>
<path d="M57.4811 28.1459C59.4465 28.7258 61.0933 25.937 60.789 27.9096C60.4847 29.8822 62.6291 29.6674 62.6291 29.6674C62.6291 29.6674 60.9465 29.0301 62.9477 27.369C65.3929 25.3391 61.9203 24.0933 60.3988 25.1959C58.351 26.6852 57.95 24.0575 55.3116 23.3522C53.5216 22.8797 51.3199 24.0038 51.2805 25.2962C51.2304 26.875 49.8736 25.6041 49.7733 27.9525C49.7053 29.4848 51.5311 34.5362 53.5001 34.708C56.4643 34.9693 57.4596 31.2103 57.4811 28.1459Z" fill="#263238"/>
<path d="M55.9348 30.638C56.0751 31.2742 56.4227 31.8459 56.9229 32.2633C57.5852 32.8003 58.115 32.3206 58.1007 31.5473C58.0828 30.8492 57.7212 29.7287 56.9766 29.4924C56.2319 29.2561 55.7665 29.8755 55.9348 30.638Z" fill="#FFBE9D"/>
<path d="M51.853 26.763C51.5318 26.2758 51.3372 25.7163 51.2866 25.135C51.2359 24.5537 51.3309 23.969 51.563 23.4336C51.563 23.4336 48.7634 25.5422 51.853 26.763Z" fill="#263238"/>
<path d="M49.6113 26.5065C49.8888 26.3891 50.1915 26.3436 50.4912 26.3742C50.791 26.4049 51.0782 26.5107 51.3261 26.682C51.3261 26.682 50.5314 25.0602 49.6113 26.5065Z" fill="#263238"/>
<path d="M57.2447 62.9713C57.2447 62.9713 54.259 83.0695 52.6265 90.6161C50.8365 98.8501 44.0739 126.33 44.0739 126.33H39.248C39.248 126.33 43.7087 99.5088 44.7505 91.3321C45.8603 82.4716 48.1837 62.957 48.1837 62.957L57.2447 62.9713Z" fill="#458BF5"/>
<path d="M44.8377 124.537C44.8591 124.537 44.34 126.388 44.34 126.388H38.9199L39.0202 124.738L44.8377 124.537Z" fill="#458BF5"/>
<path opacity="0.2" d="M44.8377 124.537C44.8591 124.537 44.34 126.388 44.34 126.388H38.9199L39.0202 124.738L44.8377 124.537Z" fill="black"/>
<path d="M55.3583 70.1325C51.9072 70.8091 52.2723 83.6792 52.6876 90.2986C53.7007 85.6052 55.1327 76.6159 56.1351 70.2112C55.8927 70.0974 55.6187 70.0696 55.3583 70.1325Z" fill="#458BF5"/>
<path opacity="0.2" d="M55.3583 70.1325C51.9072 70.8091 52.2723 83.6792 52.6876 90.2986C53.7007 85.6052 55.1327 76.6159 56.1351 70.2112C55.8927 70.0974 55.6187 70.0696 55.3583 70.1325Z" fill="black"/>
<path d="M62.2361 62.9727C62.2361 62.9727 62.5941 82.634 62.3113 90.6568C62.0141 98.9982 59.0893 126.314 59.0893 126.314H54.6465C54.6465 126.314 54.4818 99.4851 54.2885 91.294C54.0737 82.3619 52.9961 62.9727 52.9961 62.9727H62.2361Z" fill="#458BF5"/>
<path d="M58.1719 123.112C58.1599 123.11 58.1489 123.104 58.141 123.095C58.1331 123.086 58.1288 123.074 58.1289 123.062C58.9165 115.501 60.7674 97.2108 60.9929 90.6522C61.2328 83.9326 61.0144 68.9252 60.9428 64.4824C60.9428 64.4768 60.9439 64.4712 60.9461 64.466C60.9482 64.4608 60.9514 64.456 60.9554 64.452C60.9594 64.448 60.9641 64.4449 60.9693 64.4427C60.9745 64.4406 60.9801 64.4395 60.9858 64.4395C60.9975 64.4394 61.0088 64.4438 61.0175 64.4518C61.0261 64.4598 61.0314 64.4707 61.0323 64.4824C61.1039 68.9216 61.3223 83.9325 61.0824 90.6558C60.8497 97.2179 58.9988 115.512 58.2184 123.073C58.218 123.078 58.2164 123.084 58.2138 123.089C58.2112 123.094 58.2077 123.098 58.2033 123.102C58.199 123.106 58.194 123.108 58.1886 123.11C58.1832 123.112 58.1775 123.113 58.1719 123.112Z" fill="#458BF5"/>
<path opacity="0.2" d="M58.1719 123.112C58.1599 123.11 58.1489 123.104 58.141 123.095C58.1331 123.086 58.1288 123.074 58.1289 123.062C58.9165 115.501 60.7674 97.2108 60.9929 90.6522C61.2328 83.9326 61.0144 68.9252 60.9428 64.4824C60.9428 64.4768 60.9439 64.4712 60.9461 64.466C60.9482 64.4608 60.9514 64.456 60.9554 64.452C60.9594 64.448 60.9641 64.4449 60.9693 64.4427C60.9745 64.4406 60.9801 64.4395 60.9858 64.4395C60.9975 64.4394 61.0088 64.4438 61.0175 64.4518C61.0261 64.4598 61.0314 64.4707 61.0323 64.4824C61.1039 68.9216 61.3223 83.9325 61.0824 90.6558C60.8497 97.2179 58.9988 115.512 58.2184 123.073C58.218 123.078 58.2164 123.084 58.2138 123.089C58.2112 123.094 58.2077 123.098 58.2033 123.102C58.199 123.106 58.194 123.108 58.1886 123.11C58.1832 123.112 58.1775 123.113 58.1719 123.112Z" fill="black"/>
<path d="M59.9542 124.537C59.9757 124.537 59.7036 126.388 59.7036 126.388H54.2835L54.1367 124.738L59.9542 124.537Z" fill="#458BF5"/>
<path opacity="0.2" d="M59.9542 124.537C59.9757 124.537 59.7036 126.388 59.7036 126.388H54.2835L54.1367 124.738L59.9542 124.537Z" fill="black"/>
</svg>
