<svg width="232" height="170" viewBox="0 0 232 170" fill="none" xmlns="http://www.w3.org/2000/svg">
<path d="M232 149.395H0V149.51H232V149.395Z" fill="#E0E0E0"/>
<path d="M199.39 155.354H186.217V155.469H199.39V155.354Z" fill="#E0E0E0"/>
<path d="M182.817 155.408H171.045V155.524H182.817V155.408Z" fill="#E0E0E0"/>
<path d="M128.351 152.766H112.506V152.881H128.351V152.766Z" fill="#E0E0E0"/>
<path d="M158.232 156.303H136.211V156.418H158.232V156.303Z" fill="#E0E0E0"/>
<path d="M66.2778 152.633H44.957V152.748H66.2778V152.633Z" fill="#E0E0E0"/>
<path d="M76.0946 152.633H68.8516V152.748H76.0946V152.633Z" fill="#E0E0E0"/>
<path d="M47.6379 154.688H28.9805V154.803H47.6379V154.688Z" fill="#E0E0E0"/>
<path d="M109.969 129.043H20.3753C19.6734 129.041 19.0007 128.766 18.5048 128.278C18.009 127.789 17.7305 127.127 17.7305 126.437V2.58268C17.7366 1.89641 18.0178 1.24022 18.513 0.756651C19.0082 0.273079 19.6774 0.00117561 20.3753 0L109.969 0C110.672 0 111.346 0.274506 111.842 0.763131C112.339 1.25176 112.618 1.91447 112.618 2.60549V126.437C112.618 127.128 112.339 127.791 111.842 128.279C111.346 128.768 110.672 129.043 109.969 129.043ZM20.3753 0.0912607C19.7042 0.0924694 19.061 0.355491 18.5869 0.822591C18.1127 1.28969 17.8465 1.9227 17.8465 2.58268V126.437C17.8465 127.097 18.1127 127.73 18.5869 128.197C19.061 128.664 19.7042 128.927 20.3753 128.928H109.969C110.64 128.926 111.283 128.663 111.758 128.196C112.232 127.729 112.5 127.097 112.502 126.437V2.58268C112.5 1.92265 112.232 1.29035 111.758 0.823636C111.283 0.356925 110.64 0.0936651 109.969 0.0912607H20.3753Z" fill="#E0E0E0"/>
<path d="M210.336 129.043H120.737C120.035 129.04 119.363 128.765 118.867 128.277C118.37 127.789 118.09 127.127 118.088 126.437V2.58268C118.095 1.89599 118.377 1.23981 118.873 0.756365C119.369 0.272919 120.039 0.00116279 120.737 0L210.336 0C211.033 0.00237483 211.701 0.274808 212.195 0.758252C212.689 1.2417 212.97 1.8972 212.976 2.58268V126.437C212.976 126.779 212.909 127.117 212.776 127.433C212.644 127.749 212.45 128.036 212.205 128.278C211.959 128.519 211.668 128.712 211.347 128.843C211.027 128.974 210.683 129.042 210.336 129.043ZM120.737 0.0912607C120.066 0.0936651 119.423 0.356925 118.949 0.823636C118.474 1.29035 118.206 1.92265 118.204 2.58268V126.437C118.206 127.097 118.474 127.729 118.949 128.196C119.423 128.663 120.066 128.926 120.737 128.928H210.336C211.007 128.926 211.65 128.663 212.124 128.196C212.599 127.729 212.867 127.097 212.869 126.437V2.58268C212.867 1.92265 212.599 1.29035 212.124 0.823636C211.65 0.356925 211.007 0.0936651 210.336 0.0912607H120.737Z" fill="#E0E0E0"/>
<path d="M152.359 11.0742H33.1113V70.1929H152.359V11.0742Z" fill="#E0E0E0"/>
<path d="M153.914 11.0742H34.666V70.1929H153.914V11.0742Z" fill="#EFEFEF"/>
<path d="M151.125 13.8438H37.459V67.4138H151.125V13.8438Z" fill="#F4F4F4"/>
<path d="M45.875 67.4177L76.7032 13.8477H91.1475L60.324 67.4177H45.875Z" fill="white"/>
<path d="M65.1738 67.4177L96.002 13.8477H110.446L79.6228 67.4177H65.1738Z" fill="white"/>
<path d="M105.328 67.4177L136.152 13.8477H142.1L111.277 67.4177H105.328Z" fill="white"/>
<path d="M114.122 13.8438H109.918V67.4138H114.122V13.8438Z" fill="#E0E0E0"/>
<path d="M75.5613 13.8438H71.3574V67.4138H75.5613V13.8438Z" fill="#E0E0E0"/>
<path d="M115.596 11.7852H111.393V69.179H115.596V11.7852Z" fill="#F4F4F4"/>
<path d="M77.0378 11.7852H72.834V69.179H77.0378V11.7852Z" fill="#F4F4F4"/>
<path d="M151.125 13.8438H149.951V67.4138H151.125V13.8438Z" fill="#E0E0E0"/>
<path d="M181.815 87.6465C181.815 87.6465 173.305 73.2228 185.109 61.7422C185.109 61.7422 188.19 63.7134 188.144 66.3691C188.097 69.0248 184.845 69.6956 185.541 71.9132C186.237 74.1308 189.313 76.3028 187.299 78.1326C185.285 79.9624 187.619 81.5959 187.485 83.8364C187.35 86.0768 181.815 87.6465 181.815 87.6465Z" fill="#E0E0E0"/>
<path d="M183.149 90.0049C183.149 90.0049 186.596 73.6784 171.711 66.4414C171.711 66.4414 169.424 69.2705 170.319 71.7756C171.215 74.2807 174.518 73.9111 174.565 76.2291C174.611 78.5471 172.393 81.5633 174.894 82.6767C177.395 83.7901 175.697 86.0624 176.546 88.1523C177.395 90.2422 183.149 90.0049 183.149 90.0049Z" fill="#EBEBEB"/>
<path d="M175.572 85.8574C175.572 85.8574 175.721 92.6655 181.446 92.6655C187.172 92.6655 187.325 85.8574 187.325 85.8574H175.572Z" fill="#F4F4F4"/>
<path d="M135.84 87.3633C135.84 87.3633 136.035 92.6655 143.565 92.6655C151.096 92.6655 151.296 87.3633 151.296 87.3633H135.84Z" fill="#EBEBEB"/>
<path d="M153.32 88.6777C153.32 88.6777 153.469 92.6658 159.13 92.6658C164.79 92.6658 164.934 88.6777 164.934 88.6777H153.32Z" fill="#EBEBEB"/>
<path d="M141.145 95.9746H128.469V145.972H141.145V95.9746Z" fill="#EBEBEB"/>
<path d="M193.409 145.967H130.898V149.394H193.409V145.967Z" fill="#EBEBEB"/>
<path d="M195.844 95.9688H141.143V145.966H195.844V95.9688Z" fill="#F4F4F4"/>
<path d="M190.861 100.807H146.127V118.539H190.861V100.807Z" fill="#EBEBEB"/>
<path d="M190.861 121.77H146.127V139.501H190.861V121.77Z" fill="#EBEBEB"/>
<path d="M173.537 102.75H163.473C163.145 102.75 162.831 102.623 162.599 102.395C162.367 102.168 162.236 101.859 162.234 101.537C162.237 101.214 162.368 100.906 162.6 100.678C162.832 100.45 163.145 100.321 163.473 100.318H173.537C173.865 100.321 174.179 100.45 174.411 100.678C174.643 100.906 174.774 101.214 174.776 101.537C174.775 101.859 174.644 102.168 174.412 102.395C174.18 102.623 173.865 102.75 173.537 102.75Z" fill="#F4F4F4"/>
<path d="M173.537 123.713H163.473C163.145 123.713 162.831 123.586 162.599 123.358C162.367 123.131 162.236 122.822 162.234 122.5C162.237 122.177 162.368 121.869 162.6 121.641C162.832 121.413 163.145 121.284 163.473 121.281H173.537C173.865 121.284 174.179 121.413 174.411 121.641C174.643 121.869 174.774 122.177 174.776 122.5C174.775 122.822 174.644 123.131 174.412 123.358C174.18 123.586 173.865 123.713 173.537 123.713Z" fill="#F4F4F4"/>
<path d="M197.529 92.666H141.139V95.9742H197.529V92.666Z" fill="#EBEBEB"/>
<path d="M141.14 92.6621H126.691V95.9703H141.14V92.6621Z" fill="#E0E0E0"/>
<path d="M194.704 19.3984H167.244V50.5092H194.704V19.3984Z" fill="#EBEBEB"/>
<path d="M197.821 19.3984H168.064V50.5092H197.821V19.3984Z" fill="#F4F4F4"/>
<path d="M195.33 21.8477H170.557V48.0532H195.33V21.8477Z" fill="white"/>
<path d="M187.14 28.1992H178.746C177.539 28.1992 176.561 29.1614 176.561 30.3484V39.552C176.561 40.739 177.539 41.7012 178.746 41.7012H187.14C188.347 41.7012 189.325 40.739 189.325 39.552V30.3484C189.325 29.1614 188.347 28.1992 187.14 28.1992Z" fill="#F4F4F4"/>
<path d="M124.858 120.428H121.67V149.394H124.858V120.428Z" fill="#E0E0E0"/>
<path opacity="0.5" d="M124.858 120.428H123.262V149.394H124.858V120.428Z" fill="#F4F4F4"/>
<path d="M110.896 128.54H108.706C108.946 128.341 109.139 128.092 109.271 127.811C109.404 127.531 109.472 127.225 109.472 126.916H83.5203C83.5207 127.226 83.5898 127.531 83.7229 127.812C83.8559 128.093 84.0496 128.341 84.2905 128.54H82.1283C81.353 128.54 80.6095 128.843 80.0613 129.382C79.5131 129.922 79.2051 130.653 79.2051 131.415V139.797C79.2051 140.56 79.5131 141.291 80.0613 141.83C80.6095 142.369 81.353 142.672 82.1283 142.672H110.896C111.672 142.672 112.415 142.369 112.963 141.83C113.512 141.291 113.819 140.56 113.819 139.797V131.415C113.819 130.653 113.512 129.922 112.963 129.382C112.415 128.843 111.672 128.54 110.896 128.54Z" fill="#F4F4F4"/>
<path d="M86.893 134.732H69.442C68.3554 134.732 67.4746 135.599 67.4746 136.667V140.737C67.4746 141.806 68.3554 142.672 69.442 142.672H86.893C87.9796 142.672 88.8604 141.806 88.8604 140.737V136.667C88.8604 135.599 87.9796 134.732 86.893 134.732Z" fill="#EBEBEB"/>
<path d="M88.2015 132.98H68.1335C67.7696 132.98 67.4746 133.271 67.4746 133.628V134.368C67.4746 134.725 67.7696 135.016 68.1335 135.016H88.2015C88.5654 135.016 88.8604 134.725 88.8604 134.368V133.628C88.8604 133.271 88.5654 132.98 88.2015 132.98Z" fill="#E0E0E0"/>
<path d="M90.832 107.492C90.832 107.492 91.1336 117.075 102.548 117.075C113.962 117.075 114.264 107.492 114.264 107.492H90.832Z" fill="#EBEBEB"/>
<path d="M50.0148 117.078H35.7793V120.427H50.0148V117.078Z" fill="#E0E0E0"/>
<path d="M135.906 117.078H50.0195V120.427H135.906V117.078Z" fill="#F4F4F4"/>
<path d="M50.0148 142.672H35.7793V146.021H50.0148V142.672Z" fill="#E0E0E0"/>
<path d="M38.9709 120.428H35.7832V149.394H38.9709V120.428Z" fill="#E0E0E0"/>
<path opacity="0.5" d="M38.9712 120.428H37.375V149.394H38.9712V120.428Z" fill="#F4F4F4"/>
<path d="M51.6115 120.428H48.4238V149.394H51.6115V120.428Z" fill="#F4F4F4"/>
<path d="M50.02 120.428H48.4238V149.394H50.02V120.428Z" fill="#E0E0E0"/>
<path d="M135.901 120.428H132.713V149.394H135.901V120.428Z" fill="#F4F4F4"/>
<path d="M134.309 120.428H132.713V149.394H134.309V120.428Z" fill="#E0E0E0"/>
<path d="M135.906 142.672H50.0195V146.021H135.906V142.672Z" fill="#F4F4F4"/>
<path d="M72.922 115.102H55.6055V117.077H72.922V115.102Z" fill="#E0E0E0"/>
<path d="M79.1256 115.098H72.9219V117.073H79.1256V115.098Z" fill="#EBEBEB"/>
<path d="M116 170.001C165.686 170.001 205.965 167.688 205.965 164.835C205.965 161.983 165.686 159.67 116 159.67C66.3138 159.67 26.0352 161.983 26.0352 164.835C26.0352 167.688 66.3138 170.001 116 170.001Z" fill="#F5F5F5"/>
<path d="M101.09 43.6678C101.122 49.0749 97.183 49.0202 97.2619 47.3182C97.3408 45.6162 96.3664 41.6189 97.2619 42.0068C98.1574 42.3947 101.076 41.2767 101.09 43.6678Z" fill="#1A2E35"/>
<path d="M98.6133 53.4613C99.1562 53.4202 100.247 53.9176 100.344 55.3276C100.369 55.7373 100.491 56.1356 100.7 56.4911C100.908 56.8466 101.198 57.1497 101.546 57.3764C101.546 57.3764 99.7408 57.5909 98.5576 56.6691C97.5925 55.9254 97.1656 54.2963 97.6714 53.9313C97.9492 53.7127 98.2698 53.5527 98.6133 53.4613Z" fill="#1A2E35"/>
<path d="M97.903 49.6191C98.831 50.4268 99.6801 52.5623 97.5875 53.5753C95.4948 54.5883 92.2051 52.2064 92.2051 52.2064L95.8196 50.5591L97.903 49.6191Z" fill="#1A2E35"/>
<path d="M98.934 53.656C98.8832 53.3603 98.7992 53.0711 98.6834 52.7936C98.6746 52.7705 98.6613 52.7493 98.6442 52.7313C98.6271 52.7132 98.6065 52.6987 98.5836 52.6885C98.5608 52.6784 98.5361 52.6727 98.511 52.672C98.4859 52.6712 98.4609 52.6753 98.4375 52.6841H98.4004L97.1151 53.5283C97.0943 53.542 97.0766 53.5597 97.0628 53.5802C97.049 53.6007 97.0394 53.6237 97.0347 53.6479C97.03 53.6721 97.0301 53.6969 97.0351 53.721C97.0402 53.7451 97.05 53.768 97.064 53.7884C97.0786 53.8073 97.0958 53.8242 97.1151 53.8386C97.3006 53.9711 97.4996 54.0843 97.709 54.1762C98.0106 54.2949 98.637 53.9572 98.8504 53.8112C98.8771 53.795 98.899 53.772 98.9136 53.7448C98.9283 53.7175 98.9353 53.6869 98.934 53.656Z" fill="#458BF5"/>
<path opacity="0.3" d="M98.934 53.656C98.8832 53.3603 98.7992 53.0711 98.6834 52.7936C98.6746 52.7705 98.6613 52.7493 98.6442 52.7313C98.6271 52.7132 98.6065 52.6987 98.5836 52.6885C98.5608 52.6784 98.5361 52.6727 98.511 52.672C98.4859 52.6712 98.4609 52.6753 98.4375 52.6841H98.4004L97.1151 53.5283C97.0943 53.542 97.0766 53.5597 97.0628 53.5802C97.049 53.6007 97.0394 53.6237 97.0347 53.6479C97.03 53.6721 97.0301 53.6969 97.0351 53.721C97.0402 53.7451 97.05 53.768 97.064 53.7884C97.0786 53.8073 97.0958 53.8242 97.1151 53.8386C97.3006 53.9711 97.4996 54.0843 97.709 54.1762C98.0106 54.2949 98.637 53.9572 98.8504 53.8112C98.8771 53.795 98.899 53.772 98.9136 53.7448C98.9283 53.7175 98.9353 53.6869 98.934 53.656Z" fill="black"/>
<path d="M85.1014 51.4155C84.5864 51.2467 83.4078 51.4749 82.9717 52.8255C82.8474 53.2173 82.6329 53.5755 82.3448 53.8723C82.0566 54.1691 81.7027 54.3965 81.3105 54.5367C81.3105 54.5367 83.0134 55.1664 84.3869 54.5367C85.5005 54.0393 86.2893 52.5517 85.9041 52.0772C85.686 51.8044 85.4126 51.5791 85.1014 51.4155Z" fill="#1A2E35"/>
<path d="M90.2154 42.1309C88.3362 42.6328 85.8074 44.823 86.9303 47.5107C85.8213 48.2544 84.4015 50.3945 86.0626 51.7634C87.849 53.2373 92.2431 51.1702 92.2431 51.1702L92.2755 50.4675L92.7999 45.2383L90.2154 42.1309Z" fill="#1A2E35"/>
<path d="M84.7454 51.5361C84.869 51.2593 85.0247 50.9975 85.2094 50.7559C85.242 50.7166 85.2892 50.6917 85.3405 50.6865C85.3918 50.6814 85.4431 50.6965 85.4831 50.7285L85.511 50.7559L86.5503 51.8738C86.568 51.8912 86.582 51.9118 86.5916 51.9345C86.6012 51.9572 86.6061 51.9815 86.6061 52.0061C86.6061 52.0307 86.6012 52.055 86.5916 52.0777C86.582 52.1004 86.568 52.1211 86.5503 52.1385C86.5358 52.1557 86.5165 52.1684 86.4946 52.175C86.284 52.26 86.0646 52.3227 85.8404 52.362C85.5156 52.4077 85.0145 51.9377 84.8196 51.746C84.7871 51.7225 84.7626 51.6899 84.7494 51.6524C84.7361 51.6149 84.7347 51.5744 84.7454 51.5361Z" fill="#458BF5"/>
<path opacity="0.3" d="M84.7454 51.5361C84.869 51.2593 85.0247 50.9975 85.2094 50.7559C85.242 50.7166 85.2892 50.6917 85.3405 50.6865C85.3918 50.6814 85.4431 50.6965 85.4831 50.7285L85.511 50.7559L86.5503 51.8738C86.568 51.8912 86.582 51.9118 86.5916 51.9345C86.6012 51.9572 86.6061 51.9815 86.6061 52.0061C86.6061 52.0307 86.6012 52.055 86.5916 52.0777C86.582 52.1004 86.568 52.1211 86.5503 52.1385C86.5358 52.1557 86.5165 52.1684 86.4946 52.175C86.284 52.26 86.0646 52.3227 85.8404 52.362C85.5156 52.4077 85.0145 51.9377 84.8196 51.746C84.7871 51.7225 84.7626 51.6899 84.7494 51.6524C84.7361 51.6149 84.7347 51.5744 84.7454 51.5361Z" fill="black"/>
<path d="M101.653 61.1758C102.539 61.8511 103.509 62.5721 104.483 63.2291C105.458 63.8862 106.437 64.5479 107.444 65.1547C108.451 65.7616 109.471 66.3274 110.501 66.8659L111.276 67.2537L112.065 67.6142C112.325 67.7374 112.589 67.8469 112.859 67.9473L113.253 68.107C113.388 68.1572 113.531 68.2211 113.615 68.2439C114.1 68.3893 114.597 68.4947 115.1 68.5588C115.647 68.6363 116.223 68.6911 116.807 68.7322C117.972 68.8052 119.169 68.8371 120.371 68.8417C121.573 68.8462 122.788 68.8417 123.999 68.8052L127.642 68.7048L127.869 70.4981C125.432 70.9807 122.971 71.3386 120.496 71.5704C119.248 71.6799 117.995 71.762 116.714 71.7711C116.074 71.7711 115.425 71.7711 114.756 71.7118C114.038 71.671 113.326 71.5563 112.631 71.3696C112.418 71.3148 112.283 71.2601 112.125 71.2099L111.661 71.0502C111.351 70.9498 111.044 70.8403 110.733 70.7171L109.833 70.3612L108.952 69.9779C107.786 69.4619 106.651 68.8831 105.551 68.2439C104.456 67.6097 103.379 66.9526 102.34 66.2499C101.279 65.543 100.257 64.7814 99.2773 63.9684L101.653 61.1758Z" fill="#FFBE9D"/>
<path d="M96.8358 59.1284C97.9912 58.2431 102.747 61.1407 104.195 62.3499L103.142 68.6149C103.142 68.6149 96.2976 65.795 95.8846 63.8694C95.4577 61.8571 95.9635 59.8037 96.8358 59.1284Z" fill="#1A2E35"/>
<path d="M127.135 68.8615L130.002 66.6758L130.23 70.057C130.23 70.057 128.253 71.2616 126.949 70.5133L127.135 68.8615Z" fill="#FFBE9D"/>
<path d="M132.56 66.3418L134.026 67.948L130.212 70.0561L129.984 66.6749L132.56 66.3418Z" fill="#FFBE9D"/>
<path d="M78.082 160.377L81.6966 160.641L83.0144 152.46L79.4044 152.195L78.082 160.377Z" fill="#FFBE9D"/>
<path d="M52.5117 148.943L55.5788 150.841L61.04 144.471L57.973 142.568L52.5117 148.943Z" fill="#FFBE9D"/>
<path d="M56.5471 150.161L53.6749 147.318C53.6253 147.27 53.5597 147.24 53.4898 147.235C53.42 147.23 53.3507 147.25 53.2944 147.291L50.6821 149.212C50.5617 149.308 50.4847 149.446 50.4682 149.598C50.4517 149.749 50.4969 149.901 50.594 150.02L50.6357 150.065C51.6519 151.037 52.1948 151.457 53.4568 152.707C54.2317 153.478 55.285 154.678 56.3568 155.742C57.4287 156.805 58.5516 155.815 58.2128 155.285C56.6445 152.881 56.9276 151.982 56.8208 150.759C56.808 150.533 56.7105 150.32 56.5471 150.161Z" fill="#1A2E35"/>
<path d="M81.9377 160.131H77.8637C77.7921 160.131 77.7227 160.156 77.6676 160.201C77.6125 160.246 77.5752 160.308 77.5621 160.378L76.9172 163.544C76.8913 163.683 76.922 163.827 77.0027 163.944C77.0835 164.061 77.2077 164.142 77.3487 164.169C77.3919 164.174 77.4354 164.174 77.4786 164.169C78.8985 164.169 79.5898 164.064 81.3809 164.064C82.4805 164.064 85.5569 164.174 87.0927 164.174C88.6285 164.174 88.7817 162.696 88.1553 162.563C85.3713 161.961 83.4549 161.135 82.5409 160.341C82.3727 160.201 82.1581 160.126 81.9377 160.131Z" fill="#1A2E35"/>
<path d="M83.0134 152.459L82.2803 157.004L78.7168 156.415L79.3989 152.199L83.0134 152.459Z" fill="#FF9B91"/>
<path d="M57.9719 142.572L61.0389 144.47L58.7792 147.108L55.6426 145.287L57.9719 142.572Z" fill="#FF9B91"/>
<path d="M80.8281 78.0877L95.2771 80.8575C102.743 60.9764 101.119 60.3239 101.119 60.3239C100.069 59.756 98.9843 59.253 97.8708 58.8181L97.676 58.745C96.748 58.4119 96.5624 58.3618 95.3281 58.0058C93.203 57.5085 91.2217 57.0932 88.7672 56.751L88.3032 56.6871C87.8392 56.6324 87.4169 56.5867 86.99 56.5457C86.7024 56.5137 86.4147 56.4955 86.1409 56.4772L85.2129 56.427C83.626 56.3495 82.4892 56.3723 82.4892 56.3723C82.93 68.7883 82.2155 72.352 80.8281 78.0877Z" fill="#1A2E35"/>
<path d="M90.8563 49.6191C90.8563 51.7729 90.5176 55.656 88.7637 56.7603C88.7637 56.7603 88.9261 58.9779 92.8469 59.7263C97.1621 60.5522 95.3246 58.0151 95.3246 58.0151C93.0835 57.0113 93.4686 55.3047 94.211 53.7715L90.8563 49.6191Z" fill="#FFBE9D"/>
<path d="M92.2237 51.3125L94.2096 53.772C94.0373 54.1282 93.8946 54.4975 93.7827 54.8762C92.9058 54.5751 91.8618 53.3704 91.9267 52.4259C91.9552 52.0399 92.0559 51.6625 92.2237 51.3125Z" fill="#FF9B91"/>
<path d="M90.6465 44.6723C90.1825 48.1813 89.8995 49.6551 91.3286 51.777C93.4769 54.9711 97.9592 54.7657 99.4857 51.4667C100.878 48.4961 101.397 43.2532 98.219 41.2227C97.6814 40.8734 97.079 40.6317 96.4463 40.5115C95.8136 40.3912 95.163 40.3948 94.5318 40.5219C93.9005 40.649 93.3009 40.8972 92.7672 41.2524C92.2335 41.6075 91.7762 42.0626 91.4214 42.5916C91.0039 43.2174 90.7388 43.9294 90.6465 44.6723Z" fill="#FFBE9D"/>
<path d="M102.26 39.1146C102.325 39.6711 102.282 40.2347 102.134 40.7756C102.101 40.592 102.056 40.4106 102 40.2326C100.728 36.0985 95.0026 37.0841 93.2765 38.8637C90.4925 38.0788 87.8431 38.7039 88.1957 42.0578C88.2398 42.9218 88.556 43.7511 89.1005 44.4306C88.669 45.6078 89.1005 47.4832 90.525 47.538C92.5295 47.6156 94.4319 45.0055 95.1975 43.5727C96.5895 43.8054 98.594 44.029 100.116 43.664C100.371 43.8145 100.58 43.9195 100.58 43.9195C102.199 43.0662 103.433 42.2403 102.26 39.1146Z" fill="#1A2E35"/>
<path d="M89.4129 47.0684C89.3571 47.7492 89.5754 48.4243 90.0207 48.9484C90.6239 49.6374 91.4127 49.2313 91.6957 48.4145C91.9324 47.6753 91.8999 46.4296 91.0925 46.0417C90.9524 45.977 90.8007 45.94 90.646 45.9329C90.4913 45.9258 90.3367 45.9488 90.1911 46.0005C90.0454 46.0522 89.9116 46.1316 89.7972 46.2342C89.6827 46.3368 89.59 46.4606 89.5242 46.5984C89.4546 46.7459 89.4167 46.9059 89.4129 47.0684Z" fill="#FFBE9D"/>
<path d="M95.0588 80.858C95.0588 80.858 95.1145 109.067 92.7667 119.689C90.326 130.741 83.148 155.883 83.148 155.883L77.9512 155.222C77.9512 155.222 82.0205 129.824 83.7512 118.841C85.6397 106.872 84.4843 78.832 84.4843 78.832L95.0588 80.858Z" fill="#458BF5"/>
<path opacity="0.3" d="M95.0588 80.858C95.0588 80.858 95.1145 109.067 92.7667 119.689C90.326 130.741 83.148 155.883 83.148 155.883L77.9512 155.222C77.9512 155.222 82.0205 129.824 83.7512 118.841C85.6397 106.872 84.4843 78.832 84.4843 78.832L95.0588 80.858Z" fill="black"/>
<path d="M84.0345 156.324L77.0605 155.439L77.3575 153.012L85.2733 153.924L84.0345 156.324Z" fill="#1A2E35"/>
<path d="M91.4626 80.1276C91.4626 80.1276 83.6814 103.44 79.8162 116.869C75.7423 131.037 60.1241 146.707 60.1241 146.707L55.6465 144.161C55.6465 144.161 66.3185 129.285 70.2393 116.066C78.2247 89.2308 74.9442 83.5453 80.8278 78.0879L91.4626 80.1276Z" fill="#458BF5"/>
<path opacity="0.3" d="M91.4626 80.1276C91.4626 80.1276 83.6814 103.44 79.8162 116.869C75.7423 131.037 60.1241 146.707 60.1241 146.707L55.6465 144.161C55.6465 144.161 66.3185 129.285 70.2393 116.066C78.2247 89.2308 74.9442 83.5453 80.8278 78.0879L91.4626 80.1276Z" fill="black"/>
<path d="M60.8531 147.414L54.6309 143.882L56.1806 141.701L63.0896 145.447L60.8531 147.414Z" fill="#1A2E35"/>
<path d="M95.7979 46.6661C95.7423 46.949 95.849 47.2045 96.0392 47.241C96.2295 47.2775 96.4243 47.0768 96.5032 46.7847C96.5821 46.4927 96.4522 46.2417 96.2619 46.2052C96.0717 46.1687 95.8536 46.3832 95.7979 46.6661Z" fill="#1A2E35"/>
<path d="M99.0401 47.2872C98.9845 47.5701 99.0912 47.8302 99.2814 47.8667C99.4717 47.9032 99.6665 47.7024 99.7222 47.4104C99.7779 47.1183 99.6712 46.8674 99.4809 46.8354C99.2907 46.8035 99.0958 46.9997 99.0401 47.2872Z" fill="#1A2E35"/>
<path d="M99.3965 46.8408L100.125 46.7812C100.125 46.7812 99.6656 47.2436 99.3965 46.8408Z" fill="#1A2E35"/>
<path d="M98.0897 47.6113C98.218 48.3031 98.4428 48.9741 98.7579 49.6054C98.5916 49.682 98.4102 49.7216 98.2266 49.7216C98.043 49.7216 97.8616 49.682 97.6953 49.6054L98.0897 47.6113Z" fill="#FF9B90"/>
<path d="M96.4807 50.5177C96.0928 50.4553 95.7261 50.3015 95.4118 50.0695C95.0975 49.8375 94.8449 49.5341 94.6757 49.1853C94.671 49.1755 94.6684 49.1648 94.668 49.1539C94.6676 49.143 94.6694 49.1322 94.6733 49.122C94.6772 49.1118 94.6831 49.1025 94.6907 49.0946C94.6982 49.0866 94.7074 49.0803 94.7175 49.0758C94.7384 49.0681 94.7616 49.0685 94.7823 49.077C94.803 49.0855 94.8196 49.1014 94.8288 49.1215C94.9909 49.442 95.2274 49.7206 95.5192 49.9346C95.811 50.1486 96.1499 50.2921 96.5085 50.3535C96.5195 50.3551 96.5301 50.3589 96.5396 50.3647C96.5491 50.3704 96.5574 50.378 96.5639 50.3869C96.5704 50.3959 96.575 50.406 96.5774 50.4167C96.5799 50.4274 96.5801 50.4385 96.5781 50.4493C96.5736 50.4707 96.5611 50.4896 96.543 50.5023C96.5249 50.515 96.5027 50.5205 96.4807 50.5177Z" fill="#1A2E35"/>
<path d="M95.0584 45.4521C95.0136 45.4499 94.9712 45.4314 94.9395 45.4002C94.9078 45.369 94.889 45.3274 94.8867 45.2833C94.8886 45.2367 94.9085 45.1927 94.9424 45.1601C95.1412 44.9763 95.3818 44.8419 95.6441 44.7681C95.9064 44.6943 96.1828 44.6832 96.4504 44.7357C96.4943 44.7485 96.5314 44.7775 96.5539 44.8167C96.5764 44.8558 96.5826 44.9021 96.571 44.9456C96.5656 44.9666 96.556 44.9864 96.5428 45.0038C96.5296 45.0211 96.5131 45.0357 96.4941 45.0468C96.4751 45.0578 96.4541 45.065 96.4323 45.068C96.4104 45.071 96.3882 45.0697 96.3669 45.0643C96.1544 45.0272 95.936 45.0392 95.7291 45.0994C95.5221 45.1596 95.3322 45.2663 95.1744 45.4111C95.1425 45.4388 95.101 45.4535 95.0584 45.4521Z" fill="#1A2E35"/>
<path d="M100.84 46.0876C100.806 46.088 100.773 46.0781 100.745 46.0594C100.716 46.0406 100.695 46.0138 100.682 45.9826C100.602 45.7872 100.477 45.6126 100.317 45.4725C100.157 45.3324 99.9659 45.2306 99.7591 45.175C99.7368 45.1711 99.7156 45.163 99.6965 45.151C99.6775 45.139 99.661 45.1235 99.6481 45.1053C99.6351 45.087 99.626 45.0665 99.6212 45.0448C99.6163 45.0231 99.6159 45.0006 99.6199 44.9787C99.6289 44.9351 99.6547 44.8965 99.6918 44.871C99.729 44.8455 99.7747 44.8351 99.8194 44.8418C100.084 44.9069 100.329 45.0331 100.534 45.2101C100.739 45.3871 100.898 45.6097 100.998 45.8594C101.007 45.8798 101.012 45.9017 101.013 45.924C101.013 45.9463 101.009 45.9685 101.001 45.9893C100.993 46.0101 100.981 46.029 100.965 46.0451C100.949 46.0612 100.931 46.0741 100.91 46.083L100.84 46.0876Z" fill="#1A2E35"/>
<path d="M96.1855 49.1668C96.0418 49.1673 95.9 49.135 95.7711 49.0725C95.6423 49.0099 95.53 48.9188 95.4431 48.8063C95.2249 48.4716 95.0793 48.0962 95.0154 47.7036C94.9515 47.311 94.9708 46.9097 95.0719 46.5248C95.3364 45.0829 96.2551 43.9102 97.1228 43.9102C97.2671 43.9122 97.4092 43.946 97.5385 44.0092C97.6678 44.0724 97.781 44.1633 97.8698 44.2752C98.088 44.6099 98.2336 44.9853 98.2975 45.3779C98.3614 45.7705 98.3421 46.1718 98.241 46.5567C97.9765 47.9986 97.0532 49.1668 96.1855 49.1668ZM97.1135 44.0379C96.3015 44.0379 95.4292 45.1696 95.174 46.5567C95.0116 47.4693 95.1415 48.2907 95.522 48.7333C95.5991 48.832 95.6981 48.9121 95.8115 48.9675C95.9249 49.0229 96.0496 49.052 96.1762 49.0527C96.9929 49.0527 97.8605 47.9256 98.1157 46.5385C98.2142 46.1717 98.2341 45.7889 98.1742 45.4142C98.1143 45.0396 97.9759 44.6812 97.7677 44.3619C97.6926 44.263 97.5953 44.1824 97.4835 44.1262C97.3717 44.0701 97.2483 44.0398 97.1228 44.0379H97.1135Z" fill="#F9F9F9"/>
<path d="M99.7919 49.6227C99.6416 49.6207 99.4938 49.5851 99.3596 49.5187C99.2254 49.4523 99.1082 49.3568 99.017 49.2394C98.8087 48.9322 98.6677 48.5857 98.603 48.222C98.5383 47.8583 98.5513 47.4853 98.6411 47.1268C98.8778 45.7852 99.7687 44.6992 100.627 44.6992C100.777 44.7031 100.925 44.74 101.059 44.8071C101.193 44.8742 101.31 44.9698 101.402 45.0871C101.608 45.3943 101.748 45.74 101.813 46.1027C101.878 46.4654 101.866 46.8373 101.778 47.1952C101.546 48.5413 100.655 49.6227 99.7919 49.6227ZM100.613 44.8133C99.8058 44.8133 98.9706 45.8582 98.7571 47.1496C98.6739 47.4917 98.6623 47.8469 98.7229 48.1936C98.7835 48.5403 98.9151 48.8713 99.1098 49.1664C99.1927 49.2685 99.2969 49.3518 99.4154 49.4109C99.5338 49.4699 99.6638 49.5033 99.7965 49.5087C100.604 49.5087 101.444 48.4683 101.653 47.1769C101.735 46.835 101.747 46.4802 101.687 46.1337C101.627 45.7872 101.497 45.4561 101.305 45.1601C101.222 45.0572 101.118 44.973 101 44.9131C100.881 44.8533 100.751 44.8192 100.618 44.8133H100.613Z" fill="#F9F9F9"/>
<path d="M57.6143 151.818C57.1503 151.818 56.6863 151.115 56.4125 150.709C56.4033 150.695 56.3984 150.679 56.3984 150.663C56.3984 150.647 56.4033 150.631 56.4125 150.618C56.4225 150.604 56.4359 150.594 56.4514 150.587C56.467 150.581 56.484 150.579 56.5007 150.581C56.6492 150.613 57.9252 150.887 58.0876 151.316C58.106 151.363 58.111 151.414 58.102 151.464C58.093 151.514 58.0704 151.56 58.0365 151.599C57.9929 151.669 57.9306 151.727 57.8562 151.766C57.7819 151.804 57.6982 151.822 57.6143 151.818ZM56.6445 150.791C57.0018 151.32 57.3498 151.635 57.6004 151.649C57.656 151.649 57.7108 151.636 57.7596 151.609C57.8083 151.583 57.8493 151.545 57.8788 151.498C57.8944 151.482 57.905 151.462 57.9091 151.44C57.9132 151.418 57.9107 151.395 57.902 151.375C57.8184 151.147 57.1549 150.919 56.6445 150.791Z" fill="#458BF5"/>
<path d="M56.854 150.79C56.7134 150.791 56.5733 150.776 56.4364 150.745C56.4224 150.74 56.4097 150.732 56.3992 150.722C56.3888 150.711 56.3809 150.699 56.376 150.685C56.3668 150.659 56.3668 150.63 56.376 150.603C56.4085 150.576 57.1184 149.887 57.6428 149.887H57.6799C57.7448 149.891 57.8081 149.909 57.8657 149.938C57.9232 149.968 57.9737 150.01 58.014 150.06C58.0613 150.109 58.0906 150.172 58.0974 150.239C58.1041 150.306 58.0878 150.373 58.0511 150.43C57.9026 150.676 57.3087 150.79 56.854 150.79ZM56.6452 150.612C57.0813 150.662 57.7866 150.539 57.9304 150.334C57.9536 150.302 57.9722 150.252 57.9026 150.165C57.8784 150.131 57.8464 150.104 57.8093 150.085C57.7722 150.066 57.731 150.056 57.6892 150.056C57.2904 150.129 56.9252 150.324 56.6452 150.612Z" fill="#458BF5"/>
<path d="M83.2683 160.757C82.8842 160.748 82.5019 160.702 82.1268 160.62C82.109 160.616 82.0927 160.607 82.0802 160.594C82.0678 160.581 82.0597 160.565 82.0572 160.547C82.0552 160.529 82.0585 160.512 82.0668 160.496C82.0751 160.481 82.0879 160.468 82.1036 160.46C82.2753 160.378 83.7648 159.648 84.1963 159.894C84.2353 159.919 84.2675 159.953 84.2902 159.992C84.3128 160.032 84.3252 160.077 84.3262 160.122C84.3311 160.199 84.3173 160.276 84.2858 160.347C84.2543 160.418 84.2061 160.48 84.1452 160.529C83.887 160.699 83.5783 160.779 83.2683 160.757ZM82.4192 160.51C83.2126 160.638 83.8112 160.606 84.0432 160.41C84.083 160.376 84.1142 160.334 84.1344 160.287C84.1545 160.239 84.163 160.188 84.1592 160.136C84.1601 160.119 84.1562 160.102 84.1481 160.087C84.1399 160.071 84.1277 160.058 84.1127 160.049C83.8807 159.917 83.0548 160.227 82.4192 160.506V160.51Z" fill="#458BF5"/>
<path d="M82.1498 160.619H82.0987C82.0851 160.61 82.0743 160.597 82.0677 160.583C82.0612 160.568 82.059 160.552 82.0616 160.536C82.0616 160.473 82.2843 159.021 83.0917 159.021H83.1613C83.3933 159.044 83.4583 159.158 83.4722 159.254C83.5371 159.656 82.637 160.431 82.1823 160.623L82.1498 160.619ZM83.0778 159.177C82.5535 159.177 82.3215 160.016 82.2426 160.381C82.7066 160.112 83.3237 159.505 83.2866 159.263C83.2866 159.263 83.2866 159.19 83.1242 159.177H83.0778Z" fill="#458BF5"/>
<path d="M96.1543 46.2203L96.8828 46.1562C96.8828 46.1562 96.4234 46.6232 96.1543 46.2203Z" fill="#1A2E35"/>
<path d="M92.9671 62.7599C86.9351 60.5103 85.0512 57.1428 85.1951 56.4355L86.1231 56.4903H86.304C86.5355 56.4963 86.7664 56.5161 86.9954 56.5496C87.4223 56.5861 87.8631 56.6318 88.3085 56.6911L88.7725 56.755C90.987 57.0199 93.1795 57.4392 95.3335 58.0098C96.3171 58.2927 96.6419 58.384 97.1895 58.5756L97.6535 58.749L97.8483 58.822C98.3309 59.8441 98.2242 61.934 92.9671 62.7599Z" fill="#FFBE9D"/>
<path d="M92.9671 62.7599C86.9351 60.5103 85.0512 57.1428 85.1951 56.4355L86.1231 56.4903H86.304C87.529 58.2014 90.2109 60.5651 92.9439 60.8891C95.1432 60.4328 97.2173 59.9126 97.1987 58.5756L97.6627 58.749L97.8576 58.822C98.3309 59.8441 98.2242 61.934 92.9671 62.7599Z" fill="#458BF5"/>
<path opacity="0.3" d="M92.9671 62.7599C86.9351 60.5103 85.0512 57.1428 85.1951 56.4355L86.1231 56.4903H86.304C87.529 58.2014 90.2109 60.5651 92.9439 60.8891C95.1432 60.4328 97.2173 59.9126 97.1987 58.5756L97.6627 58.749L97.8576 58.822C98.3309 59.8441 98.2242 61.934 92.9671 62.7599Z" fill="black"/>
<path d="M80.7783 77.2118L79.8503 78.3617C79.7807 78.4484 79.8828 78.5716 80.0498 78.6036L95.204 81.5057C95.3339 81.533 95.4546 81.5057 95.4778 81.4098L95.8583 80.1641C95.8861 80.0774 95.7887 79.9816 95.6448 79.9542L81.0103 77.1525C80.9696 77.1437 80.9274 77.1445 80.8871 77.1549C80.8467 77.1652 80.8095 77.1847 80.7783 77.2118Z" fill="#1A2E35"/>
<path d="M82.4241 79.1957L82.0343 79.1227C81.9554 79.1227 81.9044 79.0588 81.9183 79.0086L82.4287 77.3933C82.4287 77.3431 82.5215 77.3203 82.5957 77.334L82.9901 77.407C83.069 77.407 83.1201 77.4754 83.1061 77.5211L82.5957 79.141C82.5778 79.168 82.5509 79.1881 82.5197 79.1981C82.4885 79.2081 82.4547 79.2072 82.4241 79.1957Z" fill="#458BF5"/>
<path opacity="0.3" d="M82.4241 79.1957L82.0343 79.1227C81.9554 79.1227 81.9044 79.0588 81.9183 79.0086L82.4287 77.3933C82.4287 77.3431 82.5215 77.3203 82.5957 77.334L82.9901 77.407C83.069 77.407 83.1201 77.4754 83.1061 77.5211L82.5957 79.141C82.5778 79.168 82.5509 79.1881 82.5197 79.1981C82.4885 79.2081 82.4547 79.2072 82.4241 79.1957Z" fill="black"/>
<path d="M83.4536 61.8785C83.2772 62.9599 83.1102 64.16 82.9896 65.2825C82.8689 66.405 82.7622 67.564 82.7065 68.7321C82.6756 69.3071 82.657 69.882 82.6508 70.457V72.1681C82.674 73.2855 82.7623 74.4007 82.9153 75.5082C83.0038 75.8872 83.1609 76.2473 83.3793 76.5714C83.6585 77.0148 83.9686 77.4387 84.3073 77.8399C85.0486 78.7057 85.8419 79.527 86.683 80.2994C87.5321 81.1025 88.423 81.8782 89.3371 82.6357C90.2512 83.3932 91.1931 84.1461 92.1211 84.8716L91.1235 86.3865C88.9396 85.21 86.8515 83.869 84.878 82.3756C83.8582 81.609 82.8968 80.7702 82.0012 79.8659C81.5224 79.3822 81.0833 78.8619 80.6881 78.3099C80.1972 77.6584 79.8481 76.9144 79.6627 76.1242L79.491 75.1569C79.4307 74.842 79.3889 74.5272 79.3518 74.2169C79.259 73.5872 79.208 72.9621 79.1569 72.3369C79.0603 71.0936 79.0308 69.8462 79.0688 68.5998C79.1059 67.3632 79.1755 66.1312 79.3008 64.9037C79.426 63.6763 79.5838 62.4716 79.8344 61.2031L83.4536 61.8785Z" fill="#FFBE9D"/>
<path d="M80.3744 57.3254C78.3885 58.9043 78.8618 63.5951 78.8618 63.5951L85.5434 65.7579C85.5434 65.7579 85.2372 60.3507 84.9124 58.4069C84.5133 56.0934 82.3232 55.7695 80.3744 57.3254Z" fill="#1A2E35"/>
<path d="M91.3052 84.5808L94.3258 83.4766L93.8618 86.3011C93.8618 86.3011 91.6717 87.0768 90.5488 86.0821L91.3052 84.5808Z" fill="#FFBE9D"/>
<path d="M97.9213 83.8964V86.0775L93.8613 86.3011L94.3253 83.4766L97.9213 83.8964Z" fill="#FFBE9D"/>
<path d="M94.094 81.432L93.7042 81.359C93.6253 81.359 93.5743 81.2951 93.5882 81.245L94.0986 79.6296C94.0986 79.5794 94.1914 79.5566 94.2703 79.5703L94.6601 79.6433C94.7389 79.6433 94.79 79.7118 94.7761 79.7574L94.2657 81.3773C94.2517 81.4229 94.1914 81.4503 94.094 81.432Z" fill="#458BF5"/>
<path opacity="0.3" d="M94.094 81.432L93.7042 81.359C93.6253 81.359 93.5743 81.2951 93.5882 81.245L94.0986 79.6296C94.0986 79.5794 94.1914 79.5566 94.2703 79.5703L94.6601 79.6433C94.7389 79.6433 94.79 79.7118 94.7761 79.7574L94.2657 81.3773C94.2517 81.4229 94.1914 81.4503 94.094 81.432Z" fill="black"/>
<path d="M88.2615 80.309L87.8671 80.236C87.7882 80.236 87.7372 80.1721 87.7558 80.1219L88.2662 78.5066C88.2662 78.4564 88.3543 78.4336 88.4332 78.4473L88.8276 78.5203C88.9018 78.5203 88.9575 78.5887 88.939 78.6344L88.4286 80.2542C88.4146 80.309 88.3404 80.3318 88.2615 80.309Z" fill="#458BF5"/>
<path opacity="0.3" d="M88.2615 80.309L87.8671 80.236C87.7882 80.236 87.7372 80.1721 87.7558 80.1219L88.2662 78.5066C88.2662 78.4564 88.3543 78.4336 88.4332 78.4473L88.8276 78.5203C88.9018 78.5203 88.9575 78.5887 88.939 78.6344L88.4286 80.2542C88.4146 80.309 88.3404 80.3318 88.2615 80.309Z" fill="black"/>
<path d="M58.7099 106.917L82.7636 158.58C83.315 159.754 84.3164 160.666 85.5492 161.116C86.7819 161.567 88.1458 161.52 89.3431 160.985L93.1619 159.269L181.586 119.456C182.781 118.916 183.709 117.932 184.168 116.721C184.627 115.509 184.58 114.168 184.036 112.991L162.78 67.3603L159.996 61.3326C159.443 60.1601 158.442 59.2498 157.21 58.7995C155.978 58.3492 154.615 58.3953 153.417 58.9278L61.1691 100.451C59.9747 100.992 59.046 101.975 58.5853 103.186C58.1247 104.397 58.1695 105.738 58.7099 106.917Z" fill="#458BF5"/>
<path opacity="0.1" d="M58.7099 106.917L82.7636 158.58C83.315 159.754 84.3164 160.666 85.5492 161.116C86.7819 161.567 88.1458 161.52 89.3431 160.985L93.1619 159.269L181.586 119.456C182.781 118.916 183.709 117.932 184.168 116.721C184.627 115.509 184.58 114.168 184.036 112.991L162.78 67.3603L159.996 61.3326C159.443 60.1601 158.442 59.2498 157.21 58.7995C155.978 58.3492 154.615 58.3953 153.417 58.9278L61.1691 100.451C59.9747 100.992 59.046 101.975 58.5853 103.186C58.1247 104.397 58.1695 105.738 58.7099 106.917Z" fill="white"/>
<path d="M169.742 82.2871L68.4727 127.883L80.3246 153.34L181.594 107.745L169.742 82.2871Z" fill="#458BF5"/>
<path opacity="0.3" d="M169.742 82.2871L68.4727 127.883L80.3246 153.34L181.594 107.745L169.742 82.2871Z" fill="white"/>
<path d="M165.549 94.0634L101.553 122.877L105.794 131.988L169.79 103.174L165.549 94.0634Z" fill="#458BF5"/>
<path opacity="0.8" d="M165.549 94.0634L101.553 122.877L105.794 131.988L169.79 103.174L165.549 94.0634Z" fill="white"/>
<path d="M166.277 73.0099L64.9258 119.021L71.3066 132.614L172.657 86.6027L166.277 73.0099Z" fill="#458BF5"/>
<path opacity="0.3" d="M166.277 73.0099L64.9258 119.021L71.3066 132.614L172.657 86.6027L166.277 73.0099Z" fill="black"/>
<path d="M72.4616 107.565L93.1606 159.25L181.585 119.438C182.78 118.897 183.708 117.914 184.167 116.702C184.626 115.491 184.579 114.149 184.035 112.972L162.779 67.3418L75.2641 101.236C74.0425 101.714 73.0624 102.647 72.5375 103.833C72.0125 105.018 71.9852 106.36 72.4616 107.565Z" fill="#458BF5"/>
<path d="M189.5 91.2279L189.062 91.3789L189.787 93.4062L190.224 93.2552L189.5 91.2279Z" fill="#458BF5"/>
<path opacity="0.1" d="M189.5 91.2279L189.062 91.3789L189.787 93.4062L190.224 93.2552L189.5 91.2279Z" fill="white"/>
<path d="M185.846 81.0363L185.408 81.1875L188.262 89.1781L188.699 89.0269L185.846 81.0363Z" fill="#458BF5"/>
<path opacity="0.1" d="M185.846 81.0363L185.408 81.1875L188.262 89.1781L188.699 89.0269L185.846 81.0363Z" fill="white"/>
<path d="M78.6185 101.413L174.342 68.3538C175.583 67.9288 176.946 68.0046 178.131 68.5647C179.316 69.1248 180.228 70.1235 180.666 71.3426L199.811 124.954C200.243 126.175 200.167 127.515 199.598 128.681C199.03 129.847 198.015 130.745 196.776 131.178L101.053 164.237C99.8103 164.659 98.4483 164.583 97.2631 164.023C96.0779 163.463 95.1654 162.466 94.7239 161.248L75.5793 107.637C75.1469 106.415 75.2239 105.075 75.7934 103.908C76.3629 102.742 77.3785 101.845 78.6185 101.413Z" fill="#458BF5"/>
<path opacity="0.1" d="M78.6185 101.413L174.342 68.3538C175.583 67.9288 176.946 68.0046 178.131 68.5647C179.316 69.1248 180.228 70.1235 180.666 71.3426L199.811 124.954C200.243 126.175 200.167 127.515 199.598 128.681C199.03 129.847 198.015 130.745 196.776 131.178L101.053 164.237C99.8103 164.659 98.4483 164.583 97.2631 164.023C96.0779 163.463 95.1654 162.466 94.7239 161.248L75.5793 107.637C75.1469 106.415 75.2239 105.075 75.7934 103.908C76.3629 102.742 77.3785 101.845 78.6185 101.413Z" fill="white"/>
<path d="M187.997 91.8606L82.9102 128.152L91.2383 151.474L196.325 115.182L187.997 91.8606Z" fill="#458BF5"/>
<path opacity="0.3" d="M187.997 91.8606L82.9102 128.152L91.2383 151.474L196.325 115.182L187.997 91.8606Z" fill="white"/>
<path d="M175.416 80.5096L153.693 88.0117L154.882 91.3397L176.605 83.8376L175.416 80.5096Z" fill="#458BF5"/>
<path opacity="0.8" d="M175.416 80.5096L153.693 88.0117L154.882 91.3397L176.605 83.8376L175.416 80.5096Z" fill="white"/>
<path d="M189.969 121.264L172.541 127.283L173.162 129.023L190.591 123.004L189.969 121.264Z" fill="#458BF5"/>
<path opacity="0.8" d="M189.969 121.264L172.541 127.283L173.162 129.023L190.591 123.004L189.969 121.264Z" fill="white"/>
<path d="M191.156 124.592L168.697 132.348L169.318 134.087L191.777 126.331L191.156 124.592Z" fill="#458BF5"/>
<path opacity="0.8" d="M191.156 124.592L168.697 132.348L169.318 134.087L191.777 126.331L191.156 124.592Z" fill="white"/>
<path d="M111.077 149.999L99.8477 153.877L101.184 157.618L112.413 153.74L111.077 149.999Z" fill="#458BF5"/>
<path opacity="0.8" d="M111.077 149.999L99.8477 153.877L101.184 157.618L112.413 153.74L111.077 149.999Z" fill="white"/>
<path d="M171.12 117.956L184.232 113.429C184.924 113.187 185.49 112.687 185.808 112.036C186.126 111.386 186.17 110.639 185.93 109.957C185.684 109.277 185.176 108.72 184.514 108.407C183.853 108.095 183.093 108.051 182.399 108.286L169.282 112.818C168.591 113.06 168.025 113.56 167.707 114.21C167.389 114.861 167.345 115.608 167.584 116.29C167.831 116.97 168.341 117.527 169.003 117.839C169.665 118.151 170.426 118.193 171.12 117.956Z" fill="#458BF5"/>
<path d="M148.656 125.711L161.773 121.18C162.459 120.937 163.021 120.439 163.338 119.793C163.654 119.147 163.701 118.405 163.467 117.726C163.22 117.047 162.711 116.491 162.049 116.179C161.388 115.868 160.629 115.825 159.936 116.06L146.823 120.592C146.132 120.833 145.566 121.334 145.248 121.984C144.93 122.634 144.886 123.382 145.125 124.064C145.376 124.74 145.886 125.291 146.547 125.599C147.208 125.908 147.965 125.948 148.656 125.711Z" fill="#458BF5"/>
<path d="M126.206 133.469L139.324 128.938C140.008 128.693 140.568 128.195 140.882 127.549C141.197 126.903 141.242 126.162 141.008 125.484C140.761 124.805 140.252 124.249 139.591 123.937C138.929 123.625 138.17 123.583 137.477 123.818L124.35 128.331C123.66 128.574 123.095 129.075 122.778 129.725C122.461 130.375 122.417 131.122 122.657 131.804C122.904 132.487 123.416 133.046 124.081 133.358C124.747 133.67 125.511 133.71 126.206 133.469Z" fill="#458BF5"/>
<path d="M103.736 141.227L116.853 136.696C117.54 136.454 118.103 135.956 118.421 135.31C118.738 134.664 118.785 133.921 118.552 133.242C118.305 132.563 117.795 132.007 117.134 131.695C116.473 131.383 115.714 131.34 115.021 131.576L101.903 136.107C101.212 136.349 100.646 136.85 100.328 137.5C100.01 138.15 99.9657 138.898 100.205 139.58C100.456 140.255 100.967 140.807 101.627 141.115C102.288 141.423 103.045 141.463 103.736 141.227Z" fill="#458BF5"/>
<g opacity="0.8">
<path opacity="0.8" d="M171.116 117.956L184.228 113.429C184.92 113.187 185.486 112.687 185.804 112.036C186.122 111.386 186.166 110.639 185.927 109.957C185.681 109.277 185.172 108.72 184.51 108.407C183.849 108.095 183.089 108.051 182.396 108.286L169.278 112.818C168.587 113.06 168.021 113.56 167.703 114.21C167.385 114.861 167.341 115.608 167.58 116.29C167.827 116.97 168.337 117.527 168.999 117.839C169.661 118.151 170.422 118.193 171.116 117.956Z" fill="white"/>
<path opacity="0.8" d="M148.654 125.713L161.771 121.182C162.457 120.939 163.019 120.441 163.336 119.795C163.652 119.149 163.699 118.407 163.465 117.728C163.218 117.049 162.709 116.493 162.048 116.181C161.386 115.87 160.627 115.827 159.934 116.062L146.821 120.593C146.13 120.835 145.564 121.336 145.246 121.986C144.928 122.636 144.884 123.384 145.123 124.066C145.374 124.742 145.884 125.293 146.545 125.601C147.206 125.91 147.963 125.95 148.654 125.713Z" fill="white"/>
<path opacity="0.8" d="M126.206 133.469L139.324 128.938C140.008 128.693 140.568 128.195 140.882 127.549C141.197 126.903 141.242 126.162 141.008 125.484C140.761 124.805 140.252 124.249 139.591 123.937C138.929 123.625 138.17 123.583 137.477 123.818L124.35 128.331C123.66 128.574 123.095 129.075 122.778 129.725C122.461 130.375 122.417 131.122 122.657 131.804C122.904 132.487 123.416 133.046 124.081 133.358C124.747 133.67 125.511 133.71 126.206 133.469Z" fill="white"/>
<path opacity="0.8" d="M103.734 141.227L116.851 136.696C117.538 136.454 118.101 135.956 118.419 135.31C118.736 134.664 118.783 133.921 118.55 133.242C118.303 132.563 117.793 132.007 117.132 131.695C116.471 131.383 115.712 131.34 115.019 131.576L101.901 136.107C101.21 136.349 100.644 136.85 100.326 137.5C100.008 138.15 99.9637 138.898 100.203 139.58C100.454 140.255 100.965 140.807 101.625 141.115C102.286 141.423 103.044 141.463 103.734 141.227Z" fill="white"/>
</g>
<path d="M177.933 93.2049L166.262 97.2356C165.27 97.5779 164.749 98.6458 165.097 99.6206L167.529 106.432C167.877 107.406 168.963 107.919 169.955 107.577L181.626 103.546C182.617 103.204 183.139 102.136 182.791 101.161L180.358 94.3501C180.01 93.3753 178.925 92.8625 177.933 93.2049Z" fill="#458BF5"/>
<path opacity="0.3" d="M177.933 93.2049L166.262 97.2356C165.27 97.5779 164.749 98.6458 165.097 99.6206L167.529 106.432C167.877 107.406 168.963 107.919 169.955 107.577L181.626 103.546C182.617 103.204 183.139 102.136 182.791 101.161L180.358 94.3501C180.01 93.3753 178.925 92.8625 177.933 93.2049Z" fill="black"/>
<path d="M107.498 105.863C107.207 105.045 106.755 104.292 106.168 103.646C105.58 103 104.869 102.474 104.075 102.098C103.281 101.723 102.419 101.505 101.539 101.457C100.659 101.41 99.7782 101.533 98.9468 101.82L89.5183 105.302L89.3976 105.334L89.1193 105.448L88.9476 105.512C87.4252 106.188 86.2261 107.415 85.5994 108.937C84.9728 110.46 84.9667 112.162 85.5824 113.689C86.1982 115.216 87.3884 116.451 88.9059 117.137C90.4235 117.824 92.1516 117.909 93.7314 117.376L102.659 114.455C102.916 114.399 103.17 114.329 103.42 114.245C103.604 114.182 103.786 114.109 103.963 114.026C105.48 113.343 106.683 112.128 107.337 110.618C107.991 109.108 108.049 107.412 107.498 105.863Z" fill="#458BF5"/>
<path opacity="0.8" d="M107.498 105.863C107.207 105.045 106.755 104.292 106.168 103.646C105.58 103 104.869 102.474 104.075 102.098C103.281 101.723 102.419 101.505 101.539 101.457C100.659 101.41 99.7782 101.533 98.9468 101.82L89.5183 105.302L89.3976 105.334L89.1193 105.448L88.9476 105.512C87.4252 106.188 86.2261 107.415 85.5994 108.937C84.9728 110.46 84.9667 112.162 85.5824 113.689C86.1982 115.216 87.3884 116.451 88.9059 117.137C90.4235 117.824 92.1516 117.909 93.7314 117.376L102.659 114.455C102.916 114.399 103.17 114.329 103.42 114.245C103.604 114.182 103.786 114.109 103.963 114.026C105.48 113.343 106.683 112.128 107.337 110.618C107.991 109.108 108.049 107.412 107.498 105.863Z" fill="white"/>
</svg>
