<svg width="230" height="118" viewBox="0 0 230 118" fill="none" xmlns="http://www.w3.org/2000/svg">
<rect x="24" width="206" height="118" rx="8" fill="#149CFF"/>
<g opacity="0.15" clip-path="url(#clip0_8302_45530)">
<path d="M93.4717 91.0552L59 125.527L24.5284 91.0552C17.7106 84.2374 13.0677 75.551 11.1867 66.0944C9.30571 56.6379 10.2712 46.8359 13.961 37.928C17.6507 29.0202 23.8992 21.4065 31.916 16.0498C39.9329 10.6931 49.3582 7.83398 59 7.83398C68.6418 7.83398 78.0671 10.6931 86.084 16.0498C94.1009 21.4065 100.349 29.0202 104.039 37.928C107.729 46.8359 108.694 56.6379 106.813 66.0944C104.932 75.551 100.289 84.2374 93.4717 91.0552ZM59 67.4169C61.8732 67.4169 64.6287 66.2755 66.6603 64.2439C68.692 62.2122 69.8333 59.4567 69.8333 56.5836C69.8333 53.7104 68.692 50.9549 66.6603 48.9232C64.6287 46.8916 61.8732 45.7502 59 45.7502C56.1268 45.7502 53.3713 46.8916 51.3397 48.9232C49.3081 50.9549 48.1667 53.7104 48.1667 56.5836C48.1667 59.4567 49.3081 62.2122 51.3397 64.2439C53.3713 66.2755 56.1268 67.4169 59 67.4169Z" fill="white"/>
</g>
<defs>
<clipPath id="clip0_8302_45530">
<rect width="130" height="130" fill="white" transform="translate(-6 -3)"/>
</clipPath>
</defs>
</svg>
