<svg width="288" height="224" viewBox="0 0 288 224" fill="none" xmlns="http://www.w3.org/2000/svg">
<path d="M287.18 198.012H0V198.155H287.18V198.012Z" fill="#E0E0E0"/>
<path d="M98.9802 201.488H92.9609V201.632H98.9802V201.488Z" fill="#E0E0E0"/>
<path d="M267.764 205.264H245.973V205.407H267.764V205.264Z" fill="#E0E0E0"/>
<path d="M199.879 201.557H182.27V201.7H199.879V201.557Z" fill="#E0E0E0"/>
<path d="M139.269 204.838H108.621V204.981H139.269V204.838Z" fill="#E0E0E0"/>
<path d="M80.2213 203.928H69.6875V204.071H80.2213V203.928Z" fill="#E0E0E0"/>
<path d="M243.198 205.264H234.434V205.407H243.198V205.264Z" fill="#E0E0E0"/>
<path d="M66.3423 203.859H37.2969V204.003H66.3423V203.859Z" fill="#E0E0E0"/>
<path d="M111.241 45.9141H42.5703V198.08H111.241V45.9141Z" fill="#E6E6E6"/>
<path d="M111.234 45.9141H45.8203V198.08H111.234V45.9141Z" fill="#F5F5F5"/>
<path d="M107.789 194.633L107.789 49.373L49.2675 49.373L49.2675 194.633H107.789Z" fill="#F0F0F0"/>
<path d="M107.789 194.629L107.789 49.3691H106.893L106.893 194.629H107.789Z" fill="#E6E6E6"/>
<path d="M99.9701 118.651C101.591 118.651 102.905 117.334 102.905 115.71C102.905 114.086 101.591 112.77 99.9701 112.77C98.3492 112.77 97.0352 114.086 97.0352 115.71C97.0352 117.334 98.3492 118.651 99.9701 118.651Z" fill="#E6E6E6"/>
<path d="M101.122 118.042C102.743 118.042 104.057 116.725 104.057 115.101C104.057 113.477 102.743 112.16 101.122 112.16C99.5015 112.16 98.1875 113.477 98.1875 115.101C98.1875 116.725 99.5015 118.042 101.122 118.042Z" fill="#FAFAFA"/>
<path d="M255.737 29.7031H209.254V117.19H255.737V29.7031Z" fill="#E0E0E0"/>
<path d="M257.725 29.7031H211.242V117.19H257.725V29.7031Z" fill="#F5F5F5"/>
<path d="M254.156 113.339V33.5527H214.801V113.339H254.156Z" fill="#FAFAFA"/>
<path d="M254.16 113.339V33.5527H252.661V113.339H254.16Z" fill="#E0E0E0"/>
<path d="M256.251 90.2344H212.715V95.4023H256.251V90.2344Z" fill="#F5F5F5"/>
<path d="M198.42 29.7031H151.938V117.19H198.42V29.7031Z" fill="#E0E0E0"/>
<path d="M200.401 29.7031H153.918V117.19H200.401V29.7031Z" fill="#F5F5F5"/>
<path d="M196.84 113.335V33.5488H157.485V113.335H196.84Z" fill="#FAFAFA"/>
<path d="M196.84 113.339V33.5527H195.341V113.339H196.84Z" fill="#E0E0E0"/>
<path d="M198.927 90.2344H155.391V95.4023H198.927V90.2344Z" fill="#F5F5F5"/>
<path d="M91.6132 39.2218L91.0905 39.7455H65.4453V29.7031L91.6132 39.2218Z" fill="#E0E0E0"/>
<path d="M66.439 39.2218H91.6132L90.6253 29.7031H65.4453L66.439 39.2218Z" fill="#F5F5F5"/>
<path d="M117.91 121.148H128.766V110.272H117.91V121.148Z" fill="#EBEBEB"/>
<path d="M117.918 110.273H117.551V121.15H117.918V110.273Z" fill="#E0E0E0"/>
<path d="M127.759 119.077L127.368 119.468H119.293V112.01L127.759 119.077Z" fill="#E0E0E0"/>
<path d="M120.028 119.077H127.759L127.03 112.01H119.293L120.028 119.077Z" fill="#FAFAFA"/>
<path d="M133.418 135.405L138.874 130.467L144.325 135.405V198.156H133.418V135.405Z" fill="#F0F0F0"/>
<path d="M152.316 135.405L157.767 130.467L163.224 135.405V198.156H152.316V135.405Z" fill="#F0F0F0"/>
<path d="M171.215 135.405L176.671 130.467L182.122 135.405V198.156H171.215V135.405Z" fill="#F0F0F0"/>
<path d="M190.121 135.405L195.572 130.467L201.022 135.405V198.156H190.121V135.405Z" fill="#F0F0F0"/>
<path d="M209.012 135.405L214.468 130.467L219.919 135.405V198.156H209.012V135.405Z" fill="#F0F0F0"/>
<path d="M227.918 135.405L233.369 130.467L238.819 135.405V198.156H227.918V135.405Z" fill="#F0F0F0"/>
<path d="M246.809 135.405L252.265 130.467L257.716 135.405V198.156H246.809V135.405Z" fill="#F0F0F0"/>
<path d="M138.866 147.316H252.262V144.531H138.866V147.316Z" fill="#F0F0F0"/>
<path d="M138.866 180.281H252.262V177.496H138.866V180.281Z" fill="#F0F0F0"/>
<path d="M143.585 224C205.089 224 254.948 221.083 254.948 217.485C254.948 213.887 205.089 210.971 143.585 210.971C82.0815 210.971 32.2227 213.887 32.2227 217.485C32.2227 221.083 82.0815 224 143.585 224Z" fill="#F5F5F5"/>
<path d="M202.14 87.166L202.445 87.425L202.807 87.7127C203.048 87.9084 203.306 88.1041 203.559 88.2882C204.076 88.6623 204.604 89.0306 205.156 89.3644C206.249 90.0573 207.387 90.6763 208.562 91.2175C209.743 91.7487 210.953 92.2136 212.186 92.6102C212.812 92.7771 213.427 92.9842 214.064 93.1108L215.018 93.318H215.132C215.132 93.318 215.132 93.318 215.104 93.318C215.075 93.318 215.046 93.3813 215.104 93.318C215.221 93.1921 215.314 93.0458 215.379 92.8864C215.601 92.3789 215.758 91.8452 215.845 91.298C216.049 90.0132 216.154 88.7145 216.161 87.4135C216.161 86.0726 216.161 84.7086 216.08 83.3447C216 81.9808 215.914 80.5939 215.799 79.2415L217.809 78.8789C218.504 81.6483 218.973 84.4699 219.21 87.3156C219.345 88.7973 219.345 90.2882 219.21 91.7699C219.131 92.608 218.949 93.4332 218.671 94.2273C218.492 94.7217 218.238 95.1856 217.918 95.6027C217.502 96.1536 216.936 96.5715 216.287 96.8055C215.79 96.9824 215.261 97.0492 214.736 97.0012L214.501 96.9724H214.363L213.266 96.794C212.531 96.6846 211.813 96.489 211.083 96.3336C209.644 95.9665 208.235 95.4914 206.867 94.9121C205.498 94.3293 204.174 93.6465 202.904 92.8691C202.267 92.4835 201.652 92.0577 201.043 91.6146C200.739 91.3901 200.44 91.1599 200.142 90.9182C199.992 90.7974 199.849 90.6707 199.699 90.5384C199.55 90.406 199.418 90.2909 199.223 90.1068L202.14 87.166Z" fill="#FFBE9D"/>
<path d="M196.38 84.7503C202.198 83.9561 206.896 88.6694 206.896 88.6694L202.554 96.0703C202.554 96.0703 195.857 93.2446 194.846 90.7412C193.801 88.1515 193.393 85.1532 196.38 84.7503Z" fill="#458CF5"/>
<path d="M216.344 80.329L213.156 77.3825L217.883 75.5352C217.883 75.5352 219.382 78.0673 218.17 80.5995L216.344 80.329Z" fill="#FFBE9D"/>
<path d="M212.512 73.1588L216.274 72.4395L217.882 75.5356L213.155 77.3829L212.512 73.1588Z" fill="#FFBE9D"/>
<path d="M175.754 213.072L180.441 213.533L185.323 202.351L180.636 201.891L175.754 213.072Z" fill="#FFBE9D"/>
<path d="M145.555 196.545L149.076 199.86L156.674 191.487L153.153 188.178L145.555 196.545Z" fill="#FFBE9D"/>
<path d="M150.703 198.271L148.055 193.495C148.011 193.412 147.938 193.348 147.85 193.315C147.763 193.283 147.666 193.283 147.578 193.316L143.506 194.87C143.405 194.912 143.314 194.975 143.238 195.055C143.163 195.135 143.106 195.23 143.07 195.334C143.034 195.438 143.021 195.549 143.03 195.658C143.04 195.768 143.073 195.874 143.127 195.969C144.081 197.621 144.621 198.369 145.781 200.47C146.499 201.759 147.894 204.723 148.882 206.507C149.87 208.291 151.685 207.41 151.432 206.576C150.284 202.847 150.513 200.769 150.858 199.123C150.907 198.83 150.852 198.529 150.703 198.271Z" fill="#263238"/>
<path d="M181.063 212.082H175.319C175.216 212.083 175.116 212.118 175.034 212.182C174.952 212.245 174.893 212.333 174.865 212.433L173.613 216.997C173.583 217.105 173.578 217.219 173.599 217.329C173.62 217.439 173.667 217.543 173.736 217.631C173.805 217.72 173.894 217.791 173.995 217.839C174.097 217.886 174.208 217.91 174.32 217.906C176.347 217.906 177.306 217.906 179.839 217.906H187.576C189.684 217.906 190.12 215.777 189.253 215.604C185.348 214.741 183.096 213.544 181.896 212.41C181.672 212.196 181.373 212.078 181.063 212.082Z" fill="#263238"/>
<path d="M185.31 202.357L182.8 208.118H177.906L180.623 201.896L185.31 202.357Z" fill="#E29893"/>
<path d="M153.152 188.178L156.678 191.493L152.755 195.803L149.234 192.488L153.152 188.178Z" fill="#E29893"/>
<path d="M201.352 85.2898C201.352 85.2898 203.454 86.2221 196.39 114.249L176.752 112.522C177.775 104.54 178.211 99.6023 175.805 82.8382C178.605 82.5107 181.424 82.3857 184.242 82.4641C187.229 82.5152 190.207 82.7806 193.156 83.2583C195.92 83.7975 198.656 84.4755 201.352 85.2898Z" fill="#458CF5"/>
<path d="M184.247 82.488C184.247 82.488 183.133 82.3672 181.818 82.3672C181.025 83.593 183.432 88.2487 187.682 91.7477C188.634 90.1382 189.843 88.6957 191.26 87.4776L184.247 82.488Z" fill="#FAFAFA"/>
<path d="M193.161 83.2598C193.729 83.2955 194.293 83.3861 194.844 83.5302C195.636 84.756 197.17 89.0895 194.844 91.7483C193.892 90.1387 192.683 88.6963 191.266 87.4781L193.161 83.2598Z" fill="#FAFAFA"/>
<path d="M191.893 90.5963C191.893 90.9474 191.795 91.2351 191.629 91.2466C191.462 91.2582 191.319 90.9762 191.296 90.6309C191.273 90.2856 191.393 89.9863 191.56 89.9806C191.727 89.9748 191.876 90.2453 191.893 90.5963Z" fill="#FAFAFA"/>
<path d="M191.832 93.2617C191.832 93.607 191.683 93.889 191.516 93.889C191.349 93.889 191.229 93.5955 191.235 93.2445C191.24 92.8934 191.384 92.6172 191.55 92.6172C191.717 92.6172 191.861 92.9107 191.832 93.2617Z" fill="#FAFAFA"/>
<path d="M185.997 72.5039C186.312 75.4274 186.416 80.745 184.273 82.4887C186.376 84.4481 188.724 86.1253 191.258 87.4782C194.669 85.1187 193.159 83.2599 193.159 83.2599C190.029 82.2182 190.316 79.8472 191.062 77.6603L185.997 72.5039Z" fill="#FFBE9D"/>
<path d="M188.068 74.627L191.067 77.6771C190.885 78.1844 190.747 78.7061 190.653 79.2366C189.447 78.9547 187.701 77.7001 187.684 76.4052C187.704 75.794 187.834 75.1915 188.068 74.627Z" fill="#E29893"/>
<path d="M191.727 63.8423C191.727 63.8423 194.909 66.9729 195.609 68.498C197.539 69.2174 197.016 64.1243 195.552 61.1777C192.979 63.4739 191.727 63.8423 191.727 63.8423Z" fill="#263238"/>
<path d="M183.429 67.9348C184.647 72.6078 185.06 74.6105 187.921 76.5672C192.217 79.508 197.685 76.9873 197.874 72.0496C198.058 67.601 196.036 60.7124 191.051 59.7455C189.953 59.5249 188.816 59.5895 187.75 59.9332C186.684 60.2768 185.723 60.8881 184.959 61.7089C184.195 62.5297 183.653 63.5327 183.386 64.6224C183.118 65.7122 183.133 66.8525 183.429 67.9348Z" fill="#FFBE9D"/>
<path d="M194.005 61.966C196.142 62.2825 198.273 60.2798 194.815 58.1332C195.924 58.0181 197.113 54.1047 193.092 54.3177C192.897 52.4588 188.917 50.8014 186.774 53.7422C184.299 52.1078 180.784 53.7767 181.571 56.3146C178.727 56.493 177.246 60.3833 179.595 61.0164C176.769 62.7429 176.275 65.534 179.02 66.0404C179.399 69.269 185.712 67.8245 185.223 64.8204C186.372 65.4362 189.979 64.1125 189.244 62.5184C190.41 64.0205 194.005 63.3356 194.005 61.966Z" fill="#263238"/>
<path d="M180.922 66.0752C180.922 66.0752 183.265 69.8734 183.575 71.5251C185.298 72.6761 185.993 67.6175 185.298 64.4062C182.214 65.9946 180.922 66.0752 180.922 66.0752Z" fill="#263238"/>
<path d="M183.047 72.1518C183.483 72.9774 184.226 73.5976 185.115 73.8783C186.298 74.2293 186.913 73.1762 186.608 72.0482C186.327 71.0296 185.379 69.6196 184.184 69.7462C183.923 69.7818 183.675 69.8822 183.462 70.0383C183.249 70.1944 183.078 70.4013 182.965 70.6402C182.852 70.8791 182.801 71.1425 182.815 71.4064C182.829 71.6704 182.909 71.9266 183.047 72.1518Z" fill="#FFBE9D"/>
<path d="M196.397 114.249C196.397 114.249 203.042 143.697 198.602 164.455C195.633 178.359 184.921 206.466 184.921 206.466L176.547 206.247C176.547 206.247 184.657 176.771 186.311 165.18C189.183 145.349 181.992 113.018 181.992 113.018L196.397 114.249Z" fill="#458CF5"/>
<path opacity="0.6" d="M196.397 114.249C196.397 114.249 203.042 143.697 198.602 164.455C195.633 178.359 184.921 206.466 184.921 206.466L176.547 206.247C176.547 206.247 184.657 176.771 186.311 165.18C189.183 145.349 181.992 113.018 181.992 113.018L196.397 114.249Z" fill="#FAFAFA"/>
<path d="M188.73 120.195L184.543 126.813C185.804 134.661 186.603 142.576 186.938 150.518C192.825 139.952 190.04 125.789 188.73 120.195Z" fill="#458CF5"/>
<path opacity="0.4" d="M188.73 120.195L184.543 126.813C185.804 134.661 186.603 142.576 186.938 150.518C192.825 139.952 190.04 125.789 188.73 120.195Z" fill="#FAFAFA"/>
<path d="M186.104 206.881L175.754 206.622L176.357 203.434L187.649 203.969L186.104 206.881Z" fill="#458CF5"/>
<path d="M192.098 113.932C192.098 113.932 188.204 145.164 179.755 162.21C172.932 175.982 154.719 195.589 154.719 195.589L150.066 190.783C150.066 190.783 162.363 169.49 167.435 160.328C179.87 137.884 169.733 120.781 176.757 112.562L192.098 113.932Z" fill="#458CF5"/>
<path opacity="0.6" d="M192.098 113.932C192.098 113.932 188.204 145.164 179.755 162.21C172.932 175.982 154.719 195.589 154.719 195.589L150.066 190.783C150.066 190.783 162.363 169.49 167.435 160.328C179.87 137.884 169.733 120.781 176.757 112.562L192.098 113.932Z" fill="#FAFAFA"/>
<path d="M155.191 196.227L149.184 190.363L151.177 187.641L157.724 194.426L155.191 196.227Z" fill="#458CF5"/>
<path d="M176.561 111.366L175.522 113.046C175.441 113.179 175.596 113.334 175.82 113.351L196.411 115.135C196.589 115.135 196.744 115.078 196.767 114.968L197.094 113.242C197.094 113.121 196.974 113 196.779 112.983L176.894 111.256C176.834 111.245 176.772 111.249 176.714 111.268C176.655 111.287 176.603 111.321 176.561 111.366Z" fill="#263238"/>
<path d="M179.044 113.823L178.509 113.777C178.4 113.777 178.326 113.708 178.337 113.639L178.785 111.372C178.785 111.308 178.9 111.262 179.003 111.268L179.538 111.314C179.641 111.314 179.716 111.389 179.704 111.452L179.256 113.72C179.245 113.789 179.147 113.835 179.044 113.823Z" fill="#458CF5"/>
<path opacity="0.6" d="M179.044 113.823L178.509 113.777C178.4 113.777 178.326 113.708 178.337 113.639L178.785 111.372C178.785 111.308 178.9 111.262 179.003 111.268L179.538 111.314C179.641 111.314 179.716 111.389 179.704 111.452L179.256 113.72C179.245 113.789 179.147 113.835 179.044 113.823Z" fill="#FAFAFA"/>
<path d="M194.897 115.2L194.363 115.154C194.26 115.154 194.185 115.085 194.196 115.016L194.644 112.749C194.644 112.685 194.754 112.639 194.857 112.645L195.391 112.691C195.5 112.691 195.575 112.766 195.563 112.829L195.115 115.097C195.095 115.135 195.063 115.166 195.024 115.185C194.984 115.204 194.94 115.209 194.897 115.2Z" fill="#458CF5"/>
<path opacity="0.6" d="M194.897 115.2L194.363 115.154C194.26 115.154 194.185 115.085 194.196 115.016L194.644 112.749C194.644 112.685 194.754 112.639 194.857 112.645L195.391 112.691C195.5 112.691 195.575 112.766 195.563 112.829L195.115 115.097C195.095 115.135 195.063 115.166 195.024 115.185C194.984 115.204 194.94 115.209 194.897 115.2Z" fill="#FAFAFA"/>
<path d="M186.971 114.514L186.443 114.468C186.334 114.468 186.259 114.393 186.271 114.33L186.719 112.062C186.719 111.993 186.828 111.947 186.937 111.959L187.465 112.005C187.575 112.005 187.649 112.074 187.638 112.143L187.19 114.405C187.178 114.474 187.081 114.52 186.971 114.514Z" fill="#458CF5"/>
<path opacity="0.6" d="M186.971 114.514L186.443 114.468C186.334 114.468 186.259 114.393 186.271 114.33L186.719 112.062C186.719 111.993 186.828 111.947 186.937 111.959L187.465 112.005C187.575 112.005 187.649 112.074 187.638 112.143L187.19 114.405C187.178 114.474 187.081 114.52 186.971 114.514Z" fill="#FAFAFA"/>
<path d="M190.843 67.8482C190.918 68.2338 191.182 68.5043 191.417 68.4525C191.653 68.4007 191.808 68.0554 191.733 67.6698C191.659 67.2842 191.394 67.0138 191.159 67.0598C190.924 67.1058 190.768 67.4626 190.843 67.8482Z" fill="#263238"/>
<path d="M195.189 66.9908C195.264 67.3764 195.528 67.6469 195.763 67.6008C195.999 67.5548 196.154 67.198 196.079 66.8124C196.005 66.4268 195.74 66.1563 195.505 66.2369C195.269 66.3175 195.109 66.6052 195.189 66.9908Z" fill="#263238"/>
<path d="M195.395 66.2477L196.268 65.7988C196.268 65.7988 195.934 66.616 195.395 66.2477Z" fill="#263238"/>
<path d="M194.168 67.8828C194.685 68.6909 195.309 69.4247 196.023 70.0639C195.855 70.2432 195.649 70.3834 195.421 70.4749C195.193 70.5663 194.947 70.6068 194.702 70.5934L194.168 67.8828Z" fill="#F1A3A2"/>
<path d="M192.926 72.4288C192.117 72.4395 191.334 72.1411 190.737 71.5944C190.72 71.5754 190.711 71.5508 190.711 71.5253C190.711 71.4998 190.72 71.4753 190.737 71.4563C190.756 71.438 190.78 71.4277 190.806 71.4277C190.832 71.4277 190.857 71.438 190.875 71.4563C191.243 71.7794 191.682 72.0116 192.155 72.1346C192.629 72.2575 193.125 72.2676 193.603 72.1641C193.628 72.159 193.655 72.164 193.676 72.178C193.698 72.192 193.713 72.2139 193.718 72.2389C193.721 72.2511 193.721 72.2635 193.718 72.2757C193.716 72.2878 193.711 72.2993 193.704 72.3095C193.697 72.3197 193.688 72.3284 193.678 72.3351C193.667 72.3417 193.656 72.3462 193.644 72.3483C193.408 72.3993 193.167 72.4263 192.926 72.4288Z" fill="#263238"/>
<path d="M188.708 65.4201C188.675 65.4275 188.642 65.4275 188.61 65.4201C188.567 65.3929 188.537 65.35 188.525 65.3006C188.513 65.2512 188.521 65.1991 188.547 65.1554C188.723 64.8435 188.972 64.5787 189.271 64.3834C189.571 64.1881 189.914 64.068 190.27 64.0332C190.32 64.0331 190.368 64.0522 190.404 64.0864C190.44 64.1206 190.462 64.1675 190.465 64.2174C190.466 64.2423 190.462 64.2672 190.453 64.2905C190.444 64.3138 190.431 64.3352 190.414 64.3534C190.397 64.3715 190.376 64.3862 190.353 64.3964C190.331 64.4066 190.306 64.4123 190.281 64.413C189.988 64.4466 189.707 64.5491 189.46 64.7121C189.214 64.875 189.009 65.094 188.863 65.3511C188.844 65.3742 188.821 65.3926 188.794 65.4046C188.767 65.4166 188.737 65.422 188.708 65.4201Z" fill="#263238"/>
<path d="M196.868 64.7408C196.837 64.7486 196.806 64.7486 196.776 64.7408C196.519 64.5845 196.228 64.4929 195.928 64.4738C195.627 64.4548 195.327 64.5089 195.053 64.6315C195.007 64.6541 194.955 64.6584 194.907 64.6433C194.859 64.6283 194.818 64.5952 194.794 64.5509C194.772 64.5057 194.767 64.4535 194.782 64.4052C194.797 64.3569 194.83 64.3163 194.875 64.2919C195.201 64.144 195.559 64.0772 195.917 64.0972C196.275 64.1173 196.622 64.2235 196.931 64.407C196.953 64.4191 196.972 64.4353 196.988 64.4549C197.003 64.4744 197.015 64.4969 197.022 64.521C197.029 64.545 197.031 64.5702 197.028 64.5951C197.025 64.62 197.018 64.6441 197.005 64.666C196.989 64.6879 196.969 64.7059 196.945 64.7189C196.921 64.7318 196.895 64.7393 196.868 64.7408Z" fill="#263238"/>
<path d="M177.302 89.9055C176.504 91.5015 175.618 93.052 174.649 94.5497C173.684 96.0345 172.661 97.4732 171.564 98.8717C170.453 100.267 169.261 101.595 167.992 102.848C167.343 103.47 166.694 104.091 165.993 104.667L165.476 105.11C165.233 105.309 164.976 105.49 164.706 105.651C164.044 106.042 163.287 106.241 162.518 106.226C161.736 106.194 160.982 105.927 160.353 105.461C159.866 105.107 159.436 104.68 159.078 104.195C158.491 103.391 158.003 102.52 157.625 101.6C156.939 99.9364 156.399 98.2169 156.011 96.4604C155.246 93.0623 154.741 89.6109 154.5 86.136L156.527 85.8828C156.855 87.5172 157.205 89.1861 157.613 90.8205C158.021 92.4549 158.434 94.0836 158.934 95.6604C159.399 97.2114 159.975 98.7269 160.657 100.195C160.968 100.843 161.353 101.451 161.806 102.008C161.971 102.203 162.165 102.372 162.38 102.509C162.541 102.601 162.593 102.584 162.598 102.572C162.681 102.547 162.759 102.508 162.828 102.457C162.903 102.405 162.995 102.33 163.092 102.25L163.529 101.835C164.103 101.3 164.678 100.713 165.252 100.109C166.355 98.9177 167.377 97.6401 168.377 96.3453C169.376 95.0504 170.289 93.6692 171.162 92.2708C171.604 91.5802 172.029 90.8723 172.449 90.1587C172.868 89.4451 173.264 88.7085 173.597 88.0409L177.302 89.9055Z" fill="#FFBE9D"/>
<path d="M157.425 86.5917L156.914 82.2812L152.652 85.0321C152.652 85.0321 154.048 87.3341 155.978 87.9556L157.425 86.5917Z" fill="#FFBE9D"/>
<path d="M155.34 80.5312L152.555 83.167L152.658 85.0316L156.92 82.2808L155.34 80.5312Z" fill="#FFBE9D"/>
<path d="M175.809 82.8627C173.403 83.2943 170.031 90.2117 170.031 90.2117L176.102 95.7077C176.102 95.7077 180.927 90.4362 180.668 87.294C180.45 84.6237 178.876 82.3217 175.809 82.8627Z" fill="#458CF5"/>
<path d="M151.631 200.838C151.568 200.838 151.506 200.826 151.447 200.803C150.873 200.613 150.494 199.543 150.299 198.921C150.295 198.903 150.297 198.885 150.303 198.868C150.309 198.851 150.319 198.835 150.333 198.823C150.349 198.814 150.367 198.809 150.385 198.809C150.403 198.809 150.421 198.814 150.436 198.823C150.615 198.916 152.16 199.738 152.2 200.348C152.206 200.414 152.194 200.481 152.166 200.54C152.138 200.6 152.094 200.651 152.039 200.688C151.923 200.781 151.78 200.833 151.631 200.838ZM150.569 199.111C150.833 199.963 151.177 200.533 151.505 200.642C151.58 200.663 151.659 200.665 151.735 200.648C151.812 200.631 151.882 200.595 151.941 200.544C151.97 200.526 151.994 200.501 152.009 200.47C152.024 200.44 152.03 200.405 152.027 200.372C151.999 199.98 151.097 199.393 150.569 199.094V199.111Z" fill="#458CF5"/>
<path d="M151.869 199.335C151.345 199.333 150.828 199.211 150.358 198.978C150.344 198.97 150.333 198.958 150.325 198.944C150.317 198.93 150.312 198.914 150.313 198.898C150.312 198.88 150.317 198.864 150.325 198.849C150.333 198.834 150.344 198.821 150.358 198.811C150.41 198.782 151.628 198.115 152.283 198.345C152.365 198.372 152.44 198.416 152.503 198.476C152.566 198.536 152.614 198.609 152.644 198.69C152.684 198.767 152.698 198.856 152.682 198.941C152.666 199.027 152.623 199.104 152.558 199.162C152.352 199.291 152.111 199.352 151.869 199.335ZM150.617 198.898C151.14 199.122 152.15 199.26 152.432 199.013C152.478 198.972 152.53 198.909 152.466 198.759C152.446 198.705 152.413 198.655 152.37 198.615C152.327 198.575 152.275 198.546 152.219 198.529C151.777 198.357 150.962 198.725 150.617 198.898Z" fill="#458CF5"/>
<path d="M183.618 213.016C183.088 213.003 182.56 212.935 182.044 212.814C182.025 212.811 182.007 212.801 181.993 212.786C181.98 212.772 181.972 212.753 181.969 212.734C181.967 212.714 181.971 212.694 181.98 212.677C181.989 212.659 182.004 212.645 182.021 212.636C182.262 212.521 184.353 211.56 184.893 211.911C184.94 211.944 184.978 211.989 185.002 212.042C185.026 212.094 185.036 212.152 185.031 212.21C185.026 212.316 184.998 212.42 184.949 212.513C184.899 212.607 184.829 212.688 184.744 212.751C184.405 212.954 184.011 213.047 183.618 213.016ZM182.371 212.688C182.992 212.803 184.14 212.952 184.611 212.596C184.675 212.551 184.727 212.491 184.763 212.422C184.799 212.353 184.818 212.276 184.818 212.198C184.818 212.118 184.818 212.089 184.767 212.072C184.474 211.87 183.216 212.302 182.371 212.688Z" fill="#458CF5"/>
<path d="M182.068 212.82C182.047 212.825 182.026 212.825 182.005 212.82C181.991 212.808 181.981 212.793 181.975 212.775C181.969 212.758 181.967 212.74 181.971 212.722C181.971 212.636 182.482 210.564 183.602 210.702C183.883 210.736 183.964 210.88 183.975 210.99C184.05 211.519 182.729 212.578 182.103 212.831L182.068 212.82ZM183.498 210.863C182.775 210.863 182.35 212.066 182.212 212.549C182.889 212.192 183.831 211.329 183.785 210.995C183.785 210.995 183.786 210.892 183.579 210.869L183.498 210.863Z" fill="#458CF5"/>
<path d="M191.055 67.1051L191.922 66.6562C191.922 66.6562 191.589 67.4734 191.055 67.1051Z" fill="#263238"/>
<path d="M70.9562 68.2955C76.0481 63.179 82.0991 59.1214 88.7614 56.356C95.4237 53.5906 102.566 52.172 109.777 52.1817H117.548C117.548 52.1817 154.21 61.7982 154.21 101.15C154.21 139.616 128.829 173.662 117.554 184.977H109.789L70.9562 146.068C60.6691 135.751 54.8906 121.765 54.8906 107.182C54.8906 92.5984 60.6691 78.6118 70.9562 68.2955ZM109.783 132.751C114.825 132.751 119.753 131.253 123.945 128.446C128.137 125.639 131.404 121.65 133.333 116.983C135.262 112.316 135.767 107.18 134.783 102.225C133.799 97.271 131.371 92.7201 127.805 89.1485C124.24 85.5768 119.697 83.1448 114.752 82.16C109.807 81.1752 104.682 81.6818 100.024 83.6157C95.3667 85.5497 91.3861 88.8242 88.5859 93.025C85.7857 97.2259 84.2917 102.164 84.2928 107.216C84.3065 113.981 86.9981 120.464 91.7769 125.242C96.5558 130.021 103.031 132.705 109.783 132.705V132.751Z" fill="white"/>
<path d="M157.382 67.2541C155.109 64.9786 152.65 62.8976 150.031 61.033L150.358 60.5611C153.007 62.4456 155.493 64.5497 157.79 66.8512L157.382 67.2541ZM146.596 58.7828C145.246 57.9656 143.845 57.1944 142.438 56.4808L142.69 55.9629C144.115 56.6707 145.528 57.4477 146.895 58.2649L146.596 58.7828Z" fill="#458CF5"/>
<path d="M78.7218 68.2961C89.0806 58.3031 102.939 52.781 117.318 52.9165C131.697 53.052 145.449 58.8343 155.618 69.0208C165.787 79.2072 171.562 92.9845 171.702 107.392C171.841 121.799 166.334 135.686 156.364 146.068L117.554 184.96L78.7218 146.051C68.4372 135.737 62.6602 121.753 62.6602 107.173C62.6602 92.5936 68.4372 78.6102 78.7218 68.2961ZM117.549 132.751C122.59 132.751 127.519 131.253 131.711 128.447C135.903 125.64 139.17 121.651 141.099 116.983C143.028 112.316 143.533 107.181 142.549 102.226C141.565 97.2716 139.136 92.7208 135.571 89.1491C132.005 85.5775 127.463 83.1454 122.518 82.1606C117.573 81.1758 112.448 81.6824 107.79 83.6163C103.132 85.5503 99.1518 88.8248 96.3516 93.0256C93.5514 97.2265 92.0574 102.165 92.0585 107.217C92.0722 113.981 94.7638 120.464 99.5426 125.243C104.321 130.021 110.797 132.705 117.549 132.705V132.751Z" fill="#458CF5"/>
<g style="mix-blend-mode:color-dodge" opacity="0.4">
<path d="M117.558 181.846C117.538 181.845 117.519 181.841 117.501 181.833C117.484 181.825 117.468 181.814 117.454 181.8L80.2474 144.525C72.8741 137.134 67.8535 127.718 65.8204 117.469C63.7872 107.219 64.8329 96.5955 68.8251 86.9412C72.8174 77.2869 79.5769 69.0354 88.2491 63.2301C96.9213 57.4247 107.117 54.3262 117.546 54.3262C127.976 54.3262 138.171 57.4247 146.844 63.2301C155.516 69.0354 162.275 77.2869 166.268 86.9412C170.26 96.5955 171.306 107.219 169.272 117.469C167.239 127.718 162.219 137.134 154.845 144.525L117.656 181.782C117.645 181.8 117.631 181.814 117.614 181.825C117.597 181.836 117.578 181.843 117.558 181.846ZM117.558 54.6099C107.185 54.6118 97.0458 57.6952 88.4218 63.4704C79.7979 69.2456 73.0766 77.4532 69.1077 87.0555C65.1389 96.6578 64.1007 107.224 66.1244 117.417C68.1481 127.611 73.1429 136.974 80.4772 144.323L117.581 181.495L154.667 144.341L154.765 144.439L154.667 144.341C162.001 136.987 166.994 127.62 169.015 117.424C171.037 107.228 169.996 96.6598 166.024 87.0562C162.052 77.4525 155.328 69.2443 146.702 63.4691C138.075 57.6938 127.933 54.6109 117.558 54.6099ZM117.558 135.179C112.033 135.179 106.633 133.537 102.04 130.462C97.4462 127.387 93.8662 123.015 91.7523 117.901C89.6384 112.787 89.0856 107.16 90.1638 101.731C91.242 96.3018 93.9028 91.3151 97.8096 87.4014C101.716 83.4877 106.694 80.8227 112.112 79.7435C117.531 78.6643 123.147 79.2194 128.251 81.3385C133.354 83.4576 137.716 87.0455 140.785 91.6486C143.853 96.2516 145.49 101.663 145.489 107.198C145.472 114.614 142.522 121.72 137.286 126.959C132.049 132.198 124.953 135.144 117.552 135.15L117.558 135.179ZM117.558 79.5C112.09 79.5 106.746 81.1245 102.2 84.168C97.6537 87.2116 94.1105 91.5375 92.0182 96.5987C89.9259 101.66 89.3784 107.229 90.4451 112.602C91.5117 117.975 94.1446 122.911 98.0106 126.784C101.877 130.658 106.802 133.296 112.165 134.365C117.527 135.433 123.085 134.885 128.137 132.788C133.188 130.692 137.505 127.142 140.543 122.587C143.581 118.032 145.202 112.677 145.202 107.198C145.202 99.8487 142.289 92.7997 137.105 87.6005C131.92 82.4013 124.887 79.4773 117.552 79.4712L117.558 79.5Z" fill="#FAFAFA"/>
</g>
</svg>
