<svg width="18" height="18" viewBox="0 0 18 18" fill="none" xmlns="http://www.w3.org/2000/svg">
<g clip-path="url(#clip0_11434_29283)">
<path d="M9 13.8635L12.1823 10.682C12.8115 10.0527 13.24 9.25084 13.4136 8.37795C13.5872 7.50505 13.498 6.60029 13.1574 5.77807C12.8168 4.95585 12.24 4.25309 11.5 3.75865C10.76 3.26422 9.88999 3.00032 9 3.00032C8.11002 3.00032 7.24002 3.26422 6.50002 3.75865C5.76001 4.25309 5.18323 4.95585 4.84262 5.77807C4.502 6.60029 4.41284 7.50505 4.58641 8.37795C4.75998 9.25084 5.18849 10.0527 5.81775 10.682L9 13.8635ZM13.2428 11.7425L9 15.9853L4.75725 11.7425C3.91817 10.9034 3.34675 9.83431 3.11527 8.67043C2.88378 7.50655 3.00262 6.30017 3.45676 5.20383C3.91089 4.10749 4.67993 3.17044 5.66661 2.51116C6.6533 1.85189 7.81333 1.5 9 1.5C10.1867 1.5 11.3467 1.85189 12.3334 2.51116C13.3201 3.17044 14.0891 4.10749 14.5433 5.20383C14.9974 6.30017 15.1162 7.50655 14.8847 8.67043C14.6533 9.83431 14.0818 10.9034 13.2428 11.7425ZM3.75 16.4998H14.25V17.9998H3.75V16.4998Z" fill="#9E9EA8"/>
</g>
<defs>
<clipPath id="clip0_11434_29283">
<rect width="18" height="18" fill="white"/>
</clipPath>
</defs>
</svg>
