<svg width="16" height="16" viewBox="0 0 16 16" fill="none" xmlns="http://www.w3.org/2000/svg">
<g clip-path="url(#clip0_8302_38152)">
<path d="M7.9987 14.6673C4.3167 14.6673 1.33203 11.6827 1.33203 8.00065C1.33203 4.31865 4.3167 1.33398 7.9987 1.33398C11.6807 1.33398 14.6654 4.31865 14.6654 8.00065C14.6654 11.6827 11.6807 14.6673 7.9987 14.6673ZM7.9987 13.334C9.41319 13.334 10.7697 12.7721 11.7699 11.7719C12.7701 10.7717 13.332 9.41514 13.332 8.00065C13.332 6.58616 12.7701 5.22961 11.7699 4.22941C10.7697 3.22922 9.41319 2.66732 7.9987 2.66732C6.58421 2.66732 5.22766 3.22922 4.22746 4.22941C3.22727 5.22961 2.66536 6.58616 2.66536 8.00065C2.66536 9.41514 3.22727 10.7717 4.22746 11.7719C5.22766 12.7721 6.58421 13.334 7.9987 13.334ZM7.9987 7.05798L9.88403 5.17198L10.8274 6.11532L8.94136 8.00065L10.8274 9.88598L9.88403 10.8293L7.9987 8.94332L6.11336 10.8293L5.17003 9.88598L7.05603 8.00065L5.17003 6.11532L6.11336 5.17198L7.9987 7.05798Z" fill="black"/>
</g>
<defs>
<clipPath id="clip0_8302_38152">
<rect width="16" height="16" fill="white"/>
</clipPath>
</defs>
</svg>
