<svg width="16" height="16" viewBox="0 0 16 16" fill="none" xmlns="http://www.w3.org/2000/svg">
<g clip-path="url(#clip0_8302_38137)">
<path d="M0.667969 9.66684C0.667559 8.93048 0.854917 8.20617 1.21234 7.56237C1.56976 6.91857 2.08543 6.37654 2.71064 5.9875C2.87564 4.70089 3.50383 3.5185 4.47765 2.66161C5.45146 1.80471 6.70416 1.33203 8.0013 1.33203C9.29845 1.33203 10.5511 1.80471 11.525 2.66161C12.4988 3.5185 13.127 4.70089 13.292 5.9875C14.0675 6.46996 14.6707 7.18511 15.0155 8.03082C15.3603 8.87654 15.4291 9.80959 15.2121 10.6967C14.995 11.5839 14.5032 12.3798 13.8069 12.9707C13.1105 13.5617 12.2453 13.9176 11.3346 13.9875L4.66797 14.0002C2.43064 13.8175 0.667969 11.9482 0.667969 9.66684ZM11.2333 12.6582C11.8639 12.6097 12.463 12.3632 12.945 11.9539C13.4271 11.5445 13.7675 10.9933 13.9176 10.379C14.0677 9.76465 14.0198 9.11859 13.7808 8.53309C13.5417 7.94759 13.1238 7.4526 12.5866 7.11884L12.0486 6.7835L11.9686 6.1555C11.844 5.19129 11.3726 4.30546 10.6424 3.66356C9.91215 3.02166 8.9732 2.66763 8.00097 2.66763C7.02874 2.66763 6.08978 3.02166 5.35958 3.66356C4.62939 4.30546 4.15792 5.19129 4.0333 6.1555L3.9533 6.7835L3.41664 7.11884C2.8795 7.45257 2.46156 7.9475 2.2225 8.53294C1.98344 9.11838 1.9355 9.76439 2.08551 10.3787C2.23552 10.993 2.57582 11.5442 3.0578 11.9536C3.53979 12.363 4.1388 12.6096 4.7693 12.6582L4.88464 12.6668H11.118L11.2333 12.6582ZM8.66797 8.00017H10.668L8.0013 11.3335L5.33464 8.00017H7.33464V5.3335H8.66797V8.00017Z" fill="#15151A"/>
</g>
<defs>
<clipPath id="clip0_8302_38137">
<rect width="16" height="16" fill="white"/>
</clipPath>
</defs>
</svg>
