<svg width="24" height="24" viewBox="0 0 24 24" fill="none" xmlns="http://www.w3.org/2000/svg">
<g clip-path="url(#clip0_8302_42009)">
<path d="M7.5 19.1607V17.6607H9V7.03698C9 6.67398 9.2595 6.36348 9.61575 6.29898L16.7198 5.00748C16.9643 4.96248 17.1982 5.12523 17.2425 5.36973C17.2478 5.39598 17.25 5.42223 17.25 5.44998V6.40998L20.25 6.41073C20.664 6.41073 21 6.74673 21 7.16073V17.6607H22.5V19.1607H19.5V7.91073H17.25V19.1607H7.5ZM15.75 6.70773L10.5 7.66323V17.6607H15.75V6.70773ZM15 11.6607V13.1607H13.5V11.6607H15Z" fill="#15151A"/>
<path d="M4.47474 12.2388C4.2794 12.4341 4.2794 12.7507 4.47474 12.946L5.8892 14.36C6.08447 14.5552 6.08455 14.8717 5.88938 15.067L5.5358 15.4209C5.34056 15.6162 5.02388 15.6163 4.82857 15.421L2.35355 12.946C2.15829 12.7507 2.15829 12.4341 2.35355 12.2389L4.82857 9.76383C5.02388 9.56852 5.34056 9.56858 5.5358 9.76396L5.88938 10.1178C6.08455 10.3131 6.08447 10.6296 5.8892 10.8248L4.47474 12.2388Z" fill="#15151A"/>
</g>
<defs>
<clipPath id="clip0_8302_42009">
<rect width="24" height="24" fill="white"/>
</clipPath>
</defs>
</svg>
