<svg width="32" height="32" viewBox="0 0 32 32" fill="none" xmlns="http://www.w3.org/2000/svg">
<g clip-path="url(#clip0_11434_29254)">
<path d="M26.6673 29.334H24.0007V26.6673C24.0007 25.6065 23.5792 24.589 22.8291 23.8389C22.0789 23.0887 21.0615 22.6673 20.0007 22.6673H12.0007C10.9398 22.6673 9.92237 23.0887 9.17222 23.8389C8.42208 24.589 8.00065 25.6065 8.00065 26.6673V29.334H5.33398V26.6673C5.33398 24.8992 6.03636 23.2035 7.28661 21.9533C8.53685 20.703 10.2325 20.0007 12.0007 20.0007H20.0007C21.7688 20.0007 23.4645 20.703 24.7147 21.9533C25.9649 23.2035 26.6673 24.8992 26.6673 26.6673V29.334ZM16.0007 17.334C14.9501 17.334 13.9098 17.1271 12.9392 16.725C11.9686 16.323 11.0867 15.7337 10.3438 14.9908C9.60093 14.248 9.01165 13.3661 8.60961 12.3955C8.20758 11.4248 8.00065 10.3846 8.00065 9.33398C8.00065 8.28341 8.20758 7.24312 8.60961 6.27252C9.01165 5.30191 9.60093 4.42 10.3438 3.67713C11.0867 2.93426 11.9686 2.34499 12.9392 1.94295C13.9098 1.54091 14.9501 1.33398 16.0007 1.33398C18.1224 1.33398 20.1572 2.17684 21.6575 3.67713C23.1578 5.17742 24.0007 7.21225 24.0007 9.33398C24.0007 11.4557 23.1578 13.4905 21.6575 14.9908C20.1572 16.4911 18.1224 17.334 16.0007 17.334ZM16.0007 14.6673C17.4151 14.6673 18.7717 14.1054 19.7719 13.1052C20.7721 12.105 21.334 10.7485 21.334 9.33398C21.334 7.9195 20.7721 6.56294 19.7719 5.56275C18.7717 4.56255 17.4151 4.00065 16.0007 4.00065C14.5862 4.00065 13.2296 4.56255 12.2294 5.56275C11.2292 6.56294 10.6673 7.9195 10.6673 9.33398C10.6673 10.7485 11.2292 12.105 12.2294 13.1052C13.2296 14.1054 14.5862 14.6673 16.0007 14.6673Z" fill="#BBBBD9"/>
</g>
<defs>
<clipPath id="clip0_11434_29254">
<rect width="32" height="32" fill="white"/>
</clipPath>
</defs>
</svg>
