<svg width="105" height="18" viewBox="0 0 105 18" fill="none" xmlns="http://www.w3.org/2000/svg">
<g clip-path="url(#clip0_8302_41443)">
<path d="M0.117979 3.60775C0.192257 3.53347 0.297112 3.49414 0.423822 3.49414H1.68218C1.81326 3.49414 1.91376 3.53347 1.98803 3.60775C2.06231 3.68202 2.10163 3.78689 2.10163 3.9136V9.63736L4.51786 6.64878C4.6402 6.49149 4.80623 6.41282 5.02032 6.41282H6.58452C6.70686 6.41282 6.79425 6.43468 6.85542 6.48275C6.91659 6.53081 6.94718 6.59197 6.94718 6.66625C6.94718 6.74053 6.90348 6.82791 6.82047 6.93277L4.18141 9.99127L6.9865 13.5391C7.06078 13.644 7.09574 13.7314 7.09574 13.8057C7.09574 13.88 7.06515 13.9411 6.99961 13.9892C6.93407 14.0372 6.84668 14.0591 6.73308 14.0591H5.18198C4.96789 14.0591 4.79312 13.9761 4.66641 13.8057L2.84879 11.5424L2.09289 12.4075V13.6353C2.09289 13.7663 2.05793 13.8668 1.97929 13.9411C1.90501 14.0154 1.80452 14.0547 1.67345 14.0547H0.415088C0.284009 14.0547 0.18351 14.0198 0.109232 13.9411C0.0349543 13.8668 0 13.7663 0 13.6353V3.91798C0.00436929 3.78253 0.0437014 3.68202 0.117979 3.60775Z" fill="#575B63"/>
<path d="M14.3479 13.9407C14.2736 13.8664 14.2343 13.7659 14.2343 13.6348V13.2853C14.0464 13.5387 13.7362 13.7572 13.2992 13.9407C12.8623 14.1286 12.3948 14.2203 11.9011 14.2203C11.119 14.2203 10.433 14.0455 9.84749 13.696C9.262 13.3465 8.81196 12.8615 8.50611 12.2366C8.20026 11.6293 8.04297 10.9564 8.04297 10.2137C8.04297 9.45778 8.20027 8.78054 8.51049 8.17321C8.82071 7.57025 9.26637 7.08964 9.84311 6.73572C10.4199 6.38181 11.1058 6.20703 11.8967 6.20703C12.4079 6.20703 12.871 6.29441 13.2774 6.47355C13.6881 6.64832 14.0027 6.88428 14.2255 7.17265V6.79687C14.2255 6.6658 14.2605 6.5653 14.3391 6.49102C14.4134 6.41674 14.5139 6.37744 14.645 6.37744H15.8727C16.0038 6.37744 16.1043 6.41674 16.1786 6.49102C16.2529 6.5653 16.2922 6.6658 16.2922 6.79687V13.6392C16.2922 13.7703 16.2572 13.8708 16.1786 13.9451C16.1043 14.0193 16.0038 14.0586 15.8727 14.0586H14.645C14.5226 14.0499 14.4221 14.015 14.3479 13.9407ZM13.7362 8.63198C13.3517 8.23001 12.8404 8.03339 12.2069 8.03339C11.5646 8.03339 11.0534 8.23438 10.6689 8.63198C10.2888 9.03396 10.0965 9.55826 10.0965 10.2093C10.0965 10.8428 10.2932 11.3628 10.682 11.7648C11.0709 12.1711 11.5821 12.3721 12.2025 12.3721C12.8536 12.3721 13.3691 12.1798 13.7449 11.791C14.1207 11.4065 14.3085 10.8778 14.3085 10.2049C14.3173 9.55826 14.125 9.03396 13.7362 8.63198Z" fill="#575B63"/>
<path d="M18.2733 13.283C18.151 13.2 18.0898 13.0951 18.0898 12.9771C18.0898 12.8854 18.1248 12.7892 18.1903 12.6975L18.7889 11.9023C18.8807 11.7799 18.9899 11.7188 19.1123 11.7188C19.204 11.7188 19.287 11.7406 19.3657 11.7887C19.7021 11.9766 20.056 12.1251 20.4362 12.2343C20.8119 12.3479 21.1746 12.4004 21.5197 12.4004C21.8343 12.4004 22.1008 12.3348 22.3106 12.2037C22.5203 12.0727 22.6252 11.911 22.6252 11.7144C22.6252 11.5396 22.529 11.4086 22.3324 11.3212C22.1358 11.2382 21.8867 11.1726 21.5765 11.1245L21.144 11.0677C20.5017 10.9672 19.9948 10.8449 19.6235 10.7051C19.2521 10.5653 18.9113 10.3424 18.6054 10.0366C18.269 9.70016 18.103 9.24137 18.103 8.65589C18.103 7.78203 18.4175 7.15723 19.0467 6.78584C19.6759 6.41445 20.4187 6.22656 21.275 6.22656C21.8125 6.22656 22.3149 6.29649 22.7781 6.43631C23.2369 6.57612 23.6869 6.79021 24.1238 7.07858C24.2549 7.15286 24.3204 7.25336 24.3204 7.38443C24.3204 7.46745 24.2855 7.56358 24.2068 7.66408L23.6214 8.44617C23.5296 8.56851 23.4204 8.6253 23.298 8.6253C23.2063 8.6253 23.1189 8.60346 23.0315 8.5554C22.3892 8.21023 21.7819 8.03983 21.2008 8.03983C20.9474 8.03983 20.7201 8.09226 20.5104 8.20149C20.3007 8.31072 20.1958 8.44617 20.1958 8.6122C20.1958 8.81756 20.3225 8.96613 20.5803 9.05788C20.8381 9.14964 21.192 9.22827 21.6508 9.29381C22.3936 9.42489 22.9485 9.5516 23.3068 9.67831C23.6651 9.80502 23.984 10.0148 24.2636 10.3119C24.5608 10.657 24.7093 11.1245 24.7093 11.7231C24.7093 12.5227 24.434 13.1388 23.8879 13.5713C23.3374 14.0039 22.5596 14.2224 21.5547 14.2224C20.3007 14.2355 19.2127 13.9165 18.2733 13.283Z" fill="#575B63"/>
<path d="M26.2597 13.283C26.1373 13.2 26.0762 13.0951 26.0762 12.9771C26.0762 12.8854 26.1111 12.7892 26.1767 12.6975L26.7752 11.9023C26.867 11.7799 26.9762 11.7188 27.0986 11.7188C27.1903 11.7188 27.2733 11.7406 27.352 11.7887C27.6884 11.9766 28.0423 12.1251 28.4225 12.2343C28.7982 12.3479 29.1609 12.4004 29.5061 12.4004C29.8207 12.4004 30.0872 12.3348 30.2969 12.2037C30.5066 12.0727 30.6115 11.911 30.6115 11.7144C30.6115 11.5396 30.5154 11.4086 30.3187 11.3212C30.1221 11.2382 29.8731 11.1726 29.5629 11.1245L29.1303 11.0677C28.488 10.9672 27.9812 10.8449 27.6098 10.7051C27.2384 10.5653 26.8976 10.3424 26.5917 10.0366C26.2553 9.70016 26.0893 9.24137 26.0893 8.65589C26.0893 7.78203 26.4039 7.15723 27.033 6.78584C27.6622 6.41445 28.405 6.22656 29.2614 6.22656C29.7988 6.22656 30.3013 6.29649 30.7644 6.43631C31.2232 6.57612 31.6732 6.79021 32.1101 7.07858C32.2412 7.15286 32.3068 7.25336 32.3068 7.38443C32.3068 7.46745 32.2718 7.56358 32.1932 7.66408L31.6077 8.44617C31.5159 8.56851 31.4067 8.6253 31.2844 8.6253C31.1926 8.6253 31.1052 8.60346 31.0178 8.5554C30.3755 8.21023 29.7682 8.03983 29.1871 8.03983C28.9337 8.03983 28.7065 8.09226 28.4968 8.20149C28.287 8.31072 28.1822 8.44617 28.1822 8.6122C28.1822 8.81756 28.3089 8.96613 28.5667 9.05788C28.8244 9.14964 29.1784 9.22827 29.6371 9.29381C30.3799 9.42489 30.9348 9.5516 31.2931 9.67831C31.6514 9.80502 31.9703 10.0148 32.25 10.3119C32.5471 10.657 32.6956 11.1245 32.6956 11.7231C32.6956 12.5227 32.4204 13.1388 31.8742 13.5713C31.3237 14.0039 30.5459 14.2224 29.541 14.2224C28.287 14.2355 27.1991 13.9165 26.2597 13.283Z" fill="#575B63"/>
<path d="M40.2756 13.9407C40.2013 13.8664 40.162 13.7659 40.162 13.6348V13.2853C39.9741 13.5387 39.6639 13.7572 39.227 13.9407C38.79 14.1286 38.3225 14.2203 37.8288 14.2203C37.0467 14.2203 36.3607 14.0455 35.7752 13.696C35.1897 13.3465 34.7397 12.8615 34.4338 12.2366C34.128 11.6293 33.9707 10.9564 33.9707 10.2137C33.9707 9.45778 34.128 8.78054 34.4382 8.17321C34.7484 7.57025 35.1941 7.08964 35.7708 6.73572C36.3476 6.38181 37.0336 6.20703 37.8244 6.20703C38.3356 6.20703 38.7988 6.29441 39.2051 6.47355C39.6158 6.64832 39.9304 6.88428 40.1533 7.17265V6.79687C40.1533 6.6658 40.1882 6.5653 40.2669 6.49102C40.3411 6.41674 40.4416 6.37744 40.5727 6.37744H41.8005C41.9315 6.37744 42.032 6.41674 42.1063 6.49102C42.1806 6.5653 42.2199 6.6658 42.2199 6.79687V13.6392C42.2199 13.7703 42.185 13.8708 42.1063 13.9451C42.032 14.0193 41.9315 14.0586 41.8005 14.0586H40.5727C40.4504 14.0499 40.3499 14.015 40.2756 13.9407ZM39.6683 8.63198C39.2838 8.23001 38.7726 8.03339 38.139 8.03339C37.4967 8.03339 36.9855 8.23438 36.601 8.63198C36.2209 9.03396 36.0286 9.55826 36.0286 10.2093C36.0286 10.8428 36.2253 11.3628 36.6141 11.7648C37.003 12.1711 37.5142 12.3721 38.1346 12.3721C38.7857 12.3721 39.3012 12.1798 39.677 11.791C40.0528 11.4065 40.2406 10.8778 40.2406 10.2049C40.2494 9.55826 40.0528 9.03396 39.6683 8.63198Z" fill="#575B63"/>
<path d="M48.1445 8.35347C48.1882 8.39716 48.2101 8.45835 48.2101 8.53263V9.1618C48.2101 9.23608 48.1882 9.29724 48.1445 9.34093C48.1008 9.38463 48.0397 9.40648 47.9654 9.40648H44.1379C44.0636 9.40648 44.0024 9.38463 43.9587 9.34093C43.915 9.29724 43.8932 9.23608 43.8932 9.1618V8.38843C43.8932 8.27046 43.9369 8.16997 44.033 8.0957L44.8239 7.4534L46.0691 6.45284C46.3793 6.20816 46.5847 5.99844 46.6939 5.82803C46.7988 5.65326 46.8512 5.461 46.8512 5.24254C46.8512 4.99349 46.7682 4.80561 46.6022 4.67454C46.4361 4.54346 46.2264 4.48229 45.973 4.48229C45.5841 4.48229 45.2914 4.7226 45.1035 5.19886C45.0554 5.31683 44.9812 5.37798 44.885 5.37798C44.8676 5.37798 44.8413 5.37362 44.7933 5.36052L44.0199 5.17264C43.8932 5.14206 43.832 5.07213 43.832 4.96727C43.832 4.92358 43.8364 4.89301 43.8495 4.87116C43.9456 4.63085 44.0811 4.40802 44.2515 4.19392C44.4219 3.97983 44.6316 3.79631 44.8807 3.64339C45.1953 3.45551 45.5579 3.35938 45.973 3.35938C46.4274 3.35938 46.8206 3.44675 47.1527 3.6259C47.4847 3.80067 47.7338 4.04098 47.8998 4.33809C48.0615 4.6221 48.1445 4.92358 48.1445 5.24254C48.1445 5.6183 48.0353 5.97221 47.8124 6.31302C47.594 6.65382 47.2663 7.00335 46.8337 7.36601L46.5017 7.63693L46.1434 7.91217C45.9773 8.05198 45.8113 8.18306 45.654 8.29667H47.9654C48.044 8.28793 48.1008 8.30978 48.1445 8.35347Z" fill="#575B63"/>
<path d="M54.0475 7.06403C54.0912 7.10772 54.1131 7.16888 54.1131 7.24316V7.86797C54.1131 7.94224 54.0912 8.00343 54.0475 8.04712C54.0039 8.09081 53.9427 8.11265 53.8684 8.11265H53.3703V9.15691C53.3703 9.23119 53.3485 9.29235 53.3048 9.33604C53.2611 9.37973 53.1999 9.40159 53.1256 9.40159H52.326C52.2518 9.40159 52.1906 9.37973 52.1469 9.33604C52.1032 9.29235 52.0814 9.23119 52.0814 9.15691V8.11265H49.4205C49.3462 8.11265 49.285 8.09081 49.2413 8.04712C49.1976 8.00343 49.1758 7.94224 49.1758 7.86797V7.24316C49.1758 7.13393 49.2151 7.03343 49.2894 6.94168L52.278 3.57732C52.3523 3.48557 52.4528 3.4375 52.5795 3.4375H53.1256C53.1999 3.4375 53.2611 3.45936 53.3048 3.50305C53.3485 3.54674 53.3703 3.6079 53.3703 3.68218V6.99411H53.8684C53.9427 6.99848 54.0039 7.02034 54.0475 7.06403ZM50.858 6.99848H52.0857V5.55662L50.858 6.99848Z" fill="#575B63"/>
<path d="M59.0387 4.54545H60.7699L63.7798 11.8949H63.8906L66.9006 4.54545H68.6317V14H67.2745V7.15838H67.1868L64.3984 13.9862H63.272L60.4837 7.15376H60.396V14H59.0387V4.54545ZM72.4585 14.157C72.0091 14.157 71.6029 14.0739 71.2397 13.9077C70.8766 13.7384 70.5888 13.4937 70.3764 13.1737C70.1672 12.8536 70.0625 12.4612 70.0625 11.9964C70.0625 11.5964 70.1395 11.267 70.2933 11.0085C70.4472 10.75 70.655 10.5453 70.9166 10.3945C71.1782 10.2437 71.4705 10.1299 71.7937 10.0529C72.1169 9.97597 72.4462 9.9175 72.7816 9.87749C73.2063 9.82824 73.551 9.78823 73.8157 9.75746C74.0804 9.7236 74.2727 9.66974 74.3928 9.59588C74.5128 9.52202 74.5728 9.40199 74.5728 9.2358V9.20348C74.5728 8.80031 74.4589 8.48793 74.2312 8.26633C74.0065 8.04474 73.6711 7.93395 73.2248 7.93395C72.7601 7.93395 72.3938 8.03705 72.1261 8.24325C71.8614 8.44638 71.6783 8.67259 71.5767 8.92188L70.2795 8.62642C70.4334 8.19555 70.658 7.84777 70.9535 7.5831C71.252 7.31534 71.5952 7.12145 71.983 7.00142C72.3708 6.87831 72.7785 6.81676 73.2063 6.81676C73.4895 6.81676 73.7896 6.85062 74.1066 6.91832C74.4266 6.98295 74.7252 7.10298 75.0021 7.27841C75.2822 7.45383 75.5115 7.70466 75.69 8.03089C75.8685 8.35405 75.9578 8.77415 75.9578 9.29119V14H74.6097V13.0305H74.5544C74.4651 13.209 74.3312 13.3845 74.1527 13.5568C73.9742 13.7292 73.7449 13.8723 73.4649 13.9862C73.1848 14.1 72.8493 14.157 72.4585 14.157ZM72.7585 13.049C73.1402 13.049 73.4664 12.9736 73.7372 12.8228C74.0111 12.672 74.2189 12.475 74.3605 12.2319C74.5051 11.9857 74.5774 11.7225 74.5774 11.4425V10.5284C74.5282 10.5777 74.4328 10.6238 74.2912 10.6669C74.1527 10.7069 73.9942 10.7423 73.8157 10.7731C73.6372 10.8008 73.4633 10.8269 73.2941 10.8516C73.1248 10.8731 72.9832 10.8916 72.8693 10.907C72.6016 10.9408 72.3569 10.9978 72.1353 11.0778C71.9168 11.1578 71.7414 11.2732 71.609 11.424C71.4798 11.5717 71.4151 11.7687 71.4151 12.0149C71.4151 12.3565 71.5413 12.6151 71.7937 12.7905C72.0461 12.9628 72.3677 13.049 72.7585 13.049ZM77.5963 16.6591V6.90909H78.9443V8.05859H79.0597C79.1397 7.91087 79.2551 7.74006 79.4059 7.54616C79.5567 7.35227 79.766 7.183 80.0338 7.03835C80.3015 6.89062 80.6555 6.81676 81.0956 6.81676C81.668 6.81676 82.1789 6.96141 82.6282 7.25071C83.0776 7.54001 83.43 7.95703 83.6854 8.50178C83.9439 9.04652 84.0732 9.70206 84.0732 10.4684C84.0732 11.2347 83.9455 11.8918 83.69 12.4396C83.4346 12.9844 83.0837 13.4045 82.6375 13.6999C82.1912 13.9923 81.6819 14.1385 81.1094 14.1385C80.6785 14.1385 80.3261 14.0662 80.0522 13.9215C79.7814 13.7769 79.569 13.6076 79.4152 13.4137C79.2613 13.2198 79.1428 13.0475 79.0597 12.8967H78.9766V16.6591H77.5963ZM78.9489 10.4545C78.9489 10.9531 79.0212 11.3902 79.1659 11.7656C79.3105 12.1411 79.5198 12.435 79.7937 12.6474C80.0676 12.8567 80.4031 12.9613 80.8001 12.9613C81.2125 12.9613 81.5572 12.852 81.8342 12.6335C82.1112 12.4119 82.3205 12.1119 82.462 11.7333C82.6067 11.3548 82.679 10.9285 82.679 10.4545C82.679 9.98674 82.6082 9.56664 82.4667 9.19425C82.3282 8.82185 82.1189 8.52794 81.8388 8.3125C81.5618 8.09706 81.2156 7.98935 80.8001 7.98935C80.4 7.98935 80.0615 8.09245 79.7845 8.29865C79.5106 8.50485 79.3028 8.79261 79.1613 9.16193C79.0197 9.53125 78.9489 9.96212 78.9489 10.4545ZM85.4197 14V6.90909H86.8V9.8821H87.4648L89.8054 6.90909H91.5135L88.7667 10.3576L91.5458 14H89.8331L87.6956 11.1655H86.8V14H85.4197ZM95.1821 14.1431C94.4834 14.1431 93.8818 13.9938 93.377 13.6953C92.8754 13.3937 92.4876 12.9705 92.2137 12.4258C91.9428 11.878 91.8074 11.2363 91.8074 10.5007C91.8074 9.77438 91.9428 9.13423 92.2137 8.58026C92.4876 8.02628 92.8692 7.59387 93.3586 7.28303C93.851 6.97218 94.4265 6.81676 95.0851 6.81676C95.4852 6.81676 95.873 6.88293 96.2485 7.01527C96.6239 7.14761 96.961 7.35535 97.2595 7.63849C97.558 7.92164 97.7935 8.28942 97.9658 8.74183C98.1382 9.19117 98.2243 9.73745 98.2243 10.3807V10.87H92.5876V9.83594H96.8717C96.8717 9.47277 96.7978 9.15116 96.6501 8.87109C96.5024 8.58795 96.2946 8.36482 96.0269 8.2017C95.7622 8.03859 95.4514 7.95703 95.0944 7.95703C94.7066 7.95703 94.368 8.05244 94.0787 8.24325C93.7925 8.43099 93.5709 8.6772 93.414 8.98189C93.2601 9.2835 93.1831 9.61127 93.1831 9.9652V10.7731C93.1831 11.247 93.2662 11.6502 93.4324 11.9826C93.6017 12.315 93.8371 12.5689 94.1387 12.7443C94.4404 12.9167 94.7927 13.0028 95.1959 13.0028C95.4575 13.0028 95.696 12.9659 95.9115 12.892C96.1269 12.8151 96.3131 12.7012 96.4701 12.5504C96.627 12.3996 96.7471 12.2134 96.8302 11.9918L98.1366 12.2273C98.032 12.612 97.8442 12.949 97.5734 13.2383C97.3056 13.5245 96.9686 13.7476 96.5624 13.9077C96.1592 14.0646 95.6991 14.1431 95.1821 14.1431ZM98.9303 8.10014V6.90909H104.913V8.10014H102.6V14H101.252V8.10014H98.9303Z" fill="#9E9EA8"/>
</g>
<defs>
<clipPath id="clip0_8302_41443">
<rect width="105" height="18" fill="white"/>
</clipPath>
</defs>
</svg>
