<svg width="304" height="120" viewBox="0 0 304 120" fill="none" xmlns="http://www.w3.org/2000/svg">
<path opacity="0.8" d="M364.27 -7.88759C342.592 -23.4894 311.716 -19.2071 294.752 -7.41094C282.357 1.22128 262.83 13.738 247.713 13.1938C232.725 12.6496 215.591 4.85432 196.97 10.8593C178.595 16.7743 173.576 36.3394 181.883 51.2994C190.22 66.312 220.64 78.5134 257.446 89.893C270.967 94.1405 285.503 96.2708 300.162 96.1532C300.162 96.1532 333.48 95.8942 346 89.8855C355.803 85.1715 360.002 82.0752 370.601 70.0764C378.607 60.9938 383.972 48.2256 384.572 35.8553C385.328 20.7414 380.464 3.76966 364.27 -7.88759Z" fill="#E8F2FF"/>
<path opacity="0.8" d="M158.27 83.6124C136.592 68.0106 105.716 72.2929 88.7522 84.0891C76.3568 92.7213 56.8305 105.238 41.7128 104.694C26.7253 104.15 9.59094 96.3543 -9.02964 102.359C-27.405 108.274 -32.4242 127.839 -24.1173 142.799C-15.7803 157.812 14.6402 170.013 51.446 181.393C64.9672 185.64 79.5032 187.771 94.1617 187.653C94.1617 187.653 127.48 187.394 140 181.385C149.803 176.672 154.002 173.575 164.601 161.576C172.607 152.494 177.972 139.726 178.572 127.355C179.328 112.241 174.464 95.2697 158.27 83.6124Z" fill="#E8F2FF"/>
<path d="M276.942 109.515C328.666 109.515 370.596 107.644 370.596 105.337C370.596 103.03 328.666 101.16 276.942 101.16C225.219 101.16 183.289 103.03 183.289 105.337C183.289 107.644 225.219 109.515 276.942 109.515Z" fill="#DFECFF"/>
<path opacity="0.6" d="M276.942 109.515C328.666 109.515 370.596 107.644 370.596 105.337C370.596 103.03 328.666 101.16 276.942 101.16C225.219 101.16 183.289 103.03 183.289 105.337C183.289 107.644 225.219 109.515 276.942 109.515Z" fill="white"/>
<path d="M222.073 16.8301H378.029C379.417 16.8301 380.748 17.2437 381.73 17.9799C382.712 18.7161 383.263 19.7147 383.263 20.7559V97.8454H216.844V20.7559C216.844 19.7153 217.395 18.7174 218.375 17.9812C219.356 17.2451 220.686 16.8311 222.073 16.8301Z" fill="#DFECFF" stroke="#CDD4DF" stroke-width="0.920603" stroke-miterlimit="10"/>
<path d="M376.512 23.1602H223.594V87.9731H376.512V23.1602Z" fill="white"/>
<g style="mix-blend-mode:multiply" opacity="0.4">
<path d="M376.51 87.9735V32.6484L250.02 87.9735H376.51Z" fill="#DFECFF"/>
</g>
<path d="M376.512 23.1602H223.594V87.9731H376.512V23.1602Z" stroke="#CDD4DF" stroke-width="0.690452" stroke-miterlimit="10"/>
<path d="M357.613 93.9453H243.242V98.1714H357.613V93.9453Z" fill="#DFECFF" stroke="#CDD4DF" stroke-width="0.691688" stroke-miterlimit="10"/>
<path d="M357.613 95.9844H243.242V98.1762H357.613V95.9844Z" fill="#DFECFF" stroke="#CDD4DF" stroke-width="0.691688" stroke-miterlimit="10"/>
<path d="M203.379 100.68C203.379 100.68 205.26 102.402 210.885 103.81H389.965C389.965 103.81 394.139 103.025 396.02 100.834L203.379 100.68Z" fill="#DFECFF" stroke="#CDD4DF" stroke-width="0.920603" stroke-miterlimit="10"/>
<path d="M395.076 97.5938H204.351C203.605 97.5938 203 98.0474 203 98.6071V99.8719C203 100.432 203.605 100.885 204.351 100.885H395.076C395.822 100.885 396.427 100.432 396.427 99.8719V98.6071C396.427 98.0474 395.822 97.5938 395.076 97.5938Z" fill="#DFECFF" stroke="#CDD4DF" stroke-width="0.920603" stroke-miterlimit="10"/>
<path d="M300.015 20.3747C300.822 20.3747 301.476 19.8842 301.476 19.2792C301.476 18.6741 300.822 18.1836 300.015 18.1836C299.209 18.1836 298.555 18.6741 298.555 19.2792C298.555 19.8842 299.209 20.3747 300.015 20.3747Z" fill="#CDD4DF"/>
<path d="M280.71 18.1858H244.18C244.084 18.1858 243.989 18.1716 243.9 18.144C243.812 18.1165 243.731 18.0761 243.663 18.0253C243.595 17.9744 243.542 17.914 243.505 17.8475C243.468 17.781 243.449 17.7098 243.449 17.6378V17.6378C243.449 17.5658 243.468 17.4946 243.505 17.4281C243.542 17.3616 243.595 17.3012 243.663 17.2503C243.731 17.1995 243.812 17.1591 243.9 17.1316C243.989 17.104 244.084 17.0898 244.18 17.0898H280.71C280.904 17.0908 281.089 17.1489 281.226 17.2514C281.362 17.354 281.44 17.4928 281.441 17.6378V17.6378C281.441 17.7831 281.364 17.9225 281.227 18.0253C281.09 18.128 280.904 18.1858 280.71 18.1858V18.1858Z" fill="#DFECFF" stroke="#CDD4DF" stroke-width="0.691688" stroke-miterlimit="10"/>
<path d="M218.408 39.6314C218.353 39.6314 218.299 39.6233 218.249 39.6077C218.198 39.592 218.152 39.5691 218.114 39.5402C218.075 39.5112 218.045 39.4769 218.024 39.4391C218.003 39.4013 217.992 39.3608 217.992 39.3199V30.241C217.992 30.1581 218.036 30.0785 218.114 30.0194C218.191 29.9604 218.297 29.9268 218.408 29.9258V29.9258C218.519 29.9268 218.625 29.9603 218.703 30.0192C218.782 30.0781 218.827 30.1577 218.828 30.241V39.3199C218.827 39.4028 218.782 39.4821 218.703 39.5404C218.624 39.5987 218.518 39.6314 218.408 39.6314V39.6314Z" fill="#DFECFF" stroke="#CDD4DF" stroke-width="0.691688" stroke-miterlimit="10"/>
<path d="M299.717 60.8278C299.685 60.6939 299.616 60.5666 299.513 60.4543C299.411 60.342 299.278 60.2472 299.124 60.1762C298.969 60.1053 298.796 60.0598 298.616 60.0427C298.436 60.0256 298.254 60.0374 298.08 60.0772C297.079 60.3362 296.514 61.7436 296.529 62.4717C296.529 62.5167 296.624 63.0647 296.679 63.3424C296.564 63.1285 296.454 62.9108 296.339 62.6856C296.174 62.3591 296.013 62.0138 295.838 61.676L295.613 61.1393C295.533 60.9592 295.483 60.764 295.418 60.5989C295.328 60.3286 295.253 60.0472 295.178 59.7657C295.991 59.5963 296.764 59.3329 297.47 58.985C298.015 58.6097 298.571 58.058 298.516 57.4838C298.509 57.3488 298.465 57.2164 298.385 57.0952C298.306 56.974 298.193 56.8667 298.055 56.7803C297.917 56.6939 297.756 56.6303 297.582 56.5938C297.409 56.5572 297.227 56.5484 297.049 56.568C295.983 56.7106 295.163 58.0392 295.048 58.7598C295.048 58.7824 295.048 58.9362 295.048 59.1352C294.988 58.8574 294.923 58.5834 294.873 58.302C294.722 57.5063 294.607 56.6919 294.487 55.8774C294.462 55.7048 294.432 55.5359 294.407 55.367C295.244 55.1911 296.04 54.9216 296.769 54.5676C297.315 54.1923 297.87 53.6406 297.815 53.0663C297.808 52.9316 297.763 52.7995 297.683 52.6786C297.604 52.5576 297.491 52.4506 297.353 52.3643C297.215 52.278 297.054 52.2144 296.881 52.1776C296.708 52.1408 296.527 52.1316 296.349 52.1506C295.283 52.2932 294.462 53.6218 294.347 54.3424C294.347 54.3687 294.347 54.5526 294.347 54.7552C294.272 54.3161 294.192 53.8733 294.092 53.4379C293.928 52.6905 293.699 51.9521 293.406 51.2273C293.541 51.1973 295.228 50.8144 295.843 50.4129C296.384 50.0375 296.944 49.4858 296.884 48.9116C296.878 48.7767 296.833 48.6443 296.754 48.5231C296.675 48.4019 296.562 48.2945 296.424 48.2081C296.285 48.1217 296.124 48.0582 295.951 48.0216C295.778 47.985 295.596 47.9762 295.418 47.9958C294.352 48.1384 293.531 49.4671 293.416 50.1877C293.416 50.2365 293.386 50.9045 293.391 51.141C293.389 51.1323 293.389 51.1234 293.391 51.1147C293.077 50.4093 292.68 49.7261 292.205 49.073C291.787 48.4873 291.322 47.9208 290.814 47.3766C290.349 46.8661 289.883 46.4233 289.463 46.0329C289.238 45.8228 289.023 45.6314 288.822 45.4587C288.822 45.4587 288.462 44.5167 288.427 44.4566C288.042 43.7923 286.776 42.6776 285.695 42.7602C285.517 42.777 285.345 42.8219 285.192 42.8918C285.038 42.9618 284.906 43.0553 284.804 43.1662C284.702 43.2771 284.632 43.4029 284.599 43.5353C284.567 43.6678 284.572 43.804 284.614 43.9349C284.764 44.4979 285.505 44.9295 286.16 45.166C286.994 45.3626 287.864 45.4601 288.737 45.455C288.943 45.6426 289.158 45.8303 289.388 46.063C289.793 46.4608 290.249 46.9112 290.694 47.4254C290.814 47.5642 290.934 47.7143 291.054 47.857C290.784 47.6468 290.409 47.3578 290.364 47.3353C289.613 46.8774 287.807 46.3257 286.901 46.7686C286.753 46.8457 286.628 46.9453 286.535 47.0609C286.441 47.1765 286.381 47.3055 286.358 47.4397C286.336 47.5738 286.351 47.71 286.403 47.8394C286.455 47.9689 286.543 48.0886 286.661 48.191C286.934 48.393 287.261 48.5488 287.621 48.6479C287.981 48.7469 288.365 48.7869 288.747 48.7652C289.498 48.7652 290.919 48.2398 291.249 48.1272C291.515 48.45 291.75 48.7877 292.015 49.1518C292.465 49.8038 292.837 50.4846 293.126 51.186C293.126 51.2273 293.126 51.2723 293.166 51.3136C293.056 51.1898 292.39 50.563 292.335 50.5142C291.655 49.9963 289.938 49.2982 288.973 49.666C288.814 49.7301 288.675 49.8186 288.565 49.9257C288.455 50.0328 288.377 50.1561 288.335 50.2875C288.293 50.4189 288.288 50.5555 288.321 50.6883C288.355 50.8212 288.425 50.9473 288.527 51.0584C288.938 51.5388 289.838 51.7452 290.559 51.7865C291.39 51.8353 293.111 51.3586 293.176 51.3399C293.438 52.0463 293.638 52.7646 293.777 53.4904C293.882 54.0271 293.962 54.5713 294.032 55.123C293.887 54.9654 293.261 54.3724 293.211 54.3349C292.531 53.817 290.814 53.1226 289.848 53.4867C289.69 53.5508 289.551 53.6393 289.441 53.7464C289.331 53.8535 289.253 53.9768 289.211 54.1082C289.169 54.2396 289.164 54.3762 289.197 54.509C289.23 54.6419 289.3 54.768 289.403 54.8791C289.813 55.3632 290.714 55.5659 291.435 55.6072C292.245 55.656 293.897 55.2056 294.037 55.1681C294.072 55.4158 294.102 55.6672 294.132 55.9187C294.232 56.7369 294.322 57.5551 294.447 58.362C294.492 58.6397 294.547 58.9137 294.602 59.1877C294.372 58.9587 293.937 58.5497 293.897 58.5159C293.216 58.0017 291.5 57.3036 290.534 57.6714C290.375 57.7349 290.236 57.8228 290.126 57.9294C290.015 58.036 289.936 58.1589 289.894 58.29C289.851 58.4212 289.846 58.5576 289.879 58.6903C289.911 58.823 289.981 58.949 290.084 59.0601C290.499 59.5442 291.4 59.7469 292.12 59.7882C292.978 59.7469 293.822 59.6064 294.622 59.3716C294.717 59.8295 294.822 60.2799 294.958 60.719C295.023 60.9104 295.073 61.0943 295.148 61.2819C295.223 61.4696 295.283 61.6573 295.353 61.8224C295.513 62.1977 295.658 62.5242 295.818 62.862C295.898 63.0309 295.978 63.1885 296.059 63.3537C295.873 63.0947 295.558 62.6894 295.528 62.6556C294.963 62.0701 293.406 61.1844 292.375 61.4358C292.206 61.4813 292.051 61.553 291.921 61.6464C291.791 61.7397 291.689 61.8526 291.621 61.9776C291.553 62.1026 291.521 62.2369 291.527 62.3719C291.532 62.5068 291.576 62.6393 291.655 62.7607C291.965 63.2861 292.816 63.5901 293.516 63.714C294.217 63.8378 295.963 63.6051 296.164 63.5751C296.364 63.9767 296.564 64.367 296.754 64.7311C297.37 65.8795 297.935 66.8178 298.345 67.4709C298.756 68.1239 299.011 68.4917 299.011 68.4917C299.059 68.5556 299.137 68.603 299.231 68.6241C299.324 68.6451 299.425 68.638 299.511 68.6043C299.596 68.568 299.658 68.5089 299.686 68.4391C299.714 68.3693 299.705 68.2941 299.662 68.229C299.662 68.229 299.406 67.8762 298.981 67.2344C298.556 66.5926 297.98 65.6769 297.33 64.5509C297.144 64.2244 296.954 63.8791 296.764 63.5226C296.959 63.4513 298.486 62.8996 298.996 62.4417C299.506 61.9838 299.887 61.387 299.717 60.8278Z" fill="#CDD4DF"/>
<path d="M291.248 47.9688C291.248 47.9688 292.864 47.2182 293.329 46.689C293.73 46.2348 294.065 45.563 293.83 45.0376C293.776 44.9091 293.686 44.7906 293.566 44.6898C293.447 44.589 293.301 44.5082 293.137 44.4526C292.973 44.397 292.795 44.3679 292.616 44.3672C292.436 44.3665 292.258 44.3941 292.093 44.4483C291.093 44.7936 290.792 46.2386 290.917 46.9592C290.917 47.0192 291.248 47.9763 291.248 47.9688Z" fill="#CDD4DF"/>
<path d="M325.388 58.6552C324.062 58.6964 322.766 60.209 322.446 61.0684C322.446 61.1172 322.306 61.6839 322.236 62.0442C322.236 61.8266 322.236 61.6201 322.236 61.3987C322.236 60.9596 322.206 60.5205 322.181 60.0513C322.181 59.8261 322.141 59.5972 322.116 59.3645C322.091 59.1318 322.045 58.8916 322.01 58.6552C321.915 58.1034 321.785 57.5517 321.635 56.9925C322.136 56.9925 323.967 56.9512 324.773 56.6735C325.578 56.3958 326.499 55.8703 326.699 55.1722C326.755 55.0117 326.765 54.8441 326.728 54.6805C326.691 54.517 326.609 54.3611 326.486 54.2231C326.363 54.0852 326.203 53.9684 326.015 53.8803C325.828 53.7923 325.617 53.735 325.398 53.7123C324.077 53.5959 322.491 54.9471 322 55.7615C321.97 55.8103 321.705 56.422 321.57 56.7598C321.475 56.4258 321.385 56.0918 321.28 55.7577C320.965 54.7894 320.604 53.8174 320.254 52.8453C320.144 52.5488 320.044 52.2485 319.939 51.952C320.224 51.952 322.306 51.952 323.186 51.6293C324.067 51.3065 324.913 50.8261 325.113 50.128C325.168 49.9675 325.177 49.8001 325.14 49.6368C325.103 49.4734 325.02 49.3177 324.898 49.18C324.775 49.0422 324.615 48.9254 324.428 48.8372C324.24 48.749 324.031 48.6913 323.812 48.668C322.491 48.5555 320.91 49.9066 320.419 50.7173C320.379 50.7773 319.999 51.6593 319.919 51.8882C319.689 51.2314 319.468 50.5784 319.288 49.9253C319.039 49.0478 318.867 48.1589 318.773 47.2644C318.928 47.2644 321.13 47.2644 322.04 46.9416C322.846 46.6639 323.767 46.1384 323.972 45.4403C324.026 45.2796 324.035 45.1121 323.997 44.9487C323.959 44.7854 323.876 44.6298 323.753 44.4921C323.63 44.3544 323.469 44.2377 323.282 44.1496C323.095 44.0614 322.885 44.0037 322.666 43.9804C321.345 43.8678 319.764 45.2189 319.273 46.0296C319.233 46.0934 318.828 47.0429 318.773 47.2156C318.773 47.1668 318.773 47.1105 318.773 47.0579C318.706 46.1576 318.746 45.2545 318.893 44.3594C318.968 43.864 319.073 43.3911 319.193 42.937C319.623 42.9708 321.535 43.0984 322.411 42.8769C323.287 42.6555 324.247 42.2239 324.548 41.5558C324.625 41.4008 324.658 41.2353 324.644 41.0701C324.631 40.9049 324.571 40.7436 324.469 40.5968C324.367 40.45 324.225 40.3208 324.053 40.2177C323.88 40.1146 323.68 40.0399 323.467 39.9983C322.166 39.7769 320.394 40.9891 319.789 41.7548C319.759 41.796 319.483 42.2464 319.288 42.5805C319.343 42.374 319.398 42.1601 319.458 41.9649C319.684 41.2143 319.959 40.565 320.189 39.9795C320.329 39.6492 320.464 39.349 320.594 39.0713C321.03 38.9399 322.771 38.4032 323.402 37.9115C324.032 37.4199 324.628 36.6955 324.483 36.0012C324.457 35.8366 324.385 35.6779 324.271 35.5355C324.158 35.3932 324.006 35.2703 323.825 35.175C323.644 35.0798 323.439 35.0142 323.222 34.9826C323.005 34.9509 322.781 34.954 322.566 34.9916C321.28 35.2431 320.454 36.932 320.384 37.8215C320.384 37.8965 320.474 39.1088 320.494 39.1013H320.519C320.389 39.3678 320.249 39.653 320.104 39.9683C319.849 40.55 319.563 41.2106 319.318 41.9462C319.041 42.7355 318.825 43.5363 318.673 44.3444C318.498 45.2489 318.431 46.1633 318.473 47.0767V47.1105C318.342 46.8365 317.942 46.0746 317.902 46.0221C317.342 45.2339 315.64 43.9654 314.334 44.1455C314.042 44.1848 313.772 44.291 313.563 44.4495C313.355 44.2902 313.086 44.1839 312.793 44.1455C311.487 43.9691 309.79 45.2377 309.23 46.0221C309.19 46.0746 308.784 46.8365 308.654 47.1105C308.654 47.1105 308.654 47.088 308.654 47.0767C308.694 46.1632 308.625 45.2488 308.449 44.3444C308.296 43.5367 308.082 42.736 307.809 41.9462C307.563 41.1955 307.278 40.55 307.018 39.9683C306.873 39.653 306.738 39.3678 306.603 39.1013H306.628C306.628 39.1013 306.743 37.8965 306.738 37.8215C306.673 36.932 305.842 35.2431 304.556 34.9916C304.341 34.954 304.117 34.9509 303.9 34.9826C303.683 35.0142 303.478 35.0798 303.297 35.175C303.116 35.2703 302.964 35.3932 302.85 35.5355C302.737 35.6779 302.665 35.8366 302.639 36.0012C302.494 36.6955 303.105 37.4349 303.72 37.9115C304.336 38.3882 306.092 38.9399 306.528 39.0713C306.658 39.349 306.793 39.6492 306.938 39.9795C307.178 40.565 307.438 41.2293 307.663 41.9649C307.724 42.1601 307.779 42.374 307.839 42.5805C307.643 42.2464 307.373 41.796 307.338 41.7548C306.733 41.0041 304.961 39.7769 303.665 39.9983C303.451 40.0393 303.251 40.1138 303.078 40.2168C302.905 40.3198 302.763 40.449 302.661 40.5959C302.559 40.7429 302.499 40.9044 302.486 41.0698C302.473 41.2352 302.506 41.4008 302.584 41.5558C302.884 42.2239 303.875 42.6818 304.716 42.8769C305.557 43.0721 307.503 42.9708 307.939 42.937C308.054 43.3911 308.159 43.864 308.234 44.3594C308.382 45.2544 308.424 46.1574 308.359 47.0579C308.359 47.1105 308.359 47.1668 308.334 47.2156C308.279 47.0429 307.869 46.0896 307.834 46.0296C307.333 45.2189 305.757 43.8678 304.436 43.9804C304.217 44.0037 304.007 44.0613 303.82 44.1495C303.633 44.2377 303.473 44.3545 303.35 44.4923C303.227 44.6301 303.145 44.7857 303.108 44.9491C303.07 45.1124 303.08 45.2798 303.135 45.4403C303.335 46.1272 304.256 46.6526 305.061 46.9416C305.972 47.2569 308.174 47.2644 308.329 47.2644C308.23 48.1614 308.054 49.0527 307.804 49.9329C307.618 50.5859 307.398 51.2389 307.168 51.8957C307.088 51.6668 306.708 50.7698 306.668 50.7248C306.167 49.9141 304.591 48.563 303.27 48.6755C303.051 48.6988 302.841 48.7565 302.654 48.8447C302.467 48.9329 302.307 49.0497 302.184 49.1875C302.061 49.3252 301.979 49.4809 301.942 49.6443C301.905 49.8076 301.914 49.975 301.969 50.1355C302.169 50.8223 303.09 51.3478 303.895 51.6368C304.776 51.9408 306.863 51.9596 307.143 51.9596C307.038 52.2561 306.938 52.5563 306.828 52.8528C306.477 53.8249 306.117 54.7969 305.827 55.7652C305.717 56.0993 305.627 56.4333 305.532 56.7673C305.397 56.4295 305.131 55.8178 305.101 55.769C304.601 54.9546 303.025 53.6034 301.703 53.7198C301.485 53.7431 301.275 53.8007 301.088 53.8889C300.901 53.9771 300.741 54.0939 300.618 54.2317C300.495 54.3695 300.412 54.5251 300.375 54.6885C300.338 54.8518 300.347 55.0192 300.402 55.1797C300.603 55.8666 301.523 56.3883 302.329 56.681C303.135 56.9737 304.946 56.9963 305.467 57C305.317 57.5592 305.186 58.126 305.091 58.6627C305.056 58.8991 305.001 59.1431 304.986 59.372C304.971 59.6009 304.941 59.8336 304.921 60.0588C304.896 60.528 304.876 60.9671 304.871 61.4062C304.871 61.6276 304.871 61.8341 304.871 62.0517C304.801 61.6764 304.676 61.1247 304.656 61.0759C304.336 60.2165 303.045 58.7039 301.713 58.6627C301.493 58.6614 301.274 58.6949 301.072 58.761C300.87 58.8271 300.688 58.9243 300.539 59.0463C300.39 59.1684 300.277 59.3126 300.207 59.4695C300.136 59.6265 300.111 59.7927 300.132 59.9575C300.192 60.6631 300.998 61.2823 301.739 61.6502C302.479 62.018 304.541 62.2995 304.866 62.337C304.866 62.8662 304.866 63.3766 304.866 63.857C304.921 65.377 305.041 66.6381 305.141 67.5238C305.241 68.4096 305.327 68.9125 305.327 68.9125C305.355 68.9974 305.425 69.0713 305.522 69.1198C305.62 69.1683 305.737 69.1879 305.853 69.1748C305.968 69.1617 306.073 69.1168 306.147 69.0489C306.221 68.981 306.258 68.8949 306.252 68.8074C306.252 68.8074 306.157 68.3195 306.032 67.445C305.907 66.5705 305.752 65.3245 305.652 63.8232C305.627 63.3916 305.602 62.93 305.587 62.4571C305.917 62.4346 307.944 62.2807 308.769 61.9279C309.595 61.5751 310.401 61.0159 310.521 60.3178C310.556 60.1543 310.545 59.9871 310.489 59.8269C310.433 59.6668 310.332 59.5173 310.194 59.3881C310.056 59.259 309.883 59.1531 309.687 59.0772C309.49 59.0014 309.275 58.9573 309.055 58.9479C307.724 58.9216 306.302 60.3703 305.907 61.1998C305.882 61.2523 305.677 61.9129 305.587 62.2507C305.587 61.9654 305.587 61.6839 305.587 61.3837C305.587 60.9596 305.587 60.5054 305.587 60.0663C305.587 59.8411 305.622 59.6122 305.637 59.3795C305.652 59.1468 305.692 58.9216 305.717 58.6927C305.767 58.3512 305.837 58.0059 305.912 57.6568C306.507 57.6793 308.204 57.7169 309 57.4879C309.795 57.259 310.796 56.7711 311.051 56.0955C311.12 55.9381 311.144 55.7716 311.121 55.6068C311.098 55.442 311.029 55.2828 310.919 55.1393C310.808 54.9959 310.658 54.8716 310.48 54.7744C310.301 54.6773 310.096 54.6095 309.88 54.5755C308.574 54.3953 306.878 55.6677 306.312 56.4521L306.092 56.8612C306.172 56.5234 306.257 56.1856 306.357 55.8478C306.638 54.8832 306.968 53.9074 307.293 52.9279L307.488 52.3161C307.989 52.3349 309.83 52.3912 310.666 52.151C311.502 51.9108 312.462 51.4341 312.723 50.7585C312.791 50.6008 312.813 50.4342 312.79 50.2694C312.766 50.1047 312.697 49.9455 312.586 49.8022C312.475 49.6588 312.325 49.5346 312.146 49.4375C311.967 49.3404 311.763 49.2726 311.547 49.2385C310.241 49.0584 308.544 50.3307 307.979 51.1151C307.979 51.1451 307.849 51.3515 307.724 51.588C307.889 51.055 308.044 50.5221 308.179 49.9891C308.416 49.076 308.57 48.1519 308.639 47.2231C308.92 47.2231 311.006 47.3207 311.912 47.0579C312.547 46.8835 313.115 46.5933 313.563 46.2135C314.012 46.5933 314.579 46.8835 315.215 47.0579C316.121 47.3207 318.217 47.2343 318.488 47.2231C318.559 48.1517 318.713 49.0757 318.948 49.9891C319.083 50.5221 319.238 51.055 319.403 51.588C319.278 51.3515 319.168 51.1451 319.148 51.1151C318.588 50.3307 316.891 49.0584 315.58 49.2385C315.364 49.2725 315.16 49.3403 314.981 49.4374C314.802 49.5346 314.652 49.6589 314.542 49.8024C314.431 49.9458 314.362 50.1051 314.34 50.2698C314.317 50.4346 314.34 50.6011 314.409 50.7585C314.669 51.4341 315.635 51.9108 316.461 52.151C317.287 52.3912 319.148 52.3349 319.638 52.3161C319.704 52.5225 319.769 52.7252 319.839 52.9279C320.159 53.9074 320.489 54.8832 320.774 55.8478C320.875 56.1856 320.955 56.5234 321.04 56.8612C320.93 56.6547 320.834 56.4858 320.814 56.4521C320.254 55.6677 318.558 54.3953 317.246 54.5755C317.03 54.6095 316.826 54.6773 316.647 54.7744C316.468 54.8716 316.319 54.9959 316.208 55.1393C316.098 55.2828 316.029 55.442 316.006 55.6068C315.983 55.7716 316.007 55.9381 316.075 56.0955C316.336 56.7711 317.302 57.2477 318.127 57.4879C318.953 57.7281 320.629 57.6793 321.22 57.6568C321.29 58.0059 321.365 58.3512 321.41 58.6927C321.44 58.9216 321.485 59.1431 321.495 59.3795C321.505 59.616 321.525 59.8411 321.54 60.0663C321.54 60.5054 321.54 60.9596 321.54 61.3837C321.54 61.6839 321.54 61.9654 321.54 62.2507C321.445 61.9129 321.24 61.2523 321.215 61.1998C320.819 60.3591 319.398 58.9104 318.067 58.9479C317.847 58.9573 317.631 59.0014 317.435 59.0772C317.239 59.1531 317.066 59.259 316.928 59.3881C316.789 59.5173 316.689 59.6668 316.633 59.8269C316.576 59.9871 316.566 60.1543 316.601 60.3178C316.721 61.0159 317.602 61.5976 318.352 61.9279C319.103 62.2582 321.205 62.4346 321.535 62.4571C321.535 62.93 321.5 63.3916 321.47 63.8232C321.375 65.3245 321.22 66.5743 321.095 67.445C320.97 68.3157 320.87 68.8074 320.87 68.8074C320.863 68.8949 320.901 68.981 320.975 69.0489C321.048 69.1168 321.153 69.1617 321.269 69.1748C321.384 69.1879 321.502 69.1683 321.6 69.1198C321.697 69.0713 321.767 68.9974 321.795 68.9125V68.9125C321.795 68.9125 321.88 68.4058 321.985 67.5238C322.091 66.6418 322.206 65.377 322.256 63.857C322.256 63.3766 322.281 62.8662 322.281 62.337C322.606 62.2995 324.613 62.048 325.413 61.6502C326.214 61.2523 326.96 60.6631 327.015 59.9575C327.038 59.7892 327.012 59.6192 326.94 59.459C326.868 59.2987 326.751 59.1519 326.597 59.0284C326.443 58.905 326.255 58.8078 326.047 58.7434C325.838 58.679 325.614 58.6489 325.388 58.6552Z" fill="#CDD4DF"/>
<path d="M309.564 49.2734H278.838C276.718 49.2734 275 50.5623 275 52.1521V100.8C275 102.39 276.718 103.679 278.838 103.679H309.564C311.684 103.679 313.402 102.39 313.402 100.8V52.1521C313.402 50.5623 311.684 49.2734 309.564 49.2734Z" fill="#CDD4DF"/>
<path d="M311.696 55.25H276.707V97.7093H311.696V55.25Z" fill="white"/>
<g style="mix-blend-mode:multiply" opacity="0.4">
<path d="M311.695 83.4375L279.078 97.7032H311.695V83.4375Z" fill="#DFECFF"/>
</g>
<path d="M311.696 55.25H276.707V97.7093H311.696V55.25Z" stroke="#CDD4DF" stroke-width="0.52825" stroke-miterlimit="10"/>
<path d="M298.005 52.276H290.399C290.266 52.276 290.139 52.2365 290.045 52.1661C289.951 52.0957 289.898 52.0002 289.898 51.9007C289.898 51.8012 289.951 51.7057 290.045 51.6353C290.139 51.5649 290.266 51.5254 290.399 51.5254H298.005C298.138 51.5254 298.265 51.5649 298.359 51.6353C298.453 51.7057 298.506 51.8012 298.506 51.9007C298.506 52.0002 298.453 52.0957 298.359 52.1661C298.265 52.2365 298.138 52.276 298.005 52.276Z" fill="#DFECFF"/>
<path opacity="0.4" d="M298.005 52.276H290.399C290.266 52.276 290.139 52.2365 290.045 52.1661C289.951 52.0957 289.898 52.0002 289.898 51.9007C289.898 51.8012 289.951 51.7057 290.045 51.6353C290.139 51.5649 290.266 51.5254 290.399 51.5254H298.005C298.138 51.5254 298.265 51.5649 298.359 51.6353C298.453 51.7057 298.506 51.8012 298.506 51.9007C298.506 52.0002 298.453 52.0957 298.359 52.1661C298.265 52.2365 298.138 52.276 298.005 52.276Z" fill="white"/>
<path d="M296.278 100.102C296.278 99.7944 296.157 99.4933 295.928 99.2371C295.7 98.981 295.376 98.7814 294.996 98.6635C294.617 98.5456 294.199 98.5148 293.797 98.5749C293.394 98.635 293.024 98.7833 292.733 99.0011C292.443 99.2189 292.245 99.4965 292.165 99.7986C292.085 100.101 292.126 100.414 292.283 100.699C292.44 100.983 292.706 101.226 293.048 101.398C293.389 101.569 293.791 101.66 294.202 101.66C294.753 101.66 295.281 101.496 295.67 101.204C296.06 100.912 296.278 100.516 296.278 100.102Z" fill="#DFECFF" stroke="#CDD4DF" stroke-width="0.704333" stroke-miterlimit="10"/>
<path d="M295.25 99.3145H293.148V100.89H295.25V99.3145Z" fill="#DFECFF" stroke="#CDD4DF" stroke-width="0.52825" stroke-linecap="round" stroke-linejoin="round"/>
<path opacity="0.6" d="M295.25 99.3145H293.148V100.89H295.25V99.3145Z" fill="white" stroke="#CDD4DF" stroke-width="0.52825" stroke-linecap="round" stroke-linejoin="round"/>
<path d="M295.25 99.3145H293.148V100.89H295.25V99.3145Z" stroke="#CDD4DF" stroke-width="0.52825" stroke-linecap="round" stroke-linejoin="round"/>
</svg>
