<svg width="16" height="16" viewBox="0 0 16 16" fill="none" xmlns="http://www.w3.org/2000/svg">
<g clip-path="url(#clip0_8302_38147)">
<path d="M10.6654 0.666016C11.0336 0.666016 11.332 0.964492 11.332 1.33268V1.99868L14.6654 1.99935V5.99935L13.3187 5.99868L15.1632 11.0628C15.2723 11.354 15.332 11.6694 15.332 11.9987C15.332 13.4714 14.1381 14.6654 12.6654 14.6654C11.4232 14.6654 10.3794 13.8161 10.083 12.6665L7.24789 12.6665C6.95168 13.8164 5.90774 14.666 4.66536 14.666C3.36878 14.666 2.28833 13.7407 2.04839 12.5143C1.62242 12.292 1.33203 11.8463 1.33203 11.3327V2.66602C1.33203 2.29783 1.63051 1.99935 1.9987 1.99935H6.66536C7.03355 1.99935 7.33203 2.29783 7.33203 2.66602V7.99935C7.33203 8.34124 7.58939 8.62302 7.92095 8.66153L7.9987 8.66602H9.33203C9.67392 8.66602 9.9557 8.40866 9.99421 8.0771L9.9987 7.99935V1.99935H7.9987V0.666016H10.6654ZM4.66536 10.666C3.92898 10.666 3.33203 11.263 3.33203 11.9993C3.33203 12.7357 3.92898 13.3327 4.66536 13.3327C5.40174 13.3327 5.9987 12.7357 5.9987 11.9993C5.9987 11.263 5.40174 10.666 4.66536 10.666ZM12.6654 10.6654C11.929 10.6654 11.332 11.2623 11.332 11.9987C11.332 12.7351 11.929 13.332 12.6654 13.332C13.4017 13.332 13.9987 12.7351 13.9987 11.9987C13.9987 11.2623 13.4017 10.6654 12.6654 10.6654ZM11.9 5.99868H11.332V7.99935C11.332 9.10392 10.4366 9.99935 9.33203 9.99935H7.9987C7.12811 9.99935 6.38744 9.4431 6.11271 8.66662L2.66533 8.66602V10.2355C3.15396 9.68187 3.86888 9.33268 4.66536 9.33268C5.90798 9.33268 6.95209 10.1826 7.24806 11.3329H10.0825C10.3782 10.1823 11.4225 9.33202 12.6654 9.33202C12.8236 9.33202 12.9785 9.3458 13.1291 9.37221L11.9 5.99868ZM5.9987 5.33268H2.66536V7.33268H5.9987V5.33268ZM13.332 3.33268H11.332V4.66602H13.332V3.33268ZM5.9987 3.33268H2.66536V3.99935H5.9987V3.33268Z" fill="black"/>
</g>
<defs>
<clipPath id="clip0_8302_38147">
<rect width="16" height="16" fill="white"/>
</clipPath>
</defs>
</svg>
