<svg width="80" height="80" viewBox="0 0 80 80" fill="none" xmlns="http://www.w3.org/2000/svg">
<circle cx="40" cy="40" r="40" fill="#F2F5FF"/>
<g clip-path="url(#clip0_8302_44501)">
<path d="M50.6693 53.334H48.0026V50.6673C48.0026 49.6065 47.5812 48.589 46.831 47.8389C46.0809 47.0887 45.0635 46.6673 44.0026 46.6673H36.0026C34.9417 46.6673 33.9243 47.0887 33.1742 47.8389C32.424 48.589 32.0026 49.6065 32.0026 50.6673V53.334H29.3359V50.6673C29.3359 48.8992 30.0383 47.2035 31.2886 45.9533C32.5388 44.703 34.2345 44.0007 36.0026 44.0007H44.0026C45.7707 44.0007 47.4664 44.703 48.7166 45.9533C49.9669 47.2035 50.6693 48.8992 50.6693 50.6673V53.334ZM40.0026 41.334C38.952 41.334 37.9117 41.1271 36.9411 40.725C35.9705 40.323 35.0886 39.7337 34.3457 38.9908C33.6029 38.248 33.0136 37.3661 32.6116 36.3955C32.2095 35.4248 32.0026 34.3846 32.0026 33.334C32.0026 32.2834 32.2095 31.2431 32.6116 30.2725C33.0136 29.3019 33.6029 28.42 34.3457 27.6771C35.0886 26.9343 35.9705 26.345 36.9411 25.9429C37.9117 25.5409 38.952 25.334 40.0026 25.334C42.1243 25.334 44.1592 26.1768 45.6595 27.6771C47.1597 29.1774 48.0026 31.2123 48.0026 33.334C48.0026 35.4557 47.1597 37.4905 45.6595 38.9908C44.1592 40.4911 42.1243 41.334 40.0026 41.334ZM40.0026 38.6673C41.4171 38.6673 42.7736 38.1054 43.7738 37.1052C44.774 36.105 45.3359 34.7485 45.3359 33.334C45.3359 31.9195 44.774 30.5629 43.7738 29.5627C42.7736 28.5626 41.4171 28.0007 40.0026 28.0007C38.5881 28.0007 37.2316 28.5626 36.2314 29.5627C35.2312 30.5629 34.6693 31.9195 34.6693 33.334C34.6693 34.7485 35.2312 36.105 36.2314 37.1052C37.2316 38.1054 38.5881 38.6673 40.0026 38.6673Z" fill="#BBBBD9"/>
</g>
<defs>
<clipPath id="clip0_8302_44501">
<rect width="32" height="32" fill="white" transform="translate(24 24)"/>
</clipPath>
</defs>
</svg>
