<svg width="36" height="36" viewBox="0 0 36 36" fill="none" xmlns="http://www.w3.org/2000/svg">
<g clip-path="url(#clip0_8302_44700)">
<path d="M10.8795 27.741L11.9655 28.3755C13.7969 29.4436 15.8799 30.0043 18 30C20.3734 30 22.6935 29.2962 24.6669 27.9776C26.6403 26.6591 28.1783 24.7849 29.0866 22.5922C29.9948 20.3995 30.2325 17.9867 29.7694 15.6589C29.3064 13.3311 28.1635 11.1929 26.4853 9.51472C24.8071 7.83649 22.6689 6.6936 20.3411 6.23058C18.0133 5.76755 15.6005 6.00519 13.4078 6.91345C11.2151 7.8217 9.34096 9.35977 8.02238 11.3332C6.70381 13.3065 6.00002 15.6266 6.00002 18C6.00002 20.154 6.56552 22.2195 7.62602 24.036L8.25902 25.122L7.27952 28.7235L10.8795 27.741ZM3.00602 33L5.03402 25.548C3.69773 23.2573 2.99566 20.652 3.00002 18C3.00002 9.7155 9.71552 3 18 3C26.2845 3 33 9.7155 33 18C33 26.2845 26.2845 33 18 33C15.3492 33.0043 12.745 32.3028 10.455 30.9675L3.00602 33ZM12.5865 10.962C12.7875 10.947 12.99 10.947 13.191 10.956C13.272 10.962 13.353 10.971 13.434 10.98C13.6725 11.007 13.935 11.1525 14.0235 11.3535C14.4705 12.3675 14.9055 13.389 15.3255 14.4135C15.4185 14.6415 15.363 14.934 15.186 15.219C15.0643 15.4117 14.9326 15.598 14.7915 15.777C14.622 15.9945 14.2575 16.3935 14.2575 16.3935C14.2575 16.3935 14.109 16.5705 14.166 16.791C14.187 16.875 14.256 16.9965 14.319 17.0985L14.4075 17.241C14.7915 17.8815 15.3075 18.531 15.9375 19.143C16.1175 19.317 16.293 19.4955 16.482 19.662C17.184 20.2815 17.979 20.787 18.837 21.162L18.8445 21.165C18.972 21.2205 19.0365 21.2505 19.2225 21.33C19.3155 21.369 19.4115 21.4035 19.509 21.429C19.6098 21.4547 19.7159 21.4498 19.8139 21.4151C19.9119 21.3804 19.9974 21.3174 20.0595 21.234C21.1455 19.9185 21.2445 19.833 21.2535 19.833V19.836C21.329 19.7656 21.4186 19.7122 21.5164 19.6794C21.6142 19.6465 21.7179 19.635 21.8205 19.6455C21.9105 19.6515 22.002 19.668 22.086 19.7055C22.8825 20.07 24.186 20.6385 24.186 20.6385L25.059 21.03C25.206 21.1005 25.3395 21.267 25.344 21.4275C25.35 21.528 25.359 21.69 25.3245 21.987C25.2765 22.3755 25.1595 22.842 25.0425 23.0865C24.9624 23.2534 24.856 23.4063 24.7275 23.5395C24.5762 23.6984 24.4105 23.843 24.2325 23.9715C24.171 24.0178 24.1084 24.0628 24.045 24.1065C23.8585 24.2249 23.6668 24.335 23.4705 24.4365C23.0843 24.6416 22.6578 24.7594 22.221 24.7815C21.9435 24.7965 21.666 24.8175 21.387 24.8025C21.375 24.8025 20.535 24.672 20.535 24.672C18.4024 24.1111 16.4301 23.0602 14.775 21.603C14.436 21.3045 14.1225 20.9835 13.8015 20.664C12.4665 19.3365 11.4585 17.904 10.8465 16.551C10.5333 15.8869 10.3641 15.1641 10.35 14.43C10.3438 13.5193 10.6415 12.6325 11.196 11.91C11.3055 11.769 11.409 11.622 11.5875 11.4525C11.778 11.2725 11.898 11.1765 12.0285 11.1105C12.202 11.0235 12.3913 10.9725 12.585 10.9605L12.5865 10.962Z" fill="white"/>
</g>
<defs>
<clipPath id="clip0_8302_44700">
<rect width="36" height="36" fill="white"/>
</clipPath>
</defs>
</svg>
