<svg width="246" height="158" viewBox="0 0 246 158" fill="none" xmlns="http://www.w3.org/2000/svg">
<g filter="url(#filter0_d_8302_45166)">
<g clip-path="url(#clip0_8302_45166)">
<rect x="20" y="16" width="206" height="118" rx="8" fill="#0C6BFA"/>
<path d="M81.6045 23.7393C90.0824 29.7148 90.0824 42.2853 81.6045 48.2607L7.14153 100.743C-2.79568 107.747 -16.5 100.64 -16.5 88.4828L-16.5 -16.4828C-16.5 -28.6402 -2.79566 -35.7473 7.14155 -28.7434L81.6045 23.7393Z" fill="url(#paint0_radial_8302_45166)"/>
<path d="M126.842 92.6589C138.134 100.627 138.134 117.373 126.842 125.341L33.0311 191.539C19.7826 200.888 1.50001 191.413 1.50001 175.198L1.50001 42.802C1.50001 26.5871 19.7826 17.112 33.0311 26.4609L126.842 92.6589Z" fill="url(#paint1_radial_8302_45166)"/>
<circle cx="173" cy="106" r="5" fill="white" fill-opacity="0.45"/>
<circle cx="179" cy="106" r="5" fill="white" fill-opacity="0.45"/>
<path fill-rule="evenodd" clip-rule="evenodd" d="M176 110.001C177.214 109.089 178 107.636 178 106C178 104.365 177.214 102.912 176 102C174.786 102.912 174 104.365 174 106C174 107.636 174.786 109.089 176 110.001Z" fill="white" fill-opacity="0.6"/>
<path opacity="0.5" d="M266.604 20.7393C275.082 26.7148 275.082 39.2853 266.604 45.2607L192.142 97.7434C182.204 104.747 168.5 97.6402 168.5 85.4828L168.5 -19.4828C168.5 -31.6402 182.204 -38.7473 192.142 -31.7434L266.604 20.7393Z" fill="url(#paint2_radial_8302_45166)"/>
<path opacity="0.5" d="M311.842 89.6589C323.134 97.627 323.134 114.373 311.842 122.341L218.031 188.539C204.783 197.888 186.5 188.413 186.5 172.198L186.5 39.802C186.5 23.5871 204.783 14.112 218.031 23.4609L311.842 89.6589Z" fill="url(#paint3_radial_8302_45166)"/>
<path opacity="0.75" fill-rule="evenodd" clip-rule="evenodd" d="M197.765 99H208.235C209.21 99 210 99.7902 210 100.765V111.235C210 112.21 209.21 113 208.235 113H197.765C196.79 113 196 112.21 196 111.235V100.765C196 99.7902 196.79 99 197.765 99ZM198.279 106.09V106.92H198.806C198.914 106.92 199.003 106.903 199.071 106.869C199.139 106.833 199.19 106.785 199.223 106.725C199.255 106.665 199.272 106.596 199.272 106.518C199.272 106.431 199.257 106.355 199.227 106.29C199.198 106.226 199.152 106.177 199.087 106.143C199.023 106.107 198.938 106.09 198.833 106.09H198.279ZM199.393 105.861C199.421 105.849 199.448 105.837 199.473 105.823C199.592 105.757 199.679 105.673 199.733 105.569C199.789 105.465 199.817 105.351 199.817 105.228C199.817 105.089 199.792 104.968 199.742 104.867C199.691 104.765 199.618 104.68 199.522 104.613C199.426 104.546 199.309 104.496 199.171 104.463C199.035 104.43 198.879 104.414 198.706 104.414H197.664V107.4H197.898H198.279H198.806C199.037 107.4 199.233 107.367 199.393 107.302C199.554 107.236 199.677 107.138 199.76 107.008C199.843 106.877 199.885 106.716 199.885 106.524C199.885 106.404 199.859 106.291 199.807 106.186C199.757 106.081 199.675 105.995 199.563 105.93C199.514 105.9 199.457 105.877 199.393 105.861ZM198.706 105.667C198.819 105.667 198.912 105.653 198.985 105.624C199.057 105.594 199.111 105.551 199.147 105.495C199.184 105.437 199.202 105.368 199.202 105.286C199.202 105.193 199.184 105.117 199.149 105.06C199.115 105.003 199.061 104.961 198.987 104.935C198.914 104.909 198.821 104.896 198.706 104.896H198.279V105.667H198.706ZM201.62 104.414H201.776L202.892 107.4H202.235L202.028 106.77H200.955L200.748 107.4H200.094L201.204 104.414H201.355H201.62ZM201.113 106.288H201.87L201.491 105.137L201.113 106.288ZM205.599 107.4V104.414H204.985V106.418L203.784 104.414H203.168V107.4H203.784V105.398L204.983 107.4H205.599ZM206.749 105.782V104.414H206.134V107.4H206.749V106.539L207.069 106.194L207.838 107.4H208.566L207.477 105.735L208.537 104.414H207.783L207.022 105.409L206.749 105.782Z" fill="white"/>
<path opacity="0.5" d="M36.2045 99.4091V97.375H36.5795C36.7083 97.2576 36.8295 97.0919 36.9432 96.8778C37.0587 96.6619 37.1562 96.3741 37.2358 96.0142C37.3172 95.6525 37.3712 95.1932 37.3977 94.6364L37.5227 92.1818H40.9773V97.375H41.6477V99.3977H40.9773V98H36.875V99.4091H36.2045ZM37.4205 97.375H40.3068V92.8068H38.1591L38.0682 94.6364C38.0455 95.0606 38.0057 95.4451 37.9489 95.7898C37.892 96.1326 37.8191 96.4366 37.7301 96.7017C37.6411 96.965 37.5379 97.1894 37.4205 97.375ZM44.3942 98.0909C44.0002 98.0909 43.6546 97.9972 43.3572 97.8097C43.0618 97.6222 42.8307 97.3598 42.6641 97.0227C42.4993 96.6856 42.4169 96.2917 42.4169 95.8409C42.4169 95.3864 42.4993 94.9896 42.6641 94.6506C42.8307 94.3116 43.0618 94.0483 43.3572 93.8608C43.6546 93.6733 44.0002 93.5795 44.3942 93.5795C44.7881 93.5795 45.1328 93.6733 45.4283 93.8608C45.7256 94.0483 45.9567 94.3116 46.1214 94.6506C46.2881 94.9896 46.3714 95.3864 46.3714 95.8409C46.3714 96.2917 46.2881 96.6856 46.1214 97.0227C45.9567 97.3598 45.7256 97.6222 45.4283 97.8097C45.1328 97.9972 44.7881 98.0909 44.3942 98.0909ZM44.3942 97.4886C44.6934 97.4886 44.9396 97.4119 45.1328 97.2585C45.326 97.1051 45.469 96.9034 45.5618 96.6534C45.6546 96.4034 45.701 96.1326 45.701 95.8409C45.701 95.5492 45.6546 95.2775 45.5618 95.0256C45.469 94.7737 45.326 94.5701 45.1328 94.4148C44.9396 94.2595 44.6934 94.1818 44.3942 94.1818C44.0949 94.1818 43.8487 94.2595 43.6555 94.4148C43.4624 94.5701 43.3194 94.7737 43.2266 95.0256C43.1338 95.2775 43.0874 95.5492 43.0874 95.8409C43.0874 96.1326 43.1338 96.4034 43.2266 96.6534C43.3194 96.9034 43.4624 97.1051 43.6555 97.2585C43.8487 97.4119 44.0949 97.4886 44.3942 97.4886Z" fill="white"/>
</g>
</g>
<defs>
<filter id="filter0_d_8302_45166" x="0" y="0" width="246" height="158" filterUnits="userSpaceOnUse" color-interpolation-filters="sRGB">
<feFlood flood-opacity="0" result="BackgroundImageFix"/>
<feColorMatrix in="SourceAlpha" type="matrix" values="0 0 0 0 0 0 0 0 0 0 0 0 0 0 0 0 0 0 127 0" result="hardAlpha"/>
<feOffset dy="4"/>
<feGaussianBlur stdDeviation="10"/>
<feComposite in2="hardAlpha" operator="out"/>
<feColorMatrix type="matrix" values="0 0 0 0 0.0470588 0 0 0 0 0.419608 0 0 0 0 0.980392 0 0 0 0.25 0"/>
<feBlend mode="normal" in2="BackgroundImageFix" result="effect1_dropShadow_8302_45166"/>
<feBlend mode="normal" in="SourceGraphic" in2="effect1_dropShadow_8302_45166" result="shape"/>
</filter>
<radialGradient id="paint0_radial_8302_45166" cx="0" cy="0" r="1" gradientUnits="userSpaceOnUse" gradientTransform="translate(22 36) rotate(-180) scale(77 94)">
<stop stop-color="white" stop-opacity="0"/>
<stop offset="1" stop-color="white" stop-opacity="0.25"/>
</radialGradient>
<radialGradient id="paint1_radial_8302_45166" cx="0" cy="0" r="1" gradientUnits="userSpaceOnUse" gradientTransform="translate(51 109) rotate(-180) scale(99 121)">
<stop stop-color="white" stop-opacity="0"/>
<stop offset="1" stop-color="white" stop-opacity="0.25"/>
</radialGradient>
<radialGradient id="paint2_radial_8302_45166" cx="0" cy="0" r="1" gradientUnits="userSpaceOnUse" gradientTransform="translate(207 33) rotate(-180) scale(77 94)">
<stop stop-color="white" stop-opacity="0"/>
<stop offset="1" stop-color="white" stop-opacity="0.25"/>
</radialGradient>
<radialGradient id="paint3_radial_8302_45166" cx="0" cy="0" r="1" gradientUnits="userSpaceOnUse" gradientTransform="translate(236 106) rotate(-180) scale(99 121)">
<stop stop-color="white" stop-opacity="0"/>
<stop offset="1" stop-color="white" stop-opacity="0.25"/>
</radialGradient>
<clipPath id="clip0_8302_45166">
<rect x="20" y="16" width="206" height="118" rx="8" fill="white"/>
</clipPath>
</defs>
</svg>
