<svg width="300" height="216" viewBox="0 0 300 216" fill="none" xmlns="http://www.w3.org/2000/svg">
<path d="M300 188.848H0V188.998H300V188.848Z" fill="#E6E6E6"/>
<path d="M226.593 195.215H205.953V195.365H226.593V195.215Z" fill="#E6E6E6"/>
<path d="M66.6238 195.287H55.0078V195.437H66.6238V195.287Z" fill="#E6E6E6"/>
<path d="M150.599 194.938H127.055V195.088H150.599V194.938Z" fill="#E6E6E6"/>
<path d="M126.454 192.797H115.93V192.947H126.454V192.797Z" fill="#E6E6E6"/>
<path d="M254.739 192.869H222.945V193.019H254.739V192.869Z" fill="#E6E6E6"/>
<path d="M253.815 3.19922H172.047V98.677H253.815V3.19922Z" fill="#EEEEEE"/>
<path d="M256.036 3.19922H173.086V98.677H256.036V3.19922Z" fill="#F5F5F5"/>
<path d="M253.815 98.6719H172.047V104.023H253.815V98.6719Z" fill="#EEEEEE"/>
<path d="M266.199 98.6719H188.109V104.023H266.199V98.6719Z" fill="#F5F5F5"/>
<path d="M252.93 94.6251V7.24609L176.202 7.24609V94.6251H252.93Z" fill="#FAFAFA"/>
<path d="M187.234 94.6251L205.498 7.24609H229.438L211.174 94.6251H187.234Z" fill="white"/>
<path d="M215.055 94.6251L233.313 7.24609H244.125L225.867 94.6251H215.055Z" fill="white"/>
<path d="M169.719 3.06222V37.0566H178.719C178.719 37.0566 194.841 26.5168 198.519 4.82988C198.606 4.3134 198.58 3.7841 198.442 3.27878C198.304 2.77345 198.059 2.30422 197.722 1.90371C197.385 1.50319 196.965 1.18099 196.491 0.959508C196.018 0.738024 195.501 0.622564 194.979 0.62116H172.179C171.857 0.618783 171.538 0.680128 171.24 0.801664C170.942 0.9232 170.671 1.10253 170.442 1.32936C170.214 1.5562 170.032 1.82605 169.908 2.12343C169.784 2.42081 169.72 2.73985 169.719 3.06222Z" fill="#EEEEEE"/>
<path d="M169.719 91.5461V39.7969H178.719C178.719 39.7969 183.879 50.2465 189.021 62.2594C190.388 65.4556 190.943 68.942 190.634 72.4059C190.326 75.8698 189.164 79.2027 187.253 82.1057C185.342 85.0087 182.742 87.3909 179.686 89.0386C176.63 90.6863 173.213 91.5479 169.743 91.5461H169.719Z" fill="#EEEEEE"/>
<path d="M178.43 37.0566H170.048C169.551 37.0566 169.148 37.4604 169.148 37.9585V38.8965C169.148 39.3945 169.551 39.7983 170.048 39.7983H178.43C178.927 39.7983 179.33 39.3945 179.33 38.8965V37.9585C179.33 37.4604 178.927 37.0566 178.43 37.0566Z" fill="#F5F5F5"/>
<path d="M258.6 3.06227V37.0567H249.6C249.6 37.0567 233.472 26.5169 229.8 4.82993C229.713 4.31395 229.739 3.78517 229.877 3.28027C230.014 2.77538 230.259 2.30646 230.595 1.90604C230.932 1.50563 231.351 1.18331 231.824 0.961449C232.297 0.739586 232.812 0.623486 233.334 0.621212H256.134C256.457 0.618038 256.776 0.678794 257.075 0.799973C257.374 0.921151 257.645 1.10036 257.875 1.32727C258.104 1.55418 258.286 1.8243 258.41 2.12208C258.535 2.41985 258.6 2.73939 258.6 3.06227Z" fill="#EEEEEE"/>
<path d="M258.658 91.5578V39.8086H249.658C249.658 39.8086 244.498 50.2522 239.35 62.2711C237.992 65.4683 237.445 68.9528 237.758 72.4135C238.071 75.8742 239.234 79.2034 241.144 82.1038C243.053 85.0042 245.65 87.3855 248.702 89.0352C251.754 90.6849 255.166 91.5515 258.634 91.5578H258.658Z" fill="#EEEEEE"/>
<path d="M249.866 39.7969H258.248C258.745 39.7969 259.148 39.3931 259.148 38.895V37.9571C259.148 37.459 258.745 37.0552 258.248 37.0552H249.866C249.369 37.0552 248.966 37.459 248.966 37.9571V38.895C248.966 39.3931 249.369 39.7969 249.866 39.7969Z" fill="#F5F5F5"/>
<path d="M120.534 45.2637H84.5156V84.7715H120.534V45.2637Z" fill="#EEEEEE"/>
<path d="M125.601 45.2637H86.4688V84.7715H125.601V45.2637Z" fill="#FAFAFA"/>
<path d="M121.562 80.7297V49.3086H90.5005V80.7297H121.562Z" fill="white"/>
<path d="M97.7969 65.0209C97.7985 63.0526 98.5799 61.1655 99.9693 59.7743C101.359 58.3831 103.243 57.6016 105.207 57.6016H106.875C108.838 57.6032 110.72 58.3854 112.109 59.7764C113.497 61.1675 114.277 63.0537 114.279 65.0209C114.279 65.9953 114.087 66.96 113.715 67.8602C113.343 68.7604 112.798 69.5783 112.11 70.2672C111.423 70.9562 110.607 71.5027 109.708 71.8755C108.81 72.2484 107.847 72.4403 106.875 72.4403H105.207C104.234 72.4411 103.271 72.2498 102.372 71.8773C101.473 71.5048 100.656 70.9584 99.9676 70.2693C99.2794 69.5803 98.7335 68.7621 98.361 67.8616C97.9886 66.961 97.7969 65.9958 97.7969 65.0209Z" fill="#F5F5F5"/>
<path d="M55.3453 54.691C50.3327 54.691 45.5254 52.6956 41.981 49.1438C38.4366 45.592 36.4453 40.7747 36.4453 35.7517C36.4453 30.7287 38.4366 25.9115 41.981 22.3597C45.5254 18.8079 50.3327 16.8125 55.3453 16.8125H58.7593V54.691H55.3453Z" fill="#EEEEEE"/>
<path d="M58.7552 54.6904C69.1867 54.6904 77.6432 46.2164 77.6432 35.7631C77.6432 25.3099 69.1867 16.8359 58.7552 16.8359C48.3236 16.8359 39.8672 25.3099 39.8672 35.7631C39.8672 46.2164 48.3236 54.6904 58.7552 54.6904Z" fill="#FAFAFA"/>
<path d="M58.7596 50.0374C66.6264 50.0374 73.0036 43.6469 73.0036 35.7638C73.0036 27.8807 66.6264 21.4902 58.7596 21.4902C50.8929 21.4902 44.5156 27.8807 44.5156 35.7638C44.5156 43.6469 50.8929 50.0374 58.7596 50.0374Z" fill="white"/>
<path d="M64.6288 41.103L57.6328 36.2088L59.8528 25.3984L61.8328 25.8073L59.8828 35.313L65.7868 39.4375L64.6288 41.103Z" fill="#EEEEEE"/>
<path d="M211.402 121.266H185.656V190.974H211.402V121.266Z" fill="#EEEEEE"/>
<path d="M204.526 190.976H211.402V179.432H197.32L204.526 190.976Z" fill="#FAFAFA"/>
<path d="M57.0507 121.266H31.3047V190.974H57.0507V121.266Z" fill="#EEEEEE"/>
<path d="M211.411 121.266H51.0547V187H211.411V121.266Z" fill="#FAFAFA"/>
<path d="M57.9307 190.976H51.0547V179.432H65.1367L57.9307 190.976Z" fill="#FAFAFA"/>
<path d="M206.079 126.918H56.3906V151.112H206.079V126.918Z" fill="#F0F0F0"/>
<path d="M206.079 156.963H56.3906V181.157H206.079V156.963Z" fill="#F0F0F0"/>
<path d="M184.131 126.918H56.3906V151.112H184.131V126.918Z" fill="#EEEEEE"/>
<path d="M95.7269 130.184H87.9569C87.9569 130.184 89.3069 134.855 89.3069 137.603C89.3069 140.351 83.3969 151.119 91.8449 151.119C100.293 151.119 94.3769 140.351 94.3769 137.603C94.3769 134.855 95.7269 130.184 95.7269 130.184Z" fill="#FAFAFA"/>
<path d="M65.1328 138.301V142.552C65.1328 147.265 69.6808 151.119 75.2368 151.119H80.2468C85.8028 151.119 90.3508 147.265 90.3508 142.552V138.301H65.1328Z" fill="#F0F0F0"/>
<path d="M184.131 156.963H56.3906V181.157H184.131V156.963Z" fill="#EEEEEE"/>
<path d="M128.13 180.719H140.094V160.751H128.13V180.719Z" fill="white"/>
<path d="M138.231 181.031H139.047V161.064H138.231V181.031Z" fill="#E6E6E6"/>
<path d="M139.101 181.18H141.189C141.348 181.18 141.477 181.05 141.477 180.891V161.194C141.477 161.035 141.348 160.906 141.189 160.906H139.101C138.942 160.906 138.813 161.035 138.813 161.194V180.891C138.813 181.05 138.942 181.18 139.101 181.18Z" fill="#EBEBEB"/>
<path d="M138.813 170.273H141.477V165.536H138.813V170.273Z" fill="white"/>
<path d="M138.813 174.656H141.477V171.734H138.813V174.656Z" fill="white"/>
<path d="M127.516 181.18H138.298C138.457 181.18 138.586 181.05 138.586 180.891V161.194C138.586 161.035 138.457 160.906 138.298 160.906H127.516C127.357 160.906 127.228 161.035 127.228 161.194V180.891C127.228 181.05 127.357 181.18 127.516 181.18Z" fill="#EBEBEB"/>
<path d="M122.292 180.67H135.492V158.64H122.292V180.67Z" fill="white"/>
<path d="M133.45 181.012H134.344V158.982H133.45V181.012Z" fill="#E6E6E6"/>
<path d="M134.409 181.18H136.713C136.889 181.18 137.031 181.037 137.031 180.861V159.132C137.031 158.956 136.889 158.813 136.713 158.813H134.409C134.234 158.813 134.091 158.956 134.091 159.132V180.861C134.091 181.037 134.234 181.18 134.409 181.18Z" fill="#F0F0F0"/>
<path d="M134.091 166.703H137.031V165.94H134.091V166.703Z" fill="white"/>
<path d="M134.091 168.916H137.031V168.152H134.091V168.916Z" fill="white"/>
<path d="M134.091 171.121H137.031V170.358H134.091V171.121Z" fill="white"/>
<path d="M121.626 181.18H133.518C133.694 181.18 133.836 181.037 133.836 180.861V159.132C133.836 158.956 133.694 158.813 133.518 158.813H121.626C121.45 158.813 121.308 158.956 121.308 159.132V180.861C121.308 181.037 121.45 181.18 121.626 181.18Z" fill="#F0F0F0"/>
<path d="M106.034 173.51C106.035 174.181 105.837 174.837 105.466 175.396C105.095 175.954 104.567 176.39 103.949 176.647C103.331 176.905 102.65 176.973 101.993 176.843C101.336 176.712 100.733 176.39 100.259 175.916C99.785 175.442 99.4622 174.838 99.3311 174.18C99.2 173.522 99.2667 172.84 99.5226 172.22C99.7786 171.6 100.212 171.07 100.769 170.697C101.326 170.324 101.98 170.125 102.65 170.125C103.546 170.125 104.406 170.481 105.04 171.116C105.675 171.751 106.032 172.612 106.034 173.51Z" fill="#FAFAFA"/>
<path d="M100.269 175.126C100.269 175.651 100.113 176.163 99.8226 176.599C99.5319 177.035 99.1186 177.375 98.6351 177.576C98.1516 177.776 97.6196 177.829 97.1063 177.727C96.5931 177.624 96.1216 177.372 95.7516 177.001C95.3815 176.63 95.1295 176.158 95.0274 175.643C94.9253 175.129 94.9777 174.596 95.178 174.111C95.3782 173.627 95.7174 173.213 96.1525 172.921C96.5877 172.63 97.0992 172.475 97.6226 172.475C98.3238 172.476 98.9959 172.756 99.4918 173.253C99.9877 173.75 100.267 174.423 100.269 175.126Z" fill="#FAFAFA"/>
<path d="M111.823 175.125C111.823 175.796 111.624 176.452 111.252 177.009C110.881 177.567 110.352 178.002 109.734 178.258C109.115 178.515 108.435 178.582 107.779 178.451C107.122 178.32 106.519 177.997 106.046 177.523C105.573 177.049 105.25 176.445 105.12 175.787C104.989 175.129 105.056 174.447 105.312 173.828C105.568 173.208 106.002 172.678 106.559 172.306C107.115 171.933 107.769 171.734 108.439 171.734C109.336 171.736 110.196 172.094 110.83 172.729C111.464 173.365 111.821 174.227 111.823 175.125Z" fill="#FAFAFA"/>
<path d="M117.37 174.133C117.37 174.804 117.171 175.46 116.799 176.017C116.427 176.575 115.899 177.009 115.281 177.266C114.662 177.523 113.982 177.59 113.325 177.459C112.669 177.328 112.066 177.005 111.593 176.531C111.119 176.057 110.797 175.453 110.667 174.795C110.536 174.137 110.603 173.455 110.859 172.836C111.115 172.216 111.549 171.686 112.106 171.314C112.662 170.941 113.316 170.742 113.986 170.742C114.883 170.742 115.744 171.099 116.378 171.735C117.013 172.371 117.37 173.234 117.37 174.133Z" fill="#FAFAFA"/>
<path d="M88.3047 174.574C88.3047 174.574 88.7667 181.188 106.569 181.188C124.371 181.188 124.833 174.574 124.833 174.574H88.3047Z" fill="#F5F5F5"/>
<path d="M138.227 144.504C138.227 144.504 138.965 151.118 167.177 151.118C195.389 151.118 196.121 144.504 196.121 144.504H138.227Z" fill="white"/>
<path d="M149.998 215.999C214.248 215.999 266.332 212.952 266.332 209.193C266.332 205.434 214.248 202.387 149.998 202.387C85.7486 202.387 33.6641 205.434 33.6641 209.193C33.6641 212.952 85.7486 215.999 149.998 215.999Z" fill="#F5F5F5"/>
<path d="M88.1532 119.057C100.844 106.34 100.844 85.7222 88.1532 73.0054C75.4627 60.2886 54.8874 60.2886 42.1969 73.0054C29.5064 85.7222 29.5064 106.34 42.1969 119.057C54.8874 131.774 75.4627 131.774 88.1532 119.057Z" fill="white"/>
<path opacity="0.4" d="M88.1532 119.057C100.844 106.34 100.844 85.7222 88.1532 73.0054C75.4627 60.2886 54.8874 60.2886 42.1969 73.0054C29.5064 85.7222 29.5064 106.34 42.1969 119.057C54.8874 131.774 75.4627 131.774 88.1532 119.057Z" fill="#C8C8C8"/>
<path opacity="0.2" d="M92.0748 100.629C94.6089 85.7421 84.6198 71.6152 69.7637 69.0759C54.9075 66.5366 40.8099 76.5463 38.2758 91.4334C35.7418 106.32 45.7308 120.447 60.587 122.987C75.4431 125.526 89.5407 115.516 92.0748 100.629Z" fill="#C8C8C8"/>
<path d="M93.382 98.6512C94.3947 84.1535 83.4873 71.5782 69.0197 70.5633C54.552 69.5485 42.0027 80.4785 40.99 94.9762C39.9772 109.474 50.8846 122.049 65.3523 123.064C79.8199 124.079 92.3692 113.149 93.382 98.6512Z" fill="white"/>
<path opacity="0.4" d="M93.382 98.6512C94.3947 84.1535 83.4873 71.5782 69.0197 70.5633C54.552 69.5485 42.0027 80.4785 40.99 94.9762C39.9772 109.474 50.8846 122.049 65.3523 123.064C79.8199 124.079 92.3692 113.149 93.382 98.6512Z" fill="#C8C8C8"/>
<path d="M75.9698 93.5243L77.6798 100.95C77.7524 101.233 77.7654 101.529 77.7178 101.818C77.6703 102.106 77.5634 102.382 77.4038 102.627C77.2488 102.878 77.0452 103.095 76.805 103.265C76.5649 103.435 76.2932 103.556 76.0058 103.619L69.4898 105.128L70.6898 110.353C70.7604 110.636 70.7713 110.93 70.7217 111.216C70.6721 111.503 70.5631 111.777 70.4018 112.019C70.2468 112.265 70.0426 112.477 69.802 112.64C69.5614 112.804 69.2897 112.916 69.0038 112.969C68.7175 113.04 68.4197 113.054 68.1281 113.009C67.8364 112.963 67.5568 112.86 67.3058 112.704C67.0558 112.557 66.8391 112.359 66.6697 112.123C66.5003 111.886 66.3818 111.618 66.3218 111.333L65.1218 106.048L58.6598 107.545C58.3813 107.613 58.0921 107.623 57.8096 107.575C57.5271 107.528 57.2571 107.424 57.0158 107.269C56.7651 107.121 56.5477 106.923 56.3773 106.687C56.2068 106.452 56.0872 106.183 56.0258 105.898C55.9576 105.617 55.9469 105.325 55.9943 105.04C56.0417 104.755 56.1463 104.482 56.3018 104.238C56.4502 103.99 56.6482 103.774 56.8837 103.605C57.1191 103.437 57.3867 103.319 57.6698 103.258L72.7898 99.7652L72.0818 96.6808L57.0038 100.162C56.7247 100.233 56.434 100.247 56.1494 100.203C55.8647 100.158 55.5921 100.057 55.3478 99.9035C55.0974 99.7529 54.881 99.5516 54.7126 99.3124C54.5442 99.0733 54.4275 98.8016 54.3698 98.5146L52.6658 91.1193C52.5347 90.5509 52.6342 89.9535 52.9425 89.4585C53.2508 88.9635 53.7426 88.6115 54.3098 88.4799L60.7418 86.9948L59.5418 81.7639C59.4722 81.4874 59.4587 81.1996 59.502 80.9177C59.5453 80.6357 59.6445 80.3654 59.7938 80.1225C59.9521 79.8595 60.1645 79.6333 60.417 79.4591C60.6695 79.2849 60.9561 79.1667 61.2578 79.1124C61.5353 79.0449 61.8236 79.0345 62.1052 79.0821C62.3868 79.1296 62.6558 79.2341 62.8958 79.389C63.1422 79.5409 63.3554 79.7411 63.5224 79.9778C63.6895 80.2144 63.807 80.4825 63.8678 80.7659L65.0678 85.9907L71.6678 84.4756C71.9533 84.4063 72.2499 84.3956 72.5396 84.4442C72.8294 84.4927 73.1063 84.5995 73.3538 84.7581C73.6042 84.9024 73.8219 85.097 73.9934 85.3299C74.1648 85.5627 74.2862 85.8287 74.3498 86.1109C74.4762 86.6924 74.3706 87.3004 74.0556 87.8049C73.7405 88.3094 73.241 88.6703 72.6638 88.8105L57.5438 92.3038L58.2038 95.3701L73.2698 91.8889C73.5553 91.8196 73.8519 91.809 74.1416 91.8575C74.4314 91.9061 74.7083 92.0129 74.9558 92.1715C75.2102 92.3129 75.432 92.5065 75.6067 92.7396C75.7814 92.9727 75.9052 93.2401 75.9698 93.5243Z" fill="white"/>
<g opacity="0.7">
<path opacity="0.7" d="M75.9698 93.5263L77.6798 100.952C77.7524 101.235 77.7654 101.531 77.7178 101.819C77.6703 102.108 77.5634 102.384 77.4038 102.629C77.2488 102.88 77.0452 103.097 76.805 103.267C76.5649 103.437 76.2932 103.558 76.0058 103.621L69.4898 105.13L70.6898 110.355C70.7604 110.638 70.7713 110.932 70.7217 111.218C70.6721 111.505 70.5631 111.778 70.4018 112.021C70.2468 112.267 70.0426 112.479 69.802 112.642C69.5614 112.806 69.2897 112.917 69.0038 112.971C68.7175 113.042 68.4197 113.056 68.1281 113.011C67.8364 112.965 67.5568 112.862 67.3058 112.706C67.0558 112.559 66.8391 112.36 66.6697 112.124C66.5003 111.888 66.3818 111.62 66.3218 111.335L65.1218 106.05L58.6598 107.547C58.3813 107.615 58.0921 107.625 57.8096 107.577C57.5271 107.53 57.2571 107.426 57.0158 107.271C56.7651 107.123 56.5477 106.925 56.3773 106.689C56.2068 106.453 56.0872 106.185 56.0258 105.9C55.9576 105.619 55.9469 105.327 55.9943 105.042C56.0417 104.757 56.1463 104.484 56.3018 104.24C56.4502 103.991 56.6482 103.776 56.8837 103.607C57.1191 103.439 57.3867 103.321 57.6698 103.26L72.7898 99.7672L72.0818 96.6828L57.0038 100.164C56.7247 100.235 56.434 100.249 56.1494 100.205C55.8647 100.16 55.5921 100.059 55.3478 99.9055C55.0974 99.7549 54.881 99.5535 54.7126 99.3144C54.5442 99.0752 54.4275 98.8035 54.3698 98.5166L52.6658 91.1213C52.5347 90.5528 52.6342 89.9554 52.9425 89.4605C53.2508 88.9655 53.7426 88.6135 54.3098 88.4818L60.7418 86.9967L59.5418 81.7659C59.4722 81.4893 59.4587 81.2015 59.502 80.9196C59.5453 80.6377 59.6445 80.3673 59.7938 80.1245C59.9521 79.8614 60.1645 79.6353 60.417 79.4611C60.6695 79.2869 60.9561 79.1687 61.2578 79.1144C61.5353 79.0468 61.8236 79.0365 62.1052 79.084C62.3868 79.1316 62.6558 79.236 62.8958 79.391C63.1422 79.5428 63.3554 79.7431 63.5224 79.9797C63.6895 80.2164 63.807 80.4845 63.8678 80.7678L65.0678 85.9927L71.6678 84.4775C71.9533 84.4082 72.2499 84.3976 72.5396 84.4461C72.8294 84.4947 73.1063 84.6015 73.3538 84.7601C73.6042 84.9043 73.8219 85.099 73.9934 85.3318C74.1648 85.5647 74.2862 85.8307 74.3498 86.1129C74.4762 86.6944 74.3706 87.3024 74.0556 87.8068C73.7405 88.3113 73.241 88.6722 72.6638 88.8125L57.5438 92.3057L58.2038 95.3721L73.2698 91.8909C73.5553 91.8216 73.8519 91.8109 74.1416 91.8595C74.4314 91.908 74.7083 92.0148 74.9558 92.1735C75.2102 92.3149 75.432 92.5085 75.6067 92.7415C75.7814 92.9746 75.9052 93.242 75.9698 93.5263Z" fill="white"/>
</g>
<path d="M134.519 70.1361C142.604 60.5491 141.402 46.2096 131.835 38.1079C122.268 30.0062 107.958 31.2104 99.8734 40.7974C91.7885 50.3844 92.9901 64.724 102.557 72.8256C112.124 80.9273 126.434 79.7232 134.519 70.1361Z" fill="white"/>
<path opacity="0.4" d="M134.519 70.1361C142.604 60.5491 141.402 46.2096 131.835 38.1079C122.268 30.0062 107.958 31.2104 99.8734 40.7974C91.7885 50.3844 92.9901 64.724 102.557 72.8256C112.124 80.9273 126.434 79.7232 134.519 70.1361Z" fill="#C8C8C8"/>
<path opacity="0.2" d="M131.873 67.608C138.574 59.4848 137.435 47.4558 129.329 40.7405C121.222 34.0252 109.218 35.1665 102.517 43.2897C95.8154 51.4129 96.9543 63.4419 105.061 70.1572C113.167 76.8725 125.171 75.7312 131.873 67.608Z" fill="#C8C8C8"/>
<path d="M132.449 67.8068C138.58 59.768 137.047 48.2706 129.025 42.1267C121.003 35.9828 109.53 37.5189 103.398 45.5577C97.2672 53.5965 98.8001 65.0939 106.822 71.2378C114.844 77.3818 126.318 75.8456 132.449 67.8068Z" fill="white"/>
<path opacity="0.4" d="M132.449 67.8068C138.58 59.768 137.047 48.2706 129.025 42.1267C121.003 35.9828 109.53 37.5189 103.398 45.5577C97.2672 53.5965 98.8001 65.0939 106.822 71.2378C114.844 77.3818 126.318 75.8456 132.449 67.8068Z" fill="#C8C8C8"/>
<path d="M124.693 57.3296L123.403 62.4883C123.356 62.6844 123.269 62.8686 123.147 63.0291C123.025 63.1896 122.871 63.3228 122.695 63.4202C122.517 63.5287 122.319 63.6 122.112 63.63C121.906 63.66 121.696 63.6479 121.495 63.5945L117.001 62.4582L116.089 66.0657C116.042 66.2628 115.955 66.448 115.833 66.6095C115.712 66.771 115.557 66.9052 115.381 67.0036C115.211 67.1095 115.021 67.1795 114.823 67.2095C114.625 67.2395 114.422 67.2287 114.229 67.178C114.029 67.131 113.841 67.0445 113.675 66.9237C113.509 66.803 113.369 66.6502 113.263 66.4745C113.154 66.3029 113.083 66.1107 113.052 65.9101C113.021 65.7094 113.031 65.5045 113.083 65.3081L114.001 61.6405L109.501 60.5402C109.306 60.4934 109.122 60.4075 108.961 60.2876C108.8 60.1678 108.666 60.0164 108.565 59.8428C108.456 59.6723 108.384 59.4812 108.353 59.2815C108.322 59.0817 108.333 58.8777 108.385 58.6824C108.43 58.4847 108.514 58.2983 108.634 58.1349C108.754 57.9715 108.906 57.8345 109.081 57.7324C109.253 57.6269 109.445 57.5576 109.645 57.5286C109.846 57.4997 110.049 57.5117 110.245 57.564L120.745 60.2035L121.285 58.0631L110.815 55.4296C110.619 55.3856 110.434 55.3015 110.272 55.1825C110.11 55.0635 109.974 54.9123 109.873 54.7382C109.764 54.5667 109.693 54.3741 109.664 54.173C109.635 53.972 109.649 53.7671 109.705 53.5718L110.989 48.4311C111.037 48.2352 111.124 48.0508 111.244 47.8886C111.363 47.7264 111.514 47.5897 111.687 47.4862C111.86 47.3828 112.052 47.3147 112.251 47.286C112.451 47.2573 112.654 47.2684 112.849 47.3188L117.301 48.4371L118.213 44.8297C118.257 44.626 118.343 44.4338 118.464 44.265C118.586 44.0962 118.742 43.9545 118.921 43.8489C119.1 43.7433 119.299 43.676 119.506 43.6513C119.712 43.6266 119.922 43.645 120.121 43.7053C120.314 43.7502 120.496 43.8349 120.655 43.9539C120.814 44.0729 120.947 44.2237 121.045 44.3968C121.151 44.5682 121.221 44.7595 121.251 44.959C121.281 45.1585 121.27 45.3621 121.219 45.5572L120.307 49.1646L124.867 50.313C125.067 50.3609 125.255 50.449 125.42 50.572C125.585 50.695 125.723 50.8503 125.827 51.0285C125.936 51.1974 126.01 51.3871 126.043 51.5857C126.076 51.7843 126.067 51.9876 126.019 52.1829C125.969 52.3832 125.879 52.5715 125.756 52.7367C125.632 52.9018 125.477 53.0406 125.299 53.1449C125.122 53.2554 124.924 53.3284 124.717 53.3594C124.511 53.3904 124.3 53.3788 124.099 53.3253L113.593 50.6858L113.065 52.8142L123.529 55.4417C123.729 55.4895 123.917 55.5776 124.082 55.7006C124.247 55.8236 124.385 55.9789 124.489 56.1571C124.604 56.3266 124.682 56.5189 124.718 56.7212C124.753 56.9234 124.744 57.1309 124.693 57.3296Z" fill="white"/>
<g opacity="0.7">
<path opacity="0.7" d="M124.693 57.3296L123.403 62.4883C123.356 62.6844 123.269 62.8686 123.147 63.0291C123.025 63.1896 122.871 63.3228 122.695 63.4202C122.517 63.5287 122.319 63.6 122.112 63.63C121.906 63.66 121.696 63.6479 121.495 63.5945L117.001 62.4582L116.089 66.0657C116.042 66.2628 115.955 66.448 115.833 66.6095C115.712 66.771 115.557 66.9052 115.381 67.0036C115.211 67.1095 115.021 67.1795 114.823 67.2095C114.625 67.2395 114.422 67.2287 114.229 67.178C114.029 67.131 113.841 67.0445 113.675 66.9237C113.509 66.803 113.369 66.6502 113.263 66.4745C113.154 66.3029 113.083 66.1107 113.052 65.9101C113.021 65.7094 113.031 65.5045 113.083 65.3081L114.001 61.6405L109.501 60.5402C109.306 60.4934 109.122 60.4075 108.961 60.2876C108.8 60.1678 108.666 60.0164 108.565 59.8428C108.456 59.6723 108.384 59.4812 108.353 59.2815C108.322 59.0817 108.333 58.8777 108.385 58.6824C108.43 58.4847 108.514 58.2983 108.634 58.1349C108.754 57.9715 108.906 57.8345 109.081 57.7324C109.253 57.6269 109.445 57.5576 109.645 57.5286C109.846 57.4997 110.049 57.5117 110.245 57.564L120.745 60.2035L121.285 58.0631L110.815 55.4296C110.619 55.3856 110.434 55.3015 110.272 55.1825C110.11 55.0635 109.974 54.9123 109.873 54.7382C109.764 54.5667 109.693 54.3741 109.664 54.173C109.635 53.972 109.649 53.7671 109.705 53.5718L110.989 48.4311C111.037 48.2352 111.124 48.0508 111.244 47.8886C111.363 47.7264 111.514 47.5897 111.687 47.4862C111.86 47.3828 112.052 47.3147 112.251 47.286C112.451 47.2573 112.654 47.2684 112.849 47.3188L117.301 48.4371L118.213 44.8297C118.257 44.626 118.343 44.4338 118.464 44.265C118.586 44.0962 118.742 43.9545 118.921 43.8489C119.1 43.7433 119.299 43.676 119.506 43.6513C119.712 43.6266 119.922 43.645 120.121 43.7053C120.314 43.7502 120.496 43.8349 120.655 43.9539C120.814 44.0729 120.947 44.2237 121.045 44.3968C121.151 44.5682 121.221 44.7595 121.251 44.959C121.281 45.1585 121.27 45.3621 121.219 45.5572L120.307 49.1646L124.867 50.313C125.067 50.3609 125.255 50.449 125.42 50.572C125.585 50.695 125.723 50.8503 125.827 51.0285C125.936 51.1974 126.01 51.3871 126.043 51.5857C126.076 51.7843 126.067 51.9876 126.019 52.1829C125.969 52.3832 125.879 52.5715 125.756 52.7367C125.632 52.9018 125.477 53.0406 125.299 53.1449C125.122 53.2554 124.924 53.3284 124.717 53.3594C124.511 53.3904 124.3 53.3788 124.099 53.3253L113.593 50.6858L113.065 52.8142L123.529 55.4417C123.729 55.4895 123.917 55.5776 124.082 55.7006C124.247 55.8236 124.385 55.9789 124.489 56.1571C124.604 56.3266 124.682 56.5189 124.718 56.7212C124.753 56.9234 124.744 57.1309 124.693 57.3296Z" fill="white"/>
</g>
<path d="M61.9594 192.797H61.3594V199.585H61.9594V192.797Z" fill="#458CF5"/>
<path opacity="0.1" d="M61.9594 192.797H61.3594V199.585H61.9594V192.797Z" fill="white" fill-opacity="0.15"/>
<path d="M238.647 139.016H238.047V148.317H238.647V139.016Z" fill="#458CF5"/>
<path d="M238.647 153.199H238.047V158.244H238.647V153.199Z" fill="#458CF5"/>
<path opacity="0.1" d="M238.647 139.016H238.047V148.317H238.647V139.016Z" fill="white" fill-opacity="0.15"/>
<path opacity="0.1" d="M238.647 153.199H238.047V158.244H238.647V153.199Z" fill="white" fill-opacity="0.15"/>
<path d="M227.525 98.6836H72.4909C67.5038 98.6836 63.4609 102.735 63.4609 107.732V198.671C63.4609 203.668 67.5038 207.719 72.4909 207.719H227.525C232.512 207.719 236.555 203.668 236.555 198.671V107.732C236.555 102.735 232.512 98.6836 227.525 98.6836Z" fill="#458CF5"/>
<path opacity="0.2" d="M227.525 98.6836H72.4909C67.5038 98.6836 63.4609 102.735 63.4609 107.732V198.671C63.4609 203.668 67.5038 207.719 72.4909 207.719H227.525C232.512 207.719 236.555 203.668 236.555 198.671V107.732C236.555 102.735 232.512 98.6836 227.525 98.6836Z" fill="white" fill-opacity="0.15"/>
<path d="M208.537 136.654C211.508 136.654 214.357 135.471 216.458 133.366C218.559 131.261 219.739 128.406 219.739 125.428C219.739 122.451 218.559 119.596 216.458 117.491C214.357 115.386 211.508 114.203 208.537 114.203H194.077C191.106 114.203 188.257 115.386 186.156 117.491C184.055 119.596 182.875 122.451 182.875 125.428C182.875 128.406 184.055 131.261 186.156 133.366C188.257 135.471 191.106 136.654 194.077 136.654H208.537Z" fill="#458CF5"/>
<path d="M110.851 136.646H84.1693C82.022 136.646 80.2812 138.391 80.2812 140.543V158.021C80.2812 160.173 82.022 161.917 84.1693 161.917H110.851C112.999 161.917 114.739 160.173 114.739 158.021V140.543C114.739 138.391 112.999 136.646 110.851 136.646Z" fill="#458CF5"/>
<path opacity="0.3" d="M110.851 136.646H84.1693C82.022 136.646 80.2812 138.391 80.2812 140.543V158.021C80.2812 160.173 82.022 161.917 84.1693 161.917H110.851C112.999 161.917 114.739 160.173 114.739 158.021V140.543C114.739 138.391 112.999 136.646 110.851 136.646Z" fill="white"/>
<path d="M129.313 111.441H83.0353C81.5143 111.441 80.2812 112.676 80.2812 114.198C80.2812 115.721 81.5143 116.955 83.0353 116.955H129.313C130.834 116.955 132.067 115.721 132.067 114.198C132.067 112.676 130.834 111.441 129.313 111.441Z" fill="#458CF5"/>
<path opacity="0.3" d="M129.313 111.441H83.0353C81.5143 111.441 80.2812 112.676 80.2812 114.198C80.2812 115.721 81.5143 116.955 83.0353 116.955H129.313C130.834 116.955 132.067 115.721 132.067 114.198C132.067 112.676 130.834 111.441 129.313 111.441Z" fill="white"/>
<path d="M105.133 174.459H84.3193C82.0891 174.459 80.2812 176.271 80.2812 178.505V182.287C80.2812 184.522 82.0891 186.334 84.3193 186.334H105.133C107.363 186.334 109.171 184.522 109.171 182.287V178.505C109.171 176.271 107.363 174.459 105.133 174.459Z" fill="#458CF5"/>
<path opacity="0.3" d="M105.133 174.459H84.3193C82.0891 174.459 80.2812 176.271 80.2812 178.505V182.287C80.2812 184.522 82.0891 186.334 84.3193 186.334H105.133C107.363 186.334 109.171 184.522 109.171 182.287V178.505C109.171 176.271 107.363 174.459 105.133 174.459Z" fill="white"/>
<path d="M141.985 174.459H121.171C118.941 174.459 117.133 176.271 117.133 178.505V182.287C117.133 184.522 118.941 186.334 121.171 186.334H141.985C144.215 186.334 146.023 184.522 146.023 182.287V178.505C146.023 176.271 144.215 174.459 141.985 174.459Z" fill="#458CF5"/>
<path opacity="0.3" d="M141.985 174.459H121.171C118.941 174.459 117.133 176.271 117.133 178.505V182.287C117.133 184.522 118.941 186.334 121.171 186.334H141.985C144.215 186.334 146.023 184.522 146.023 182.287V178.505C146.023 176.271 144.215 174.459 141.985 174.459Z" fill="white"/>
<path d="M178.836 174.459H158.022C155.792 174.459 153.984 176.271 153.984 178.505V182.287C153.984 184.522 155.792 186.334 158.022 186.334H178.836C181.066 186.334 182.874 184.522 182.874 182.287V178.505C182.874 176.271 181.066 174.459 178.836 174.459Z" fill="#458CF5"/>
<path opacity="0.3" d="M178.836 174.459H158.022C155.792 174.459 153.984 176.271 153.984 178.505V182.287C153.984 184.522 155.792 186.334 158.022 186.334H178.836C181.066 186.334 182.874 184.522 182.874 182.287V178.505C182.874 176.271 181.066 174.459 178.836 174.459Z" fill="white"/>
<path d="M215.688 174.459H194.874C192.644 174.459 190.836 176.271 190.836 178.505V182.287C190.836 184.522 192.644 186.334 194.874 186.334H215.688C217.918 186.334 219.726 184.522 219.726 182.287V178.505C219.726 176.271 217.918 174.459 215.688 174.459Z" fill="#458CF5"/>
<path opacity="0.3" d="M215.688 174.459H194.874C192.644 174.459 190.836 176.271 190.836 178.505V182.287C190.836 184.522 192.644 186.334 194.874 186.334H215.688C217.918 186.334 219.726 184.522 219.726 182.287V178.505C219.726 176.271 217.918 174.459 215.688 174.459Z" fill="white"/>
<path d="M175.798 59.2304C174.376 63.2527 172.798 67.1427 171.124 71.0328C169.43 74.9887 167.486 78.8324 165.304 82.5406C165.01 83.0156 164.704 83.4906 164.386 83.9656L164.152 84.3203L163.834 84.7592C163.618 85.0358 163.414 85.2763 163.234 85.5108C162.478 86.3553 161.677 87.1582 160.834 87.9158C159.232 89.4009 157.6 90.7477 155.95 92.0764C152.638 94.7099 149.254 97.175 145.75 99.5138L143.656 96.9104L152.476 88.1984C153.934 86.7494 155.38 85.2883 156.73 83.8273C157.396 83.0998 158.044 82.3543 158.578 81.6688C158.71 81.5005 158.824 81.3321 158.926 81.1878L159.052 80.9834L159.226 80.6708C159.46 80.2559 159.706 79.8531 159.934 79.4262C161.77 75.969 163.39 72.2113 164.95 68.3994C166.51 64.5875 168.01 60.7455 169.45 56.9336L175.798 59.2304Z" fill="#FFBE9D"/>
<path d="M177.489 56.331C178.851 60.3233 170.847 72.0656 170.847 72.0656L163.203 67.8028C164.506 64.139 166.045 60.564 167.811 57.1006C170.487 52.0261 175.995 51.948 177.489 56.331Z" fill="#458CF5"/>
<path opacity="0.7" d="M177.489 56.331C178.851 60.3233 170.847 72.0656 170.847 72.0656L163.203 67.8028C164.506 64.139 166.045 60.564 167.811 57.1006C170.487 52.0261 175.995 51.948 177.489 56.331Z" fill="white"/>
<path opacity="0.31" d="M177.597 56.8304C175.881 56.0067 173.907 56.6981 171.825 59.9929C169.743 63.2877 167.973 68.7891 167.781 70.3584L170.847 72.0599C170.847 72.0599 178.233 61.2134 177.597 56.8304Z" fill="#458CF5"/>
<path d="M172.306 53.2775C172.306 53.2775 166.594 66.7394 170.71 91.8053H194.5C194.794 88.1437 193.114 70.2927 197.236 53.049C194.617 52.5381 191.967 52.2007 189.304 52.0389C185.936 51.8464 182.561 51.8464 179.194 52.0389C176.87 52.2754 174.567 52.6895 172.306 53.2775Z" fill="#458CF5"/>
<path opacity="0.7" d="M172.306 53.2775C172.306 53.2775 166.594 66.7394 170.71 91.8053H194.5C194.794 88.1437 193.114 70.2927 197.236 53.049C194.617 52.5381 191.967 52.2007 189.304 52.0389C185.936 51.8464 182.561 51.8464 179.194 52.0389C176.87 52.2754 174.567 52.6895 172.306 53.2775Z" fill="white"/>
<path d="M202.923 198.598L199.402 201.761L192.688 194.762L196.216 191.6L202.923 198.598Z" fill="#FFBE9D"/>
<path d="M190.85 205.183H186.404L185.828 194.859H190.274L190.85 205.183Z" fill="#FFBE9D"/>
<path d="M192.695 194.762L196.151 198.37L199.679 195.207L196.223 191.6L192.695 194.762Z" fill="#EEA69E"/>
<path d="M190.274 194.863H185.828L186.128 200.184H190.574L190.274 194.863Z" fill="#EEA69E"/>
<path d="M170.712 91.8032C170.712 91.8032 166.026 124.307 164.43 141.995C163.146 156.191 193.776 198.512 193.776 198.512L199.698 192.927C199.698 192.927 177.33 154.982 179.052 139.181C180.72 123.88 186.372 91.7852 186.372 91.7852L170.712 91.8032Z" fill="#3174D8"/>
<path opacity="0.7" d="M170.712 91.8032C170.712 91.8032 166.026 124.307 164.43 141.995C163.146 156.191 193.776 198.512 193.776 198.512L199.698 192.927C199.698 192.927 177.33 154.982 179.052 139.181C180.72 123.88 186.372 91.7852 186.372 91.7852L170.712 91.8032Z" fill="#2C3B53"/>
<path opacity="0.2" d="M179.049 139.2C179.907 131.318 181.827 118.968 183.477 108.855C182.613 107.16 180.189 103.727 180.189 103.727C178.017 111.248 173.295 139.603 180.033 177.896C187.053 189.236 193.773 198.531 193.773 198.531L194.691 183.909C188.205 171.679 177.855 150.125 179.049 139.2Z" fill="white" fill-opacity="0.15"/>
<path d="M179.169 91.8047C179.169 91.8047 178.749 125.865 179.469 138.63C180.255 152.603 184.215 198.899 184.215 198.899H192.363C192.363 198.899 192.117 153.733 192.597 139.904C193.131 124.873 194.511 91.8047 194.511 91.8047H179.169Z" fill="#3174D8"/>
<path opacity="0.7" d="M179.169 91.8047C179.169 91.8047 178.749 125.865 179.469 138.63C180.255 152.603 184.215 198.899 184.215 198.899H192.363C192.363 198.899 192.117 153.733 192.597 139.904C193.131 124.873 194.511 91.8047 194.511 91.8047H179.169Z" fill="#2C3B53"/>
<path d="M186.164 204.67H191.162C191.246 204.667 191.327 204.697 191.389 204.753C191.45 204.809 191.488 204.887 191.492 204.971L191.738 208.933C191.739 209.036 191.719 209.139 191.681 209.235C191.642 209.331 191.585 209.418 191.512 209.492C191.44 209.565 191.354 209.624 191.259 209.664C191.163 209.705 191.061 209.726 190.958 209.727C189.218 209.697 188.384 209.594 186.188 209.594C184.838 209.594 179.09 209.739 177.224 209.739C175.358 209.739 175.424 207.887 176.198 207.718C179.744 206.967 184.142 205.915 185.402 204.941C185.619 204.769 185.887 204.674 186.164 204.67Z" fill="#263238"/>
<path d="M198.434 200.497L202.718 197.605C202.788 197.55 202.874 197.52 202.964 197.52C203.053 197.52 203.14 197.55 203.21 197.605L206.486 200.918C206.55 200.991 206.597 201.077 206.624 201.17C206.651 201.263 206.657 201.361 206.642 201.457C206.627 201.553 206.592 201.644 206.538 201.724C206.484 201.805 206.413 201.872 206.33 201.922C203.594 204.033 201.62 205.626 200.06 207.382C198.26 209.432 197.288 209.726 193.088 209.726C191.144 209.726 190.046 208.085 190.838 207.833C197.834 205.614 195.962 204.646 197.666 201.393C197.843 201.035 198.107 200.727 198.434 200.497Z" fill="#263238"/>
<path d="M144.669 96.3496L140.031 96.5119L141.003 100.155C141.003 100.155 145.851 100.588 146.283 99.1214L144.669 96.3496Z" fill="#FFBE9D"/>
<path d="M135.023 98.6822L138.275 100.582L140.999 100.155L140.027 96.5117L135.023 98.6822Z" fill="#FFBE9D"/>
<path opacity="0.31" d="M191.918 57.3036C191.426 60.1414 192.08 66.9235 194.51 74.7758C194.701 68.0482 195.482 61.3505 196.844 54.7603V54.7242C195.284 54.5679 192.392 54.64 191.918 57.3036Z" fill="#458CF5"/>
<path d="M188.698 40.625C187.948 43.8838 187.102 49.8601 189.298 52.0487C189.298 52.0487 188.35 54.7483 182.302 54.7483C175.654 54.7483 179.188 52.0487 179.188 52.0487C182.848 51.1829 182.848 48.4833 182.302 45.952L188.698 40.625Z" fill="#FFBE9D"/>
<path d="M182.136 54.7383L180.336 56.6563L181.218 58.5081L182.652 58.5742L183.876 56.8066L182.136 54.7383Z" fill="#458CF5"/>
<path d="M186.098 42.7969L182.312 45.9354C182.449 46.5281 182.533 47.1317 182.564 47.7391C183.956 47.5407 185.912 46.0135 186.11 44.5585C186.216 43.9757 186.212 43.3782 186.098 42.7969Z" fill="#EEA69E"/>
<path d="M180.809 29.5761C178.535 30.3517 176.717 36.3942 179.369 37.9935C182.021 39.5929 185.129 28.103 180.809 29.5761Z" fill="#263238"/>
<path d="M190.119 37.2119C188.763 41.4206 188.187 43.9639 185.451 45.6894C184.568 46.2579 183.547 46.5737 182.499 46.6027C181.45 46.6317 180.413 46.3728 179.5 45.854C178.588 45.3351 177.834 44.5761 177.321 43.6591C176.808 42.742 176.555 41.7018 176.589 40.651C176.643 36.6046 178.851 30.3757 183.501 29.5941C184.503 29.4002 185.539 29.4736 186.504 29.8069C187.469 30.1402 188.329 30.7216 188.999 31.493C189.67 32.2645 190.126 33.1988 190.322 34.2025C190.519 35.2061 190.449 36.2439 190.119 37.2119Z" fill="#FFBE9D"/>
<path d="M193.478 30.1769C192.122 33.4597 195.278 30.718 194.462 34.6141C193.934 37.1513 189.362 43.2299 187.598 42.6768C185.834 42.1236 185.852 37.8127 188.102 34.7644C189.398 33.0148 186.596 31.0307 180.302 31.2411C174.008 31.4515 170.204 27.9042 178.568 25.3008C178.568 25.3008 175.484 27.1045 177.314 27.7058C179.906 28.6738 196.196 23.5993 193.478 30.1769Z" fill="#263238"/>
<path d="M192.283 31.6801C192.217 31.6801 193.693 31.3133 194.479 28.6738C194.479 28.7159 194.221 32.606 192.283 31.6801Z" fill="#263238"/>
<path d="M180.501 25.8828C176.631 27.0853 178.233 28.4381 179.835 28.7748L183.507 27.3318C177.927 28.0713 180.501 25.8828 180.501 25.8828Z" fill="#263238"/>
<path d="M190.865 42.3532C190.061 43.1368 188.987 43.5822 187.865 43.5978C186.383 43.5978 186.065 42.1909 186.863 41.0124C187.571 39.9542 189.191 38.6796 190.499 39.2508C191.807 39.822 191.849 41.3852 190.865 42.3532Z" fill="#FFBE9D"/>
<path d="M183.284 36.9781C183.194 37.3269 182.936 37.5794 182.684 37.5193C182.432 37.4591 182.342 37.1405 182.432 36.7918C182.522 36.443 182.78 36.1905 183.032 36.2567C183.284 36.3228 183.374 36.6294 183.284 36.9781Z" fill="#263238"/>
<path d="M179.324 36.1054C179.234 36.4541 178.976 36.7066 178.724 36.6465C178.472 36.5864 178.382 36.2737 178.472 35.925C178.562 35.5763 178.814 35.3238 179.072 35.3839C179.33 35.444 179.396 35.7566 179.324 36.1054Z" fill="#263238"/>
<path d="M180.541 36.5566C179.858 37.5301 179.052 38.4094 178.141 39.1721C178.341 39.3952 178.588 39.5716 178.863 39.689C179.139 39.8064 179.437 39.8618 179.737 39.8515L180.541 36.5566Z" fill="#E39896"/>
<path d="M181.201 41.1194C180.953 41.1191 180.705 41.0909 180.463 41.0352C180.436 41.0281 180.413 41.0111 180.399 40.9876C180.384 40.9642 180.379 40.936 180.385 40.909C180.392 40.8823 180.409 40.8594 180.433 40.8448C180.456 40.8303 180.484 40.8253 180.511 40.8308C180.953 40.9294 181.411 40.9265 181.852 40.8224C182.292 40.7183 182.704 40.5156 183.055 40.2296C183.075 40.2101 183.102 40.1992 183.13 40.1992C183.158 40.1992 183.185 40.2101 183.205 40.2296C183.224 40.2497 183.235 40.2767 183.235 40.3047C183.235 40.3328 183.224 40.3597 183.205 40.3799C182.648 40.8605 181.936 41.1231 181.201 41.1194Z" fill="#263238"/>
<path d="M184.858 35.9738C184.817 35.9745 184.777 35.9629 184.743 35.9403C184.709 35.9178 184.682 35.8855 184.666 35.8476C184.568 35.6064 184.413 35.3925 184.214 35.224C184.016 35.0555 183.78 34.9374 183.526 34.8796C183.498 34.8759 183.472 34.8667 183.448 34.8526C183.424 34.8384 183.403 34.8196 183.386 34.7972C183.369 34.7748 183.357 34.7493 183.35 34.7221C183.343 34.695 183.342 34.6667 183.346 34.6391C183.355 34.5837 183.385 34.534 183.43 34.5003C183.475 34.4667 183.531 34.4518 183.586 34.4587C183.909 34.5247 184.212 34.6687 184.467 34.8783C184.722 35.0878 184.922 35.3566 185.05 35.6612C185.062 35.6863 185.069 35.7136 185.07 35.7414C185.07 35.7692 185.066 35.7969 185.056 35.8228C185.045 35.8487 185.03 35.8722 185.011 35.892C184.991 35.9118 184.968 35.9273 184.942 35.9378C184.917 35.9558 184.888 35.9681 184.858 35.9738Z" fill="#263238"/>
<path d="M177.99 34.38C177.942 34.3796 177.895 34.3626 177.858 34.3319C177.815 34.2956 177.788 34.2438 177.782 34.1877C177.777 34.1315 177.793 34.0754 177.828 34.0313C178.04 33.7677 178.309 33.5563 178.615 33.4135C178.92 33.2707 179.255 33.2002 179.592 33.2075C179.62 33.2098 179.647 33.2175 179.671 33.2303C179.696 33.243 179.718 33.2605 179.736 33.2817C179.754 33.303 179.767 33.3275 179.775 33.354C179.784 33.3805 179.787 33.4084 179.784 33.436C179.783 33.464 179.776 33.4914 179.763 33.5164C179.751 33.5415 179.733 33.5638 179.712 33.5818C179.691 33.5999 179.666 33.6133 179.639 33.6213C179.612 33.6293 179.584 33.6318 179.556 33.6284C179.286 33.6256 179.02 33.6848 178.776 33.8015C178.533 33.9183 178.319 34.0894 178.152 34.3018C178.133 34.3264 178.108 34.3462 178.08 34.3597C178.052 34.3733 178.021 34.3802 177.99 34.38Z" fill="#263238"/>
<path d="M198.391 56.1211C198.859 56.8486 199.249 57.4919 199.645 58.1894C200.041 58.8868 200.419 59.5602 200.791 60.2577C201.523 61.6465 202.213 63.0655 202.843 64.5145C204.165 67.4809 205.157 70.5839 205.801 73.7677L205.861 74.0743L205.891 74.2246L205.933 74.4771C205.984 74.8134 206.01 75.1531 206.011 75.4932C206.005 76.0629 205.945 76.6306 205.831 77.1887C205.628 78.1093 205.335 79.0075 204.955 79.8703C204.281 81.382 203.478 82.8324 202.555 84.2053C200.81 86.8158 198.825 89.2574 196.627 91.4984L194.017 89.4C195.469 86.8628 196.915 84.2293 198.127 81.65C198.723 80.4164 199.232 79.1427 199.651 77.8381C199.822 77.2939 199.939 76.734 199.999 76.1666C200.02 75.9808 200.02 75.7933 199.999 75.6075C199.999 75.5534 199.999 75.5053 199.963 75.4992C199.927 75.4932 199.963 75.4992 199.963 75.4692L199.927 75.3489L199.855 75.1024C199.476 73.7762 199.025 72.4716 198.505 71.1943C197.977 69.8896 197.389 68.5909 196.771 67.2983C196.153 66.0056 195.487 64.7309 194.803 63.4563C194.467 62.819 194.113 62.1877 193.759 61.5624L192.703 59.7586L198.391 56.1211Z" fill="#FFBE9D"/>
<path d="M184.596 205.441C184.296 205.472 183.997 205.388 183.756 205.207C183.688 205.132 183.64 205.04 183.617 204.941C183.594 204.843 183.597 204.739 183.624 204.642C183.637 204.576 183.667 204.515 183.71 204.463C183.753 204.412 183.808 204.372 183.87 204.347C184.416 204.131 185.67 204.996 185.814 205.093C185.832 205.104 185.845 205.12 185.853 205.14C185.861 205.159 185.862 205.181 185.856 205.201C185.853 205.221 185.844 205.24 185.83 205.255C185.816 205.27 185.798 205.28 185.778 205.285C185.39 205.378 184.994 205.431 184.596 205.441ZM184.074 204.521C184.032 204.515 183.99 204.515 183.948 204.521C183.917 204.532 183.891 204.552 183.87 204.577C183.85 204.603 183.838 204.633 183.834 204.666C183.812 204.729 183.807 204.796 183.82 204.862C183.833 204.927 183.862 204.988 183.906 205.039C184.11 205.243 184.692 205.267 185.49 205.111C185.066 204.816 184.583 204.617 184.074 204.527V204.521Z" fill="white"/>
<path d="M185.754 205.29H185.7C185.256 205.025 184.596 204.087 184.698 203.606C184.716 203.518 184.763 203.439 184.831 203.381C184.9 203.323 184.986 203.29 185.076 203.288C185.155 203.277 185.236 203.285 185.311 203.31C185.387 203.335 185.456 203.377 185.514 203.432C185.964 203.871 185.862 205.151 185.862 205.206C185.86 205.224 185.853 205.241 185.843 205.255C185.832 205.27 185.818 205.282 185.802 205.29H185.754ZM185.154 203.486H185.106C184.956 203.486 184.92 203.576 184.908 203.636C184.842 203.955 185.28 204.658 185.664 204.983C185.719 204.495 185.618 204.003 185.376 203.576C185.346 203.547 185.31 203.524 185.271 203.508C185.232 203.493 185.19 203.485 185.148 203.486H185.154Z" fill="white"/>
<path d="M195.554 202.914C195.443 202.917 195.332 202.897 195.23 202.854C195.15 202.822 195.08 202.772 195.025 202.707C194.969 202.642 194.931 202.564 194.912 202.481C194.896 202.431 194.894 202.377 194.906 202.325C194.917 202.274 194.942 202.226 194.978 202.187C195.38 201.7 197.486 201.844 197.726 201.862C197.748 201.863 197.769 201.871 197.787 201.885C197.804 201.899 197.816 201.918 197.822 201.94C197.826 201.962 197.824 201.984 197.815 202.005C197.807 202.025 197.792 202.042 197.774 202.054C197.104 202.497 196.346 202.79 195.554 202.914ZM196.826 202.036C196.088 202.036 195.314 202.108 195.14 202.319C195.129 202.335 195.124 202.354 195.124 202.373C195.124 202.392 195.129 202.411 195.14 202.427C195.15 202.479 195.172 202.528 195.206 202.569C195.239 202.61 195.283 202.642 195.332 202.662C195.668 202.8 196.424 202.571 197.378 202.06L196.826 202.036Z" fill="white"/>
<path d="M197.716 202.073C197.116 202.073 195.766 201.61 195.664 201.129C195.664 201.008 195.664 200.84 195.952 200.702C196.984 200.215 197.782 201.85 197.818 201.904C197.825 201.921 197.829 201.94 197.829 201.958C197.829 201.977 197.825 201.995 197.818 202.013C197.808 202.031 197.793 202.046 197.775 202.057C197.757 202.067 197.737 202.073 197.716 202.073ZM196.33 200.828C196.228 200.827 196.128 200.85 196.036 200.894C195.91 200.954 195.85 201.02 195.862 201.081C195.922 201.363 196.894 201.76 197.53 201.844C197.338 201.519 196.876 200.828 196.33 200.828Z" fill="white"/>
<path d="M195.201 88.426L190.797 87.6504L193.071 92.791C193.071 92.791 197.109 92.791 196.929 90.6747L195.201 88.426Z" fill="#FFBE9D"/>
<path d="M187.469 90.2297L189.551 94.3843L193.049 92.785L190.775 87.6504L187.469 90.2297Z" fill="#FFBE9D"/>
<path d="M200.057 192.603L193.415 198.874L191.273 196.571L198.875 189.633L200.057 192.603Z" fill="#458CF5"/>
<path opacity="0.6" d="M200.057 192.603L193.415 198.874L191.273 196.571L198.875 189.633L200.057 192.603Z" fill="white"/>
<path d="M192.686 198.897H183.884L183.398 195.801L193.112 196.282L192.686 198.897Z" fill="#458CF5"/>
<path opacity="0.6" d="M192.686 198.897H183.884L183.398 195.801L193.112 196.282L192.686 198.897Z" fill="white"/>
<path d="M197.239 53.0473C201.439 53.6485 205.741 68.2708 205.741 68.2708L196.741 73.2732C196.741 73.2732 193.087 66.3228 191.341 61.1641C189.511 55.7589 192.745 52.3859 197.239 53.0473Z" fill="#458CF5"/>
<path opacity="0.7" d="M197.239 53.0473C201.439 53.6485 205.741 68.2708 205.741 68.2708L196.741 73.2732C196.741 73.2732 193.087 66.3228 191.341 61.1641C189.511 55.7589 192.745 52.3859 197.239 53.0473Z" fill="white"/>
<path opacity="0.2" d="M182.136 54.7383L180.336 56.6563L181.218 58.5081L182.652 58.5742L183.876 56.8066L182.136 54.7383Z" fill="white" fill-opacity="0.15"/>
<path d="M181.373 58.1758C181.373 58.1758 177.959 72.3471 177.827 75.2932C177.641 79.3456 179.333 86.266 179.333 86.266C179.333 86.266 181.733 80.5121 182.225 75.167C182.717 69.8219 182.351 61.176 182.573 58.1758H181.373Z" fill="#458CF5"/>
<path opacity="0.2" d="M181.373 58.1758C181.373 58.1758 177.959 72.3471 177.827 75.2932C177.641 79.3456 179.333 86.266 179.333 86.266C179.333 86.266 181.733 80.5121 182.225 75.167C182.717 69.8219 182.351 61.176 182.573 58.1758H181.373Z" fill="white" fill-opacity="0.15"/>
<path d="M182.133 54.7384C182.817 55.8475 183.213 57.1103 183.285 58.412C183.285 58.412 190.773 55.7665 190.419 51.8885C190.419 51.8885 189.357 51.2572 188.685 50.7461C188.685 50.7461 188.433 53.1872 182.133 54.7384Z" fill="#458CF5"/>
<path opacity="0.6" d="M182.133 54.7384C182.817 55.8475 183.213 57.1103 183.285 58.412C183.285 58.412 190.773 55.7665 190.419 51.8885C190.419 51.8885 189.357 51.2572 188.685 50.7461C188.685 50.7461 188.433 53.1872 182.133 54.7384Z" fill="white"/>
<path d="M182.135 54.738C181.446 55.788 180.951 56.9526 180.671 58.1772C180.671 58.1772 177.281 55.8804 178.301 52.0505C178.922 51.7996 179.562 51.5986 180.215 51.4492C180.215 51.4492 179.771 53.9264 182.135 54.738Z" fill="#458CF5"/>
<path opacity="0.6" d="M182.135 54.738C181.446 55.788 180.951 56.9526 180.671 58.1772C180.671 58.1772 177.281 55.8804 178.301 52.0505C178.922 51.7996 179.562 51.5986 180.215 51.4492C180.215 51.4492 179.771 53.9264 182.135 54.738Z" fill="white"/>
</svg>
