<svg width="16" height="16" viewBox="0 0 16 16" fill="none" xmlns="http://www.w3.org/2000/svg">
<g clip-path="url(#clip0_8302_49092)">
<path d="M12.134 12.936C10.9615 13.6797 9.60116 14.0736 8.21267 14.0713C4.618 14.0713 1.62733 11.4847 1 8.07133C1.28669 6.51848 2.06775 5.09993 3.22667 4.02733L1.14067 1.94333L2.084 1L15.2833 14.2L14.34 15.1427L12.1333 12.936H12.134ZM4.16933 4.97133C3.26334 5.79506 2.63221 6.87719 2.36133 8.07133C2.56953 8.9823 2.98751 9.8321 3.582 10.5531C4.17649 11.274 4.93108 11.8463 5.7857 12.2242C6.64032 12.6021 7.57137 12.7754 8.50473 12.7301C9.43809 12.6848 10.348 12.4222 11.162 11.9633L9.81 10.6113C9.23446 10.9739 8.5528 11.1301 7.87683 11.0543C7.20085 10.9785 6.57069 10.6753 6.08971 10.1943C5.60873 9.71331 5.30549 9.08315 5.22971 8.40717C5.15393 7.7312 5.31012 7.04954 5.67267 6.474L4.16933 4.97133ZM8.822 9.62333L6.66067 7.462C6.54204 7.76396 6.51413 8.09397 6.58034 8.41156C6.64655 8.72916 6.80401 9.02052 7.03341 9.24992C7.26281 9.47932 7.55418 9.63678 7.87177 9.703C8.18936 9.76921 8.51938 9.74129 8.82133 9.62267L8.822 9.62333ZM14.084 11.1327L13.13 10.1793C13.5757 9.5442 13.8929 8.82812 14.064 8.07133C13.8828 7.27782 13.5422 6.52943 13.0628 5.87166C12.5834 5.21389 11.9752 4.66048 11.2752 4.24507C10.5753 3.82965 9.7982 3.56091 8.99116 3.45518C8.18412 3.34944 7.364 3.40892 6.58067 3.63L5.52867 2.578C6.36 2.25133 7.266 2.07133 8.21267 2.07133C11.8073 2.07133 14.798 4.658 15.4253 8.07133C15.2211 9.1818 14.7619 10.2297 14.084 11.1327ZM8.028 5.07667C8.45234 5.05044 8.87741 5.11471 9.27503 5.26521C9.67265 5.41571 10.0337 5.64901 10.3344 5.94963C10.635 6.25026 10.8683 6.61135 11.0188 7.00897C11.1693 7.40659 11.2336 7.83166 11.2073 8.256L8.02733 5.07667H8.028Z" fill="#C4C4C4"/>
</g>
<defs>
<clipPath id="clip0_8302_49092">
<rect width="16" height="16" fill="white"/>
</clipPath>
</defs>
</svg>
