<svg width="16" height="16" viewBox="0 0 16 16" fill="none" xmlns="http://www.w3.org/2000/svg">
<g clip-path="url(#clip0_8302_46366)">
<path d="M7.9987 14.6673C4.3167 14.6673 1.33203 11.6827 1.33203 8.00065C1.33203 4.31865 4.3167 1.33398 7.9987 1.33398C11.6807 1.33398 14.6654 4.31865 14.6654 8.00065C14.6654 11.6827 11.6807 14.6673 7.9987 14.6673ZM7.33203 10.0007V11.334H8.66537V10.0007H7.33203ZM8.66537 8.90399C9.20115 8.7425 9.6611 8.39395 9.96147 7.92181C10.2618 7.44967 10.3826 6.88535 10.3019 6.33163C10.2211 5.7779 9.9441 5.27161 9.52137 4.90496C9.09864 4.5383 8.55828 4.33568 7.9987 4.33398C7.45927 4.33394 6.93647 4.52075 6.51923 4.86265C6.10198 5.20454 5.81604 5.68041 5.71003 6.20932L7.01803 6.47132C7.05515 6.28561 7.14424 6.11425 7.27494 5.9772C7.40564 5.84014 7.57257 5.74301 7.75632 5.69712C7.94006 5.65123 8.13305 5.65846 8.31285 5.71796C8.49264 5.77747 8.65184 5.88681 8.77192 6.03326C8.892 6.17971 8.96803 6.35725 8.99115 6.54521C9.01428 6.73318 8.98355 6.92385 8.90255 7.09504C8.82154 7.26623 8.69359 7.41089 8.53358 7.5122C8.37357 7.61352 8.18808 7.66731 7.9987 7.66732C7.82189 7.66732 7.65232 7.73756 7.52729 7.86258C7.40227 7.98761 7.33203 8.15717 7.33203 8.33399V9.33399H8.66537V8.90399Z" fill="#9E9EA8"/>
</g>
<defs>
<clipPath id="clip0_8302_46366">
<rect width="16" height="16" fill="white"/>
</clipPath>
</defs>
</svg>
