<svg width="16" height="16" viewBox="0 0 16 16" fill="none" xmlns="http://www.w3.org/2000/svg">
<g clip-path="url(#clip0_8302_39454)">
<path d="M4.66667 3.9987V1.9987C4.66667 1.82189 4.7369 1.65232 4.86193 1.52729C4.98695 1.40227 5.15652 1.33203 5.33333 1.33203H13.3333C13.5101 1.33203 13.6797 1.40227 13.8047 1.52729C13.9298 1.65232 14 1.82189 14 1.9987V11.332C14 11.5088 13.9298 11.6784 13.8047 11.8034C13.6797 11.9285 13.5101 11.9987 13.3333 11.9987H11.3333V13.9987C11.3333 14.3667 11.0333 14.6654 10.662 14.6654H2.67133C2.58342 14.6659 2.49626 14.649 2.41488 14.6158C2.3335 14.5825 2.25949 14.5335 2.19711 14.4716C2.13472 14.4096 2.0852 14.3359 2.05137 14.2548C2.01754 14.1736 2.00009 14.0866 2 13.9987L2.002 4.66536C2.002 4.29736 2.302 3.9987 2.67333 3.9987H4.66667ZM3.33533 5.33203L3.33333 13.332H10V5.33203H3.33533ZM6 3.9987H11.3333V10.6654H12.6667V2.66536H6V3.9987Z" fill="#7B7B84"/>
</g>
<defs>
<clipPath id="clip0_8302_39454">
<rect width="16" height="16" fill="white"/>
</clipPath>
</defs>
</svg>
