<svg width="24" height="24" viewBox="0 0 24 24" fill="none" xmlns="http://www.w3.org/2000/svg">
<circle cx="12" cy="12" r="12" fill="#A0A0A0"/>
<g clip-path="url(#clip0_8302_39469)">
<path d="M16.2427 15.5746L12 19.8173L7.75734 15.5746C6.91823 14.7355 6.34679 13.6664 6.11529 12.5025C5.88378 11.3387 6.0026 10.1323 6.45673 9.03591C6.91086 7.93956 7.6799 7.00249 8.66659 6.34321C9.65328 5.68392 10.8133 5.33203 12 5.33203C13.1867 5.33203 14.3467 5.68392 15.3334 6.34321C16.3201 7.00249 17.0891 7.93956 17.5433 9.03591C17.9974 10.1323 18.1162 11.3387 17.8847 12.5025C17.6532 13.6664 17.0818 14.7355 16.2427 15.5746V15.5746ZM12 12.6653C12.3536 12.6653 12.6928 12.5248 12.9428 12.2748C13.1929 12.0247 13.3333 11.6856 13.3333 11.332C13.3333 10.9784 13.1929 10.6392 12.9428 10.3892C12.6928 10.1391 12.3536 9.99865 12 9.99865C11.6464 9.99865 11.3072 10.1391 11.0572 10.3892C10.8071 10.6392 10.6667 10.9784 10.6667 11.332C10.6667 11.6856 10.8071 12.0247 11.0572 12.2748C11.3072 12.5248 11.6464 12.6653 12 12.6653Z" fill="white"/>
</g>
<defs>
<clipPath id="clip0_8302_39469">
<rect width="16" height="16" fill="white" transform="translate(4 4)"/>
</clipPath>
</defs>
</svg>
